<?xml version="1.0" encoding="UTF-8"?>
<svg width="31px" height="33px" viewBox="0 0 31 33" version="1.1" xmlns="http://www.w3.org/2000/svg" xmlns:xlink="http://www.w3.org/1999/xlink">
    <!-- Generator: Sketch 52.4 (67378) - http://www.bohemiancoding.com/sketch -->
    <title>payment</title>
    <desc>Created with Sketch.</desc>
    <g id="Page-1" stroke="none" stroke-width="1" fill="none" fill-rule="evenodd">
        <g id="Knowledge-Home-UX-v4-final" transform="translate(-492.000000, -413.000000)" stroke="#5B5B5B" stroke-width="2">
            <g id="Group-2" transform="translate(372.000000, 396.000000)">
                <g id="payment" transform="translate(121.375000, 18.409091)">
                    <polyline id="Path" points="16.3114955 20 0 20 0 6.875 28.125 6.875 28.125 20 25.1116071 20"></polyline>
                    <path d="M6.25,6.875 L6.25,3.875 C6.25,2.7705 7.08953125,1.875 8.125,1.875 C9.16046875,1.875 10,2.7705 10,3.875 L10,6.875" id="Path" stroke-linecap="square"></path>
                    <path d="M10,6.875 L10,2.70833333 C10,1.5578125 10.8395312,0.625 11.875,0.625 C12.9104687,0.625 13.75,1.5578125 13.75,2.70833333 L13.75,6.875" id="Path" stroke-linecap="square"></path>
                    <path d="M14.375,6.875 L14.375,1.96428571 C14.375,0.879508929 15.2145312,0 16.25,0 C17.2854687,0 18.125,0.879508929 18.125,1.96428571 L18.125,6.875" id="Path" stroke-linecap="square"></path>
                    <path d="M18.125,6.875 L18.125,2.70833333 C18.125,1.5578125 18.9645312,0.625 20,0.625 C21.0354687,0.625 21.875,1.5578125 21.875,2.70833333 L21.875,6.875" id="Path" stroke-linecap="square"></path>
                    <circle id="Oval" stroke-linecap="square" cx="14.375" cy="13.75" r="2.5"></circle>
                    <path d="M8.125,10.9375 L4.375,10.9375" id="Path" stroke-linecap="square"></path>
                    <path d="M5.625,20.1315789 L5.625,20.625 C5.625,25.8024671 9.96245066,30 15.3125,30 C20.6625493,30 25,25.8024671 25,20.625 L25,20.1315789 L25,11.25 C22.6959046,11.25 20.9210526,12.9675987 20.9210526,15.1973684 L20.9210526,18.1578947 C17.7766941,18.1578947 14.8026316,20.2958882 14.8026316,23.0921053" id="Path" stroke-linecap="square"></path>
                </g>
            </g>
        </g>
    </g>
</svg>