<?xml version="1.0" encoding="UTF-8"?>
<svg width="32px" height="33px" viewBox="0 0 32 33" version="1.1" xmlns="http://www.w3.org/2000/svg" xmlns:xlink="http://www.w3.org/1999/xlink">
    <!-- Generator: Sketch 52.4 (67378) - http://www.bohemiancoding.com/sketch -->
    <title>settings-gear</title>
    <desc>Created with Sketch.</desc>
    <g id="Page-1" stroke="none" stroke-width="1" fill="none" fill-rule="evenodd" stroke-linecap="square">
        <g id="Knowledge-Home-UX-v4-final" transform="translate(-810.000000, -413.000000)" stroke="#5B5B5B" stroke-width="2">
            <g id="Group" transform="translate(689.000000, 396.000000)">
                <g id="settings-gear" transform="translate(121.818182, 18.409091)">
                    <circle id="Oval" cx="15" cy="15" r="4.09090909"></circle>
                    <path d="M25.9090909,15 C25.9074755,14.214433 25.8215285,13.4313094 25.6527273,12.6640909 L29.3536364,9.86181818 L26.6263636,5.13818182 L22.3404545,6.94636364 C21.1798125,5.88231728 19.8022566,5.08258117 18.3027273,4.60227273 L17.7272727,0 L12.2727273,0 L11.6972727,4.60227273 C10.1977434,5.08258117 8.82018745,5.88231728 7.65954545,6.94636364 L3.37363636,5.13818182 L0.646363636,9.86181818 L4.34727273,12.6640909 C4.00553553,14.2026154 4.00553553,15.7973846 4.34727273,17.3359091 L0.646363636,20.1381818 L3.37363636,24.8618182 L7.65954545,23.0536364 C8.82018745,24.1176827 10.1977434,24.9174188 11.6972727,25.3977273 L12.2727273,30 L17.7272727,30 L18.3027273,25.3977273 C19.8022566,24.9174188 21.1798125,24.1176827 22.3404545,23.0536364 L26.6263636,24.8618182 L29.3536364,20.1381818 L25.6527273,17.3359091 C25.8215285,16.5686906 25.9074755,15.785567 25.9090909,15 Z" id="Path"></path>
                </g>
            </g>
        </g>
    </g>
</svg>