<?xml version="1.0" encoding="UTF-8"?>
<svg width="64px" height="52px" viewBox="0 0 64 52" version="1.1" xmlns="http://www.w3.org/2000/svg" xmlns:xlink="http://www.w3.org/1999/xlink">
    <!-- Generator: Sketch 52.2 (67145) - http://www.bohemiancoding.com/sketch -->
    <title>logo-honda-solo</title>
    <desc>Created with Sketch.</desc>
    <g id="Page-1" stroke="none" stroke-width="1" fill="none" fill-rule="evenodd">
        <g id="Style-Guide" transform="translate(-248.000000, -110.000000)" fill="#0072CE">
            <g id="logo-honda-solo" transform="translate(248.000000, 110.000000)">
                <path d="M46.6122881,4 C45.1631356,10.6061168 44.559322,13.6237257 43.3919492,18.39481 C42.2648305,22.9620019 41.3792373,27.2437442 39.8495763,29.2826691 C38.3199153,31.3623726 36.2266949,31.8109361 34.8177966,31.97405 C34.0932203,32.055607 33.5699153,32.0963855 32,32.0963855 C30.4300847,32.0963855 29.9067797,32.055607 29.1822034,31.97405 C27.7733051,31.8109361 25.720339,31.3623726 24.1504237,29.2826691 C22.6207627,27.2029657 21.7351695,22.9620019 20.6080508,18.39481 C19.440678,13.6237257 18.8368644,10.6061168 17.3877119,4 C17.3877119,4 15.9385593,4.0407785 15.2944915,4.1223355 C14.4088983,4.20389249 13.7245763,4.24467099 13,4.36700649 C13,4.36700649 13.845339,17.905468 14.2076271,23.6552363 C14.6101695,29.6904541 15.2944915,39.8850788 15.9788136,47.5514365 C15.9788136,47.5514365 17.1864407,47.755329 19.2394068,47.8776645 C21.3728814,48 22.3389831,48 22.3389831,48 C23.2245763,44.6153846 24.3114407,39.9258573 25.5190678,37.9277108 C26.5254237,36.2965709 28.0550847,36.1334569 28.940678,36.0111214 C30.309322,35.8072289 31.4766949,35.8072289 32,35.8072289 C32.5233051,35.8072289 33.690678,35.8072289 35.059322,36.0111214 C35.9449153,36.1334569 37.4745763,36.2965709 38.4809322,37.9277108 C39.7288136,39.9258573 40.815678,44.6153846 41.6610169,48 C41.6610169,48 42.6271186,48 44.7605932,47.8776645 C46.7733051,47.755329 48.0211864,47.5514365 48.0211864,47.5514365 C48.6652542,39.8850788 49.3898305,29.6904541 49.7923729,23.6552363 C50.154661,17.905468 51,4.36700649 51,4.36700649 C50.2754237,4.28544949 49.5911017,4.20389249 48.7055085,4.1223355 C48.0614407,4.0407785 46.6122881,4 46.6122881,4 Z" id="Path"></path>
                <path d="M63.726149,12.3307332 C62.874168,3.77223089 57.1537242,1.94695788 52.1229794,1.13572543 C49.607607,0.730109204 45.1042789,0.365054602 42.2237718,0.243369735 C39.7083994,0.0811232449 33.785103,0 32,0 C30.2554675,0 24.2916006,0.0811232449 21.7762282,0.243369735 C18.8957211,0.365054602 14.392393,0.730109204 11.8770206,1.13572543 C6.84627575,1.9875195 1.16640254,3.77223089 0.27385103,12.3307332 C0.0304278922,14.6833073 -0.0507131537,17.725429 0.0304278922,20.9703588 C0.111568938,26.4056162 0.557844691,30.0561622 0.841838352,32.6115445 C1.00412044,34.3556942 1.73438986,39.5881435 2.66751189,42.3057722 C3.96576862,46.0374415 5.10174326,47.0920437 6.48114105,48.2277691 C8.95594295,50.2558502 13.0535658,50.8642746 13.9055468,51.0265211 C18.5305864,51.8377535 27.8618067,52 32,52 C36.1381933,52 45.4694136,51.8377535 50.0944532,51.0265211 C50.9464342,50.8642746 55.0440571,50.2558502 57.518859,48.2277691 C58.8576862,47.1326053 60.0342314,46.0374415 61.3324881,42.3057722 C62.2656101,39.5881435 62.9958796,34.3556942 63.1581616,32.6115445 C63.4421553,30.0561622 63.8884311,26.4056162 63.9695721,20.9703588 C64.0507132,17.6848674 63.9695721,14.6427457 63.726149,12.3307332 Z M60.6022187,26.6895476 C60.1153724,33.5444618 59.5068146,37.6411856 58.6142631,40.6021841 C57.8434231,43.1981279 56.9103011,44.9422777 55.5309033,46.199688 C53.2183835,48.2683307 50.0538827,48.7550702 48.1876387,48.9984399 C44.1711569,49.6068643 37.355309,49.8096724 32.0405705,49.8096724 C26.725832,49.8096724 19.9099842,49.6068643 15.8935024,48.9984399 C14.0272583,48.7145086 10.8627575,48.2683307 8.55023772,46.199688 C7.17083994,44.9422777 6.23771791,43.1981279 5.46687797,40.6021841 C4.61489699,37.6411856 4.00633914,33.5444618 3.47892235,26.6895476 C3.15435816,22.5522621 3.23549921,15.900156 3.68177496,12.2901716 C4.37147385,6.93603744 7.00855784,4.25897036 12.7290016,3.2449298 C15.4066561,2.75819033 18.9768621,2.43369735 22.3442155,2.27145086 C25.0624406,2.06864275 29.5251981,1.9875195 32.0405705,2.02808112 C34.5559429,1.9875195 39.0187005,2.10920437 41.7369255,2.27145086 C45.1448494,2.43369735 48.7150555,2.75819033 51.3521395,3.2449298 C57.0320127,4.25897036 59.7096672,6.93603744 60.3993661,12.2901716 C60.8456418,15.900156 60.8862124,22.5928237 60.6022187,26.6895476 Z" id="Shape" fill-rule="nonzero"></path>
            </g>
        </g>
    </g>
</svg>