<?xml version="1.0" encoding="UTF-8"?>
<svg width="234px" height="157px" viewBox="0 0 234 157" version="1.1" xmlns="http://www.w3.org/2000/svg" xmlns:xlink="http://www.w3.org/1999/xlink">
    <!-- Generator: Sketch 52.3 (67297) - http://www.bohemiancoding.com/sketch -->
    <title>White</title>
    <desc>Created with Sketch.</desc>
    <g id="Page-1" stroke="none" stroke-width="1" fill="none" fill-rule="evenodd">
        <g id="us_en_auto_hfs_1c_blue_rgb" transform="translate(-28.000000, -29.000000)" fill="#FFFFFF">
            <g id="White" transform="translate(28.000000, 29.000000)">
                <path d="M231.624,152.567 C229.261,154.993 225.425,156.343 220.946,156.343 L220.864,156.343 C212.862,156.343 207.015,152.743 205.942,146.122 L205.866,145.647 L208.937,145.647 L208.999,145.966 C210.06,150.809 214.308,153.388 220.894,153.405 C224.591,153.405 227.661,152.206 229.392,150.423 C230.31,149.433 230.827,148.179 230.827,146.802 L230.813,146.374 C230.708,142.843 227.919,140.985 220.22,139.86 C214.843,139.073 207.771,138.165 207.595,131.528 C207.612,126.981 211.888,122.587 219.903,122.585 C226.976,122.556 231.827,125.813 233.188,131.684 L233.312,132.184 L230.183,132.184 L230.089,131.89 C228.853,127.854 225.478,125.54 219.964,125.522 C214.431,125.532 210.716,128.163 210.716,131.446 L210.716,131.522 C210.729,134.757 213.688,135.868 220.7,136.866 C227.21,137.831 233.587,139.591 233.942,146.282 L233.942,146.563 C233.942,148.759 233.175,150.952 231.624,152.567 Z M199.935,136.806 C198.694,130.433 193.378,125.708 187.151,125.714 C180.862,125.714 175.62,130.433 174.442,136.806 L199.935,136.806 Z M187.519,156.343 C178.327,156.325 171.067,148.948 171.05,139.583 C171.067,130.22 178.233,122.585 187.151,122.585 C196.729,122.591 203.253,131.163 203.253,139.237 L203.253,139.448 L203.269,139.86 L174.13,139.86 C174.378,147.628 180.243,153.276 187.519,153.276 C194.751,153.259 197.919,149.356 199.427,145.309 L199.524,145.032 L202.735,145.032 L202.571,145.567 C200.347,152.47 195.077,156.343 187.579,156.343 L187.519,156.343 Z M152.755,156.343 L152.774,156.343 C159.886,156.343 165.558,152.063 167.681,145.567 L167.86,145.05 L164.644,145.05 L164.538,145.309 C162.692,150.224 158.415,153.267 152.755,153.288 C145.603,153.267 139.72,147.132 139.72,139.585 C139.726,131.921 145.603,125.722 152.755,125.708 C158.228,125.714 162.517,128.763 164.476,133.63 L164.591,133.878 L167.86,133.878 L167.681,133.354 C165.495,126.858 159.88,122.581 152.755,122.585 C143.837,122.585 136.665,130.22 136.655,139.585 C136.665,148.825 143.851,156.343 152.755,156.343 Z M131.739,118.87 L129.083,118.87 L129.083,112.444 L132.136,112.444 L132.136,118.87 L131.739,118.87 Z M131.739,155.61 L129.083,155.61 L129.083,123.372 L132.136,123.372 L132.136,155.61 L131.739,155.61 Z M112.375,155.61 L109.652,155.61 L97.24,123.372 L100.556,123.372 L111.138,150.981 L121.759,123.372 L125.058,123.372 L112.749,155.356 L112.653,155.61 L112.375,155.61 Z M80.535,155.61 L77.813,155.61 L77.813,123.372 L80.948,123.372 L80.948,127.571 C81.351,126.975 81.812,126.407 82.356,125.909 C84.761,123.768 87.868,122.587 91.43,122.587 C92.06,122.587 92.699,122.616 93.363,122.702 L93.706,122.739 L93.706,125.62 L93.276,125.579 C92.774,125.538 92.286,125.517 91.822,125.517 C88.474,125.517 85.933,126.577 84.301,128.163 C82.122,130.091 80.948,133.038 80.948,136.227 L80.948,155.61 L80.535,155.61 Z M69.982,136.806 C68.731,130.433 63.433,125.708 57.208,125.714 C50.907,125.714 45.665,130.433 44.481,136.806 L69.982,136.806 Z M57.565,156.343 C48.369,156.325 41.113,148.948 41.092,139.583 C41.113,130.22 48.281,122.585 57.208,122.585 C66.786,122.591 73.309,131.169 73.309,139.237 L73.309,139.448 L73.318,139.86 L44.165,139.86 C44.426,147.628 50.27,153.276 57.565,153.276 C64.795,153.259 67.948,149.356 69.469,145.309 L69.566,145.032 L72.793,145.032 L72.622,145.567 C70.391,152.47 65.124,156.343 57.622,156.343 L57.565,156.343 Z M6.094,142.331 L6.094,141.927 L9.146,141.927 L9.146,142.331 C9.146,149.86 15.462,153.259 21.824,153.276 C30.047,153.247 34.857,149.681 34.866,143.86 C34.848,138.864 31.887,136.665 21.991,134.616 C14.484,133.163 7.268,130.649 7.259,123.042 C7.266,116.011 13.268,111.358 22.001,111.354 C32.04,111.364 36.627,117.85 36.644,124.261 L36.644,124.667 L33.578,124.667 L33.578,124.261 C33.563,118.267 29.133,114.384 22.001,114.347 C14.847,114.372 10.312,117.892 10.306,123.042 C10.306,127.39 13.523,129.765 22.581,131.626 C32.091,133.538 37.936,136.239 37.934,143.86 C37.91,151.515 31.467,156.382 21.824,156.401 C14.296,156.382 6.094,151.952 6.094,142.331 Z M233.411,101.763 L230.745,101.763 L230.745,55.54 L233.808,55.54 L233.808,101.763 L233.411,101.763 Z M209.749,86.192 C201.675,87.03 198.94,89.005 198.911,93.056 C198.929,97.847 204.448,99.237 207.507,99.249 C214.204,99.231 220.659,96.253 220.667,89.942 L220.667,83.579 C217.958,85.495 213.722,85.849 209.749,86.192 Z M221.915,101.763 L221.673,101.763 L221.556,101.532 C221.028,100.419 220.72,99.044 220.673,97.315 C217.925,100.436 213.276,102.306 207.507,102.306 C201.911,102.302 195.694,99.495 195.675,93.12 C195.694,85.618 202.726,83.895 209.427,83.315 C216.46,82.647 220.759,81.841 220.667,78.461 C220.659,73.02 215.552,71.76 210.923,71.724 C205.274,71.751 201.733,74.019 200.429,78.096 L200.341,78.383 L197.2,78.383 L197.321,77.87 C198.769,72.074 203.726,68.7 210.923,68.731 C218.901,68.737 223.712,72.29 223.726,78.461 L223.726,96.229 C223.72,97.753 224.151,100.067 224.62,101.21 L224.849,101.763 L221.915,101.763 Z M190.144,65.007 L187.483,65.007 L187.483,58.591 L190.56,58.591 L190.56,65.007 L190.144,65.007 Z M190.144,101.763 L187.483,101.763 L187.483,69.519 L190.56,69.519 L190.56,101.763 L190.144,101.763 Z M166.812,102.495 L166.825,102.495 C173.944,102.495 179.626,98.21 181.726,91.714 L181.901,91.19 L178.69,91.19 L178.589,91.438 C176.743,96.366 172.468,99.429 166.812,99.429 C159.663,99.419 153.769,93.27 153.769,85.731 C153.769,78.063 159.663,71.855 166.812,71.845 C172.272,71.855 176.567,74.908 178.532,79.778 L178.644,80.024 L181.901,80.024 L181.726,79.493 C179.546,72.998 173.944,68.728 166.812,68.731 C157.888,68.731 150.724,76.37 150.704,85.731 C150.724,94.972 157.896,102.495 166.812,102.495 Z M145.614,101.763 L142.952,101.763 L142.952,82.374 C142.896,75.629 139.444,71.769 132.718,71.724 C126.558,71.737 121.829,76.243 121.817,82.374 L121.817,101.763 L118.755,101.763 L118.755,69.519 L121.817,69.519 L121.817,73.921 C124.245,70.716 128.146,68.728 132.769,68.731 C141.026,68.737 146.005,74.041 146.011,82.374 L146.011,101.763 L145.614,101.763 Z M97.74,86.192 C89.684,87.03 86.945,89.005 86.935,93.056 C86.935,97.847 92.45,99.237 95.507,99.249 C102.199,99.231 108.653,96.253 108.674,89.942 L108.674,83.579 C105.987,85.495 101.727,85.849 97.74,86.192 Z M109.921,101.763 L109.664,101.763 L109.552,101.532 C109.031,100.419 108.729,99.044 108.686,97.315 C105.943,100.436 101.299,102.306 95.532,102.306 L95.507,102.306 C89.917,102.302 83.696,99.495 83.681,93.12 C83.696,85.618 90.727,83.895 97.421,83.315 C104.463,82.647 108.77,81.841 108.674,78.461 C108.671,73.02 103.564,71.76 98.924,71.724 C93.302,71.751 89.74,74.015 88.447,78.096 L88.354,78.383 L85.21,78.383 L85.354,77.87 C86.781,72.074 91.734,68.7 98.924,68.731 C106.905,68.737 111.724,72.29 111.733,78.461 L111.733,96.229 C111.729,97.753 112.155,100.067 112.624,101.21 L112.839,101.763 L109.921,101.763 Z M78.402,101.763 L75.735,101.763 L75.735,82.374 C75.695,75.629 72.235,71.769 65.508,71.724 C59.362,71.737 54.618,76.243 54.604,82.374 L54.604,101.763 L51.537,101.763 L51.537,69.519 L54.604,69.519 L54.604,73.921 C57.039,70.716 60.947,68.728 65.567,68.731 C73.822,68.737 78.785,74.041 78.803,82.374 L78.803,101.763 L78.402,101.763 Z M43.456,65.007 L40.793,65.007 L40.793,58.591 L43.852,58.591 L43.852,65.007 L43.456,65.007 Z M43.456,101.763 L40.793,101.763 L40.793,69.519 L43.852,69.519 L43.852,101.763 L43.456,101.763 Z M10.023,101.763 L7.366,101.763 L7.366,58.591 L35.177,58.591 L35.177,61.654 L10.418,61.654 L10.418,77.642 L32.549,77.642 L32.549,80.634 L10.418,80.634 L10.418,101.763 L10.023,101.763 Z" id="Fill-1"></path>
                <path d="M61.942,7.458 L64.546,7.768 C65.712,7.9 65.839,8.874 65.839,9.493 L65.839,12.576 L53.839,12.576 L53.839,9.493 C53.839,8.874 53.964,7.9 55.136,7.768 L57.742,7.458 L57.742,4.823 L42.152,4.823 L42.152,7.458 L44.759,7.768 C45.925,7.9 46.051,8.874 46.051,9.493 L46.051,19.593 C46.051,20.212 45.925,21.186 44.759,21.318 L42.152,21.629 L42.152,24.268 L57.742,24.268 L57.742,21.629 L55.136,21.318 C53.964,21.186 53.839,20.212 53.839,19.593 L53.839,16.509 L65.839,16.509 L65.839,19.593 C65.839,20.212 65.712,21.186 64.546,21.318 L61.942,21.629 L61.942,24.268 L77.531,24.268 L77.531,21.629 L74.921,21.318 C73.755,21.186 73.631,20.212 73.631,19.593 L73.631,9.493 C73.631,8.874 73.755,7.9 74.921,7.768 L77.531,7.458 L77.531,4.823 L61.942,4.823 L61.942,7.458 Z M101.176,14.545 C101.176,9.919 99.128,7.864 94.224,7.864 C89.317,7.864 87.27,9.919 87.27,14.545 C87.27,19.174 89.317,21.225 94.224,21.225 C99.128,21.225 101.176,19.174 101.176,14.545 Z M110.15,14.545 C110.15,19.396 106.884,24.932 94.224,24.932 C81.568,24.932 78.293,19.396 78.293,14.545 C78.293,9.69 81.568,4.155 94.224,4.155 C106.884,4.155 110.15,9.69 110.15,14.545 Z M132.716,7.458 L135.329,7.768 C136.485,7.9 136.606,8.874 136.606,9.493 L136.606,19.221 L126.323,5.652 C125.866,5.02 125.468,4.823 124.36,4.823 C123.646,4.823 110.985,4.823 110.985,4.823 L110.985,7.458 L113.584,7.768 C114.755,7.9 114.876,8.874 114.876,9.493 L114.876,19.593 C114.876,20.212 114.755,21.186 113.584,21.318 L110.985,21.629 L110.985,24.268 L123.429,24.268 L123.429,21.629 L120.838,21.318 C119.672,21.186 119.549,20.212 119.549,19.593 L119.549,9.863 L129.839,23.439 C130.308,24.066 130.694,24.268 131.792,24.268 C131.862,24.268 131.886,24.268 131.886,24.268 C132.37,24.268 134.356,24.268 141.265,24.268 L141.265,9.493 C141.265,8.874 141.394,7.9 142.571,7.768 L145.163,7.458 L145.163,4.823 L132.716,4.823 L132.716,7.458 Z M169.618,14.545 C169.618,10.376 168.312,8.54 164.462,8.54 L157.931,8.54 L157.931,20.543 L164.462,20.54 C168.312,20.54 169.618,18.711 169.618,14.545 Z M178.579,14.545 C178.579,21.45 172.847,24.268 165.886,24.268 L146.386,24.268 L146.386,21.629 L149.005,21.318 C150.171,21.186 150.296,20.212 150.296,19.593 L150.29,9.283 C150.29,8.152 149.755,7.804 148.946,7.698 L146.632,7.458 L146.632,4.823 L165.886,4.823 C172.847,4.823 178.579,7.631 178.579,14.545 Z M197.099,14.871 L193.181,8.886 L189.495,14.871 L197.099,14.871 Z M213.817,21.629 L213.817,24.268 L196.976,24.268 L196.976,21.629 L199.173,21.403 C200.022,21.312 200.997,20.829 200.218,19.653 L199.339,18.311 L187.386,18.311 L186.39,19.922 C185.933,20.678 186.423,21.312 187.343,21.406 L189.483,21.629 L189.483,24.268 L177.032,24.268 L177.032,21.629 L179.667,21.324 C180.435,21.225 180.765,20.724 181.044,20.277 L187.665,9.497 C188.228,8.584 187.532,7.915 187.046,7.864 L183.522,7.458 L183.522,4.823 L198.3,4.823 C199.251,4.823 199.72,5.129 200.364,6.116 C200.364,6.116 200.364,6.116 209.339,19.831 C209.722,20.411 210.103,21.207 211.339,21.348 L213.817,21.629 Z M33.293,6.879 C32.915,3.956 31.464,2.479 28.36,1.934 C26.901,1.67 24.958,1.487 23.116,1.395 C21.627,1.295 19.184,1.248 17.818,1.257 C16.451,1.248 14.009,1.295 12.534,1.395 C10.673,1.487 8.727,1.67 7.275,1.934 C4.169,2.479 2.716,3.956 2.338,6.879 C2.1,8.839 2.063,12.485 2.235,14.738 C2.497,18.465 2.835,20.709 3.319,22.314 C3.724,23.732 4.246,24.683 4.995,25.369 C6.26,26.513 7.996,26.751 9.014,26.895 C11.209,27.223 14.913,27.337 17.818,27.346 C20.737,27.337 24.43,27.223 26.633,26.895 C27.65,26.751 29.375,26.513 30.636,25.369 C31.397,24.683 31.913,23.732 32.332,22.314 C32.795,20.709 33.138,18.465 33.414,14.738 C33.582,12.485 33.551,8.839 33.293,6.879 Z M35.267,11.606 C35.224,14.568 34.971,16.563 34.831,17.954 C34.734,18.898 34.333,21.766 33.821,23.231 C33.121,25.269 32.496,25.85 31.747,26.463 C30.39,27.563 28.157,27.907 27.694,27.989 C25.169,28.44 20.068,28.525 17.818,28.525 C15.568,28.525 10.467,28.44 7.955,27.989 C7.473,27.907 5.244,27.563 3.882,26.463 C3.149,25.85 2.513,25.269 1.817,23.231 C1.3,21.766 0.916,18.898 0.814,17.954 C0.668,16.563 0.411,14.568 0.372,11.606 C0.342,9.813 0.381,8.155 0.515,6.882 C0.993,2.206 4.111,1.223 6.853,0.764 C8.217,0.535 10.672,0.337 12.247,0.268 C13.623,0.185 16.858,0.137 17.818,0.137 C18.774,0.137 22.026,0.185 23.387,0.268 C24.963,0.337 27.415,0.535 28.798,0.764 C31.527,1.223 34.653,2.206 35.119,6.882 C35.252,8.155 35.29,9.813 35.267,11.606 Z M27,2.595 C27.489,2.631 27.862,2.672 28.268,2.723 C28.268,2.723 27.815,10.086 27.606,13.199 C27.384,16.475 26.991,22.008 26.643,26.176 C26.643,26.176 25.96,26.284 24.846,26.349 C23.675,26.419 23.159,26.425 23.159,26.425 C22.669,24.581 22.072,22.036 21.393,20.942 C20.847,20.054 19.989,19.966 19.514,19.9 C18.75,19.798 18.115,19.783 17.819,19.792 L17.818,19.792 C17.818,19.792 17.818,19.792 17.813,19.792 C17.51,19.783 16.884,19.798 16.133,19.9 C15.644,19.966 14.8,20.054 14.244,20.942 C13.57,22.036 12.963,24.581 12.493,26.425 C12.493,26.425 11.961,26.419 10.787,26.349 C9.671,26.284 9.006,26.176 9.006,26.176 C8.642,22.008 8.25,16.475 8.042,13.199 C7.833,10.086 7.365,2.723 7.365,2.723 C7.781,2.672 8.141,2.631 8.631,2.595 C8.991,2.571 9.785,2.54 9.785,2.54 C10.584,6.116 10.904,7.763 11.563,10.351 C12.179,12.837 12.671,15.145 13.506,16.265 C14.353,17.395 15.489,17.643 16.263,17.728 C16.661,17.772 16.954,17.792 17.818,17.798 C18.682,17.792 18.973,17.772 19.38,17.728 C20.15,17.643 21.279,17.395 22.133,16.265 C22.977,15.145 23.452,12.837 24.084,10.351 C24.727,7.763 25.051,6.116 25.848,2.54 C25.848,2.54 26.658,2.571 27,2.595 Z" id="Fill-2"></path>
            </g>
        </g>
    </g>
</svg>