<?xml version="1.0" encoding="UTF-8"?>
<svg width="100px" height="67px" viewBox="0 0 100 67" version="1.1" xmlns="http://www.w3.org/2000/svg" xmlns:xlink="http://www.w3.org/1999/xlink">
    <!-- Generator: Sketch 52.5 (67469) - http://www.bohemiancoding.com/sketch -->
    <title>acura-light</title>
    <desc>Created with Sketch.</desc>
    <g id="Page-1" stroke="none" stroke-width="1" fill="none" fill-rule="evenodd">
        <g id="Style-Guide" transform="translate(-47.000000, -222.000000)" fill="#FFFFFF" fill-rule="nonzero">
            <g id="acura-light" transform="translate(47.000000, 222.000000)">
                <path d="M99.0131755,65.3270211 C98.0067677,66.3849021 96.3741222,66.9742619 94.4668858,66.9742619 L94.4319766,66.9742619 C91.0257716,66.9742619 88.5365726,65.403363 88.0797725,62.5150205 L88.0474176,62.3082429 L89.3548111,62.3082429 L89.3807802,62.4474034 C89.8324716,64.5601118 91.6409405,65.6847376 94.4447483,65.6921536 C96.018644,65.6921536 97.3256118,65.1695386 98.062963,64.3912871 C98.4533505,63.9594099 98.6738747,63.4123654 98.6738747,62.8116635 L98.6679146,62.6249529 C98.622788,61.0850271 97.4354482,60.2744939 94.1578113,59.7837243 C91.8691277,59.4399675 88.8584188,59.0438619 88.7834916,56.1489758 C88.7907289,54.1658305 90.6106922,52.2485574 94.0228573,52.2472487 C97.033992,52.2345978 99.0991714,53.6558664 99.679431,56.2170292 L99.7317949,56.4355853 L98.3997095,56.4355853 L98.3596915,56.3064583 C97.8334986,54.5466677 96.3966855,53.536773 94.0492521,53.5293569 C91.6933043,53.5328469 90.1117455,54.6805933 90.1117455,56.1132042 L90.1117455,56.1467946 C90.1181314,57.5575935 91.377844,58.0418195 94.3621581,58.4776229 C97.133611,58.8981579 99.8488685,59.6663758 100,62.5852551 L100,62.7082747 C100,63.6653844 99.6730452,64.6224941 99.0131755,65.3270211 Z M85.5220322,58.4510123 C84.9941364,55.6712935 82.7305704,53.609625 80.0800226,53.6122425 C77.4022287,53.6122425 75.1710175,55.6712935 74.6695165,58.4510123 L85.5220322,58.4510123 Z M80.2362628,66.9742619 C76.3234481,66.9664095 73.2327034,63.7482699 73.2254661,59.6624497 C73.2327034,55.5779382 76.2838559,52.2472487 80.0800226,52.2472487 C84.1575919,52.2498662 86.9350049,55.9893121 86.9350049,59.5115108 L86.9350049,59.6035573 L86.9413908,59.7837243 L74.5362654,59.7837243 C74.6422703,63.1719974 77.1391322,65.636315 80.2362628,65.636315 C83.315513,65.6284627 84.6637759,63.9262557 85.306191,62.1612302 L85.347486,62.0395193 L86.714055,62.0395193 L86.6442365,62.27378 C85.6978556,65.2847058 83.4538728,66.9742619 80.2622318,66.9742619 L80.2362628,66.9742619 Z M65.4364489,66.9742619 L65.445389,66.9742619 C68.4722754,66.9742619 70.8869729,65.1071563 71.7912073,62.27378 L71.8669859,62.0473717 L70.4978626,62.0473717 L70.452736,62.1612302 C69.6672782,64.3044754 67.8460377,65.6323888 65.4364489,65.6411136 C62.3921079,65.6323888 59.887583,62.9560588 59.887583,59.6637584 C59.8901373,56.320418 62.3921079,53.6161686 65.4364489,53.609625 C67.7664276,53.6122425 69.592351,54.9427733 70.426767,57.0655153 L70.4752993,57.1741389 L71.8669859,57.1741389 L71.7912073,56.9455494 C70.8605781,54.1121731 68.469721,52.24594 65.4364489,52.2472487 C61.6398564,52.2472487 58.5865753,55.5779382 58.5827438,59.6637584 C58.5865753,63.6946124 61.6462422,66.9742619 65.4364489,66.9742619 Z M56.4898924,50.6266185 L55.3587479,50.6266185 L55.3587479,47.823779 L56.6584785,47.823779 L56.6584785,50.6266185 L56.4898924,50.6266185 Z M56.4898924,66.6544982 L55.3587479,66.6544982 L55.3587479,52.5910055 L56.6584785,52.5910055 L56.6584785,66.6544982 L56.4898924,66.6544982 Z M48.2457779,66.6544982 L47.0865358,66.6544982 L41.8024692,52.5910055 L43.2145904,52.5910055 L47.719585,64.6355813 L52.240757,52.5910055 L53.6452152,52.5910055 L48.4049981,66.5436934 L48.3641287,66.6544982 L48.2457779,66.6544982 Z M34.6907763,66.6544982 L33.5323856,66.6544982 L33.5323856,52.5910055 L34.8665997,52.5910055 L34.8665997,54.4223394 C35.0385915,54.1632131 35.2348495,53.9149928 35.4664425,53.6977454 C36.4903049,52.7637564 37.8125988,52.2485574 39.3294477,52.2485574 C39.5976528,52.2485574 39.8692637,52.2612084 40.1519434,52.2982888 L40.2979662,52.3148659 L40.2979662,53.5712359 L40.1153313,53.5533501 C39.9016186,53.5354643 39.6934404,53.5267395 39.4959052,53.5267395 C38.0710123,53.5267395 36.9892516,53.9891535 36.2944726,54.6805933 C35.3663978,55.5216633 34.8665997,56.8072614 34.8665997,58.199302 L34.8665997,66.6544982 L34.6907763,66.6544982 Z M30.1985534,58.4510123 C29.6659747,55.6712935 27.4104973,53.609625 24.7603753,53.6122425 C22.0774727,53.6122425 19.8458358,55.6712935 19.3422062,58.4510123 L30.1985534,58.4510123 Z M24.9123582,66.9742619 C20.9969892,66.9664095 17.9079474,63.7482699 17.899433,59.6624497 C17.9079474,55.5779382 20.9595256,52.2472487 24.7603753,52.2472487 C28.8375189,52.2498662 31.6149319,55.9919296 31.6149319,59.5115108 L31.6149319,59.6035573 L31.6183377,59.7837243 L19.2076779,59.7837243 C19.3187915,63.1719974 21.8067132,65.636315 24.9123582,65.636315 C27.9903313,65.6284627 29.3322083,63.9262557 29.9801578,62.1612302 L30.0214529,62.0395193 L31.3952591,62.0395193 L31.3220349,62.27378 C30.3726739,65.2847058 28.1303939,66.9742619 24.9361987,66.9742619 L24.9123582,66.9742619 Z M3,60.8612361 L3,60.6849953 L4.2993048,60.6849953 L4.2993048,60.8612361 C4.2993048,64.1461204 6.98816755,65.6284627 9.69618781,65.636315 C13.1973289,65.6232278 15.2450537,64.0680336 15.2484595,61.5286828 C15.2412222,59.3492296 13.9806582,58.3895025 9.76728345,57.4960838 C6.57181103,56.8622276 3.49979811,55.7659574 3.49596661,52.4466102 C3.49894667,49.3794095 6.05413258,47.3500228 9.7719664,47.3487141 C14.045368,47.352204 15.9985824,50.1820904 16.0058197,52.9783863 L16.0058197,53.1559358 L14.700129,53.1559358 L14.700129,52.9783863 C14.6941689,50.3635661 12.8082186,48.6700839 9.7719664,48.6535068 C6.72634827,48.664849 4.79569713,50.1999762 4.7931428,52.4466102 C4.7931428,54.3433801 6.16269179,55.3798854 10.0188854,56.1912911 C14.0675055,57.0258175 16.555853,58.2041007 16.5550016,61.5286828 C16.5443585,64.868097 13.8018547,66.990839 9.69618781,67 C6.49177522,66.990839 3,65.0582975 3,60.8612361 Z M99.7739414,43.1643037 L98.6389655,43.1643037 L98.6389655,23 L99.9425275,23 L99.9425275,43.1643037 L99.7739414,43.1643037 Z M89.700072,36.3716167 C86.2627892,36.7367492 85.0992899,37.5983225 85.0865182,39.3659654 C85.0941812,41.4555531 87.4437432,42.0623624 88.7460281,42.0675973 C91.597091,42.0601812 94.3447035,40.7601872 94.348535,38.0075152 L94.348535,35.2312863 C93.1948273,36.0671214 91.3914671,36.2219865 89.700072,36.3716167 Z M94.8798366,43.1643037 L94.776386,43.1643037 L94.7265765,43.0630961 C94.5017951,42.5775614 94.3710983,41.9781682 94.3510893,41.2243461 C93.1812041,42.5854137 91.2020206,43.4007456 88.7460281,43.4007456 C86.3636854,43.3994369 83.7169692,42.1749123 83.7084548,39.3938847 C83.7169692,36.1207789 86.7106492,35.3695743 89.5629894,35.1165553 C92.5575208,34.8251472 94.3872757,34.4735381 94.348535,32.9994844 C94.3447035,30.6254685 92.1709649,30.0758065 90.2002958,30.0596657 C87.7958156,30.0718804 86.2879069,31.0612718 85.7327648,32.8393845 L85.6953013,32.9645853 L84.3581072,32.9645853 L84.4091938,32.7412306 C85.0256399,30.2123495 87.1359459,28.7409133 90.2002958,28.7544368 C93.5967092,28.7570542 95.644434,30.3070135 95.6508198,32.9994844 L95.6508198,40.7501537 C95.6482655,41.4145466 95.8317519,42.4244413 96.03099,42.922627 L96.1284804,43.1643037 L94.8798366,43.1643037 Z M81.3537841,27.1298804 L80.2213625,27.1298804 L80.2213625,24.3309671 L81.5308846,24.3309671 L81.5308846,27.1298804 L81.3537841,27.1298804 Z M81.3537841,43.1643037 L80.2213625,43.1643037 L80.2213625,29.0981936 L81.5308846,29.0981936 L81.5308846,43.1643037 L81.3537841,43.1643037 Z M71.4208288,43.4836311 L71.4267889,43.4836311 C74.4575068,43.4836311 76.8760358,41.6139081 77.7704786,38.7805318 L77.84498,38.5519423 L76.478411,38.5519423 L76.4345616,38.6605659 C75.6486781,40.8099185 73.8291405,42.1456842 71.4208288,42.1456842 C68.3773393,42.141758 65.8681314,39.4593207 65.8681314,36.1709464 C65.8681314,32.8254248 68.3773393,30.1172493 71.4208288,30.1128869 C73.7456989,30.1172493 75.5741766,31.4490889 76.4107212,33.5735758 L76.4584021,33.681327 L77.84498,33.681327 L77.7704786,33.4488112 C76.8424037,30.6158712 74.4575068,28.753128 71.4208288,28.7544368 C67.621682,28.7544368 64.5722324,32.0868712 64.5632922,36.1709464 C64.5722324,40.2018005 67.6255135,43.4836311 71.4208288,43.4836311 Z M62.3967908,43.1643037 L61.2630921,43.1643037 L61.2630921,34.7060538 C61.2396773,31.7636176 59.7700836,30.0797327 56.9066746,30.0596657 C54.2837988,30.0653368 52.2705576,32.0310325 52.2658746,34.7060538 L52.2658746,43.1643037 L50.9623126,43.1643037 L50.9623126,29.0981936 L52.2658746,29.0981936 L52.2658746,31.0185204 C53.2995286,29.6199362 54.959846,28.753128 56.9279607,28.7544368 C60.4435764,28.7570542 62.5628226,31.0708691 62.5653769,34.7060538 L62.5653769,43.1643037 L62.3967908,43.1643037 Z M42.0153304,36.3716167 C38.5861364,36.7367492 37.419657,37.5983225 37.4158255,39.3659654 C37.4158255,41.4555531 39.7632588,42.0623624 41.065118,42.0675973 C43.9136266,42.0601812 46.6612391,40.7601872 46.670605,38.0075152 L46.670605,35.2312863 C45.5262631,36.0671214 43.7131114,36.2219865 42.0153304,36.3716167 Z M47.2014808,43.1643037 L47.0916444,43.1643037 L47.0443892,43.0630961 C46.8221621,42.5775614 46.6940197,41.9781682 46.6757136,41.2243461 C45.5075313,42.5854137 43.5309022,43.4007456 41.0753353,43.4007456 L41.065118,43.4007456 C38.6853297,43.3994369 36.0364848,42.1749123 36.0305247,39.3938847 C36.0364848,36.1207789 39.0301648,35.3695743 41.8799507,35.1165553 C44.8778879,34.8251472 46.7114743,34.4735381 46.670605,32.9994844 C46.6693278,30.6254685 44.4951634,30.0758065 42.5198115,30.0596657 C40.1264001,30.0718804 38.6095511,31.0590906 38.059092,32.8393845 L38.0199256,32.9645853 L36.6814543,32.9645853 L36.7427583,32.7412306 C37.3498385,30.2123495 39.4588673,28.7409133 42.5198115,28.7544368 C45.9170763,28.7570542 47.9690583,30.3070135 47.9728898,32.9994844 L47.9728898,40.7501537 C47.9711869,41.4145466 48.152119,42.4244413 48.3517828,42.922627 L48.4437388,43.1643037 L47.2014808,43.1643037 Z M33.7827104,43.1643037 L32.6473087,43.1643037 L32.6473087,34.7060538 C32.6302798,31.7636176 31.1572803,30.0797327 28.2938714,30.0596657 C25.6769557,30.0653368 23.6573286,32.0310325 23.6517942,34.7060538 L23.6517942,43.1643037 L22.3456778,43.1643037 L22.3456778,29.0981936 L23.6517942,29.0981936 L23.6517942,31.0185204 C24.6880025,29.6199362 26.3517257,28.753128 28.318989,28.7544368 C31.8329018,28.7570542 33.9457621,31.0708691 33.9538508,34.7060538 L33.9538508,43.1643037 L33.7827104,43.1643037 Z M18.905415,27.1298804 L17.772142,27.1298804 L17.772142,24.3309671 L19.0744268,24.3309671 L19.0744268,27.1298804 L18.905415,27.1298804 Z M18.905415,43.1643037 L17.772142,43.1643037 L17.772142,29.0981936 L19.0744268,29.0981936 L19.0744268,43.1643037 L18.905415,43.1643037 Z M4.67266335,43.1643037 L3.54109318,43.1643037 L3.54109318,24.3309671 L15.3812849,24.3309671 L15.3812849,25.667169 L4.84082371,25.667169 L4.84082371,32.6413317 L14.2624864,32.6413317 L14.2624864,33.9469969 L4.84082371,33.9469969 L4.84082371,43.1643037 L4.67266335,43.1643037 Z" id="Fill-1"></path>
                <path d="M77.6989563,1.02603974 L80.5905586,1.02603974 L87,11.9683394 L83.9724075,11.9683394 L79.1279186,3.70508003 L76.5739469,8.05035802 L80.723991,8.05035802 L81.9368184,10.1171589 L75.3662351,10.1171589 L74.2834296,11.9683394 L71.2848256,11.9683394 L77.6989563,1.02603974 Z M32.3456041,6.5015721 L32.3456041,7.86322401 C32.3711822,8.80283834 32.547671,9.72842857 33.8176228,9.72492255 L41.83081,9.72492255 L41.83081,11.9683394 L33.7865028,11.9683394 C31.2764402,11.9683394 29.7362133,10.8166106 29.7076511,7.94693033 L29.7076511,5.05358435 C29.7362133,2.18346578 31.2764402,1.02998402 33.7865028,1.03611956 L41.83081,1.03609522 L41.83081,3.27953641 L33.8176228,3.27953641 C32.547671,3.2703331 32.3711822,4.19460857 32.3456041,5.13466115 L32.3456041,6.5015721 Z M49.6577035,11.9709689 L47.2853363,11.9709689 C44.4964726,11.9683394 43.3706106,10.3853697 43.3706106,7.80537462 L43.3706106,1.02603974 L45.9957746,1.02603974 L45.9957746,8.27079926 C46.0051532,9.64384575 46.9306535,9.82484422 47.7806985,9.84807162 L51.5402505,9.84807162 C52.3847535,9.82484422 53.316222,9.64384575 53.3226166,8.27079926 L53.3226166,1.02603974 L55.9503383,1.02603974 L55.9503383,7.80537462 C55.9490594,10.3853697 54.8249027,11.9683394 52.036039,11.9709689 L49.6577035,11.9709689 Z M60.2504404,11.9683394 L57.6487231,11.9683394 L57.6487231,1.02603974 L67.4042041,1.02603974 C70.7962842,1.02603974 71.6667916,5.65662041 69.2914403,7.25492892 C70.3290579,7.64979483 70.4940365,8.9895341 70.5451927,9.42691054 L70.6274689,11.9683394 L68.0534611,11.9683394 L67.9750216,9.72492255 C67.9012715,8.77128413 67.320649,8.11083693 66.3776703,8.11083693 L61.4231956,8.11083693 L60.9099287,5.83761888 L66.648798,5.83761888 C67.542752,5.83761888 68.0585767,5.40856924 68.0585767,4.59867779 C68.0585767,3.8282291 67.542752,3.36455748 66.648798,3.36455748 L60.2589665,3.36455748 L60.2504404,11.9683394 Z M20.5643389,1.02603974 L23.4512519,1.02603974 L29.8696457,11.9683394 L26.8373639,11.9683394 L21.991596,3.70508003 L19.4397559,8.05035802 L23.5863895,8.05035802 L24.8030536,10.1171589 L18.2324703,10.1171589 L17.1505174,11.9683394 L14.1472241,11.9683394 L20.5643389,1.02603974 Z M11.9061577,7.87987763 C11.7318005,9.9563201 10.9196963,11.2154208 9.56448419,11.8828801 C9.50735981,10.7705941 9.28610939,8.21338812 9.16376089,7.18875272 C8.97064636,5.9371023 8.77028471,5.54530416 8.54093456,4.851988 C8.35464085,4.28795645 7.3869367,1.73863904 6.91544736,0.552288304 C6.91544736,0.552288304 8.12102769,0.574639205 9.13008308,0.933130118 C9.85948475,1.19213761 10.5718344,1.68604869 11.0659177,2.41793111 C12.2062739,4.10739623 11.9743659,7.06428889 11.9061577,7.87987763 Z M9.43019926,11.945112 C8.49915702,12.3548785 7.34388026,12.4455969 6.38768624,12.4635652 C5.43319743,12.4455969 4.27664176,12.3548785 3.34517323,11.945112 C3.34389432,11.945112 3.34261542,11.945112 3.34261542,11.945112 C3.65509434,11.0953395 5.1475755,7.41752076 5.96650047,5.98092759 C6.03300349,5.98092759 6.7432216,5.98092759 6.81057722,5.98092759 C7.62779698,7.41752076 9.12027815,11.0953395 9.43488857,11.945112 C9.43275706,11.945112 9.43233076,11.945112 9.43019926,11.945112 Z M0.872198871,7.87987763 C0.803564348,7.06428889 0.571656392,4.10739623 1.71158631,2.41793111 C2.20609592,1.68604869 2.91887184,1.19213761 3.64827352,0.933130118 C4.65775521,0.574639205 5.86290923,0.552288304 5.86290923,0.552288304 C5.39099359,1.73863904 4.42328944,4.28795645 4.23699573,4.851988 C4.00807189,5.54530416 3.80728393,5.9371023 3.6137431,7.18875272 C3.49267351,8.21338812 3.27057049,10.7705941 3.2130198,11.8828801 C1.85866029,11.2154208 1.04612984,9.9563201 0.872198871,7.87987763 Z M6.03172458,0.549220534 C6.24871199,0.536949451 6.29262103,0.538702463 6.38981775,0.539578969 C6.48616186,0.538702463 6.53134981,0.536949451 6.74748461,0.549220534 L6.75345283,5.27183432 C6.69206543,5.27183432 6.08799637,5.27183432 6.02618266,5.27183432 L6.03172458,0.549220534 Z M12.769418,5.89152399 C12.6594323,3.73400472 11.9368514,2.14621428 10.958916,1.28197947 C9.89955709,0.34806243 7.92365015,-0.00648420671 6.39152295,8.95875416e-05 C4.86024837,-0.00648420671 2.88391513,0.34806243 1.82540878,1.28197947 C0.846194487,2.14621428 0.124466235,3.73400472 0.0144804768,5.89152399 C-0.0878318566,7.91449961 0.347421862,10.1281153 1.46688931,11.3823952 C2.54585812,12.6116947 4.71360069,13.0026164 6.39024405,12.9999868 C6.39109665,12.9999868 6.39109665,12.9999868 6.39109665,12.9999868 L6.39280186,12.9999868 C8.06987152,13.0026164 10.238893,12.6116947 11.3182881,11.3823952 C12.4360503,10.1281153 12.8721567,7.91449961 12.769418,5.89152399 Z" id="Fill-2"></path>
            </g>
        </g>
    </g>
</svg>