<?xml version="1.0" standalone="no"?>
<!DOCTYPE svg PUBLIC "-//W3C//DTD SVG 20010904//EN"
 "http://www.w3.org/TR/2001/REC-SVG-20010904/DTD/svg10.dtd">
<svg version="1.0" xmlns="http://www.w3.org/2000/svg"
 width="1024.000000pt" height="1024.000000pt" viewBox="0 0 1024.000000 1024.000000"
 preserveAspectRatio="xMidYMid meet">
<metadata>
Created by potrace 1.11, written by Peter Selinger 2001-2013
</metadata>
<g transform="translate(0.000000,1024.000000) scale(0.100000,-0.100000)"
fill="#000000" stroke="none">
<path d="M4508 9274 c-2 -1 -126 -4 -276 -6 -149 -2 -272 -7 -272 -11 0 -4 -8
-3 -19 2 -10 6 -21 8 -24 5 -3 -3 -54 -7 -114 -9 -153 -6 -364 -16 -603 -30
-174 -10 -222 -14 -285 -19 -33 -3 -98 -8 -145 -11 -47 -3 -96 -7 -110 -10
-14 -2 -59 -7 -100 -10 -41 -4 -93 -9 -115 -11 -22 -2 -65 -6 -95 -9 -30 -3
-71 -7 -90 -10 -19 -3 -60 -8 -90 -11 -86 -9 -105 -12 -110 -14 -3 -1 -9 -2
-13 -1 -4 1 -38 -4 -75 -10 -37 -6 -80 -13 -97 -14 -16 -2 -30 -4 -30 -5 0 -2
-9 -4 -20 -5 -22 -3 -52 -9 -129 -25 -28 -6 -60 -12 -71 -14 -11 -3 -48 -12
-82 -21 -35 -9 -71 -18 -80 -20 -10 -2 -49 -13 -88 -25 -38 -13 -74 -23 -80
-25 -5 -1 -19 -6 -30 -10 -11 -5 -42 -17 -70 -27 -90 -34 -108 -42 -212 -95
-213 -108 -399 -255 -528 -418 -22 -27 -42 -52 -45 -55 -13 -11 -90 -133 -90
-141 0 -5 -4 -9 -10 -9 -5 0 -10 -9 -10 -19 0 -11 -3 -21 -7 -23 -9 -3 -36
-57 -78 -153 -25 -55 -91 -249 -100 -292 -2 -10 -9 -40 -15 -68 -7 -27 -14
-59 -15 -70 -2 -11 -8 -42 -13 -70 -6 -27 -13 -77 -17 -110 -3 -33 -8 -73 -10
-90 -4 -31 -14 -136 -21 -240 -13 -183 -18 -387 -18 -800 0 -409 4 -619 18
-945 7 -145 28 -453 40 -565 3 -22 7 -74 11 -115 3 -41 8 -91 10 -110 2 -19 6
-66 10 -105 4 -38 8 -83 10 -100 4 -38 15 -131 20 -170 2 -16 7 -57 10 -89 3
-33 8 -73 10 -90 3 -17 7 -56 10 -86 2 -30 7 -66 9 -80 3 -14 7 -47 11 -75 3
-27 8 -57 10 -65 3 -9 7 -34 10 -55 8 -75 15 -120 21 -145 3 -14 8 -43 10 -65
2 -22 6 -51 9 -65 3 -14 8 -41 11 -60 3 -19 7 -42 9 -50 3 -8 7 -32 11 -54 3
-21 8 -48 11 -60 3 -11 6 -35 8 -51 2 -17 9 -43 14 -59 6 -15 9 -31 6 -36 -3
-5 -1 -11 5 -15 6 -4 8 -10 6 -14 -3 -4 1 -29 9 -54 8 -26 12 -47 9 -47 -3 0
0 -8 5 -17 5 -10 11 -31 14 -48 14 -80 86 -308 123 -393 13 -29 24 -56 25 -60
8 -35 31 -85 95 -215 98 -197 218 -355 365 -479 24 -20 58 -49 74 -63 17 -14
42 -33 57 -43 16 -9 28 -20 28 -24 0 -4 4 -8 9 -8 5 0 39 -18 75 -40 36 -22
68 -40 72 -40 3 0 20 -10 37 -22 18 -13 33 -22 35 -20 1 1 23 -7 50 -19 26
-12 61 -27 77 -34 36 -15 206 -74 232 -80 10 -3 43 -12 73 -21 71 -21 295 -73
340 -79 19 -2 46 -7 60 -10 14 -3 39 -8 55 -11 17 -2 39 -6 50 -8 44 -8 192
-28 230 -32 94 -10 124 -13 200 -19 44 -3 91 -8 105 -10 33 -5 135 -14 240
-20 47 -3 119 -8 160 -10 41 -3 120 -8 175 -10 55 -3 141 -8 190 -10 105 -6
247 -11 580 -21 430 -13 2135 -8 2135 6 0 3 42 5 93 6 158 1 460 16 787 40 41
2 100 7 130 9 30 2 85 6 121 10 36 4 84 8 105 10 125 12 162 16 189 20 17 2
53 7 80 10 64 7 104 13 135 19 13 3 39 7 57 8 18 1 33 6 33 11 0 4 4 6 9 2 5
-3 30 -1 56 5 25 6 62 13 83 16 20 3 44 10 53 15 9 4 18 6 21 4 2 -2 21 0 42
6 21 6 46 12 55 14 106 21 375 109 477 156 22 10 45 19 51 19 6 0 16 6 22 14
7 8 24 17 39 21 15 4 29 10 32 13 3 4 25 18 50 31 25 14 51 31 58 38 7 7 19
13 27 13 7 0 15 3 17 8 2 4 35 31 73 61 113 87 264 246 338 357 37 55 67 106
67 112 0 7 5 12 10 12 6 0 10 9 10 19 0 11 3 21 8 23 11 5 100 196 125 269 9
24 21 58 28 74 7 17 13 37 15 45 2 8 7 23 13 35 11 23 58 179 65 216 3 13 5
25 7 27 1 1 2 5 3 10 1 4 8 30 15 58 7 29 14 60 16 70 2 11 4 19 5 19 1 0 3 9
5 20 3 21 9 55 19 95 3 14 8 37 11 53 3 15 8 39 11 55 15 77 33 175 33 180 -1
4 -1 9 1 12 1 3 3 16 6 30 12 77 25 159 29 185 2 17 4 30 5 30 1 0 3 16 5 35
1 19 8 62 13 95 14 77 19 115 28 195 12 118 23 219 30 270 3 19 7 60 9 90 3
30 7 69 10 86 4 29 9 73 20 189 3 28 7 78 11 112 3 34 7 79 9 100 5 68 16 197
20 253 42 499 55 1909 20 2091 -3 13 -7 65 -11 114 -17 284 -81 587 -161 775
-62 144 -171 343 -203 370 -3 3 -17 21 -30 40 -41 60 -158 180 -240 246 -19
16 -37 31 -40 34 -10 12 -101 70 -110 70 -4 0 -10 4 -12 8 -4 10 -182 112
-194 112 -5 0 -36 14 -67 30 -32 17 -65 30 -73 30 -8 0 -22 4 -32 10 -38 21
-281 97 -370 115 -9 2 -51 10 -92 19 -94 19 -112 22 -235 42 -55 8 -111 17
-125 20 -14 2 -45 7 -70 9 -25 3 -65 8 -90 11 -25 4 -58 8 -75 9 -16 2 -57 6
-90 10 -172 17 -335 33 -438 41 -31 2 -85 6 -120 9 -73 6 -180 13 -295 20 -46
2 -127 7 -180 10 -53 4 -135 8 -182 10 -47 2 -155 6 -240 10 -85 3 -225 8
-310 11 -174 5 -1618 13 -1622 8z m1452 -328 c85 -3 220 -7 300 -10 205 -7
331 -15 341 -22 5 -3 9 0 9 6 0 6 4 9 9 6 10 -6 101 -14 251 -21 130 -7 289
-18 415 -29 33 -3 89 -8 125 -11 36 -3 88 -8 115 -11 28 -3 66 -8 85 -10 19
-2 53 -5 75 -8 22 -3 60 -8 85 -10 115 -12 175 -20 225 -30 11 -2 42 -7 68
-10 27 -4 59 -10 70 -12 12 -3 40 -7 62 -10 22 -3 96 -19 165 -35 162 -38 153
-35 229 -59 95 -31 127 -43 266 -106 22 -10 69 -35 104 -56 34 -21 67 -38 72
-38 5 0 9 -4 9 -10 0 -5 7 -10 15 -10 8 0 15 -3 15 -7 0 -5 22 -23 48 -41 59
-40 197 -182 242 -248 19 -27 36 -51 39 -54 17 -14 133 -240 124 -240 -3 0 -1
-6 4 -12 15 -20 81 -219 88 -263 2 -11 8 -45 15 -75 23 -111 29 -149 45 -315
4 -33 8 -73 10 -90 4 -33 14 -192 20 -320 20 -375 24 -1000 10 -1385 -5 -118
-9 -243 -9 -277 -1 -35 -3 -63 -6 -63 -3 0 -6 -24 -6 -52 -1 -53 -11 -203 -18
-268 -3 -19 -7 -77 -11 -128 -3 -52 -8 -101 -10 -110 -1 -9 -6 -55 -9 -102 -7
-84 -13 -143 -21 -210 -2 -19 -7 -60 -10 -90 -3 -30 -8 -73 -11 -95 -2 -22 -6
-60 -9 -85 -3 -25 -6 -56 -8 -70 -9 -62 -18 -128 -22 -160 -2 -19 -6 -46 -9
-59 -3 -12 -8 -42 -10 -65 -3 -22 -7 -50 -10 -61 -2 -11 -6 -41 -10 -66 -9
-63 -16 -101 -21 -119 -3 -8 -7 -33 -11 -55 -3 -22 -8 -43 -10 -46 -2 -4 -6
-26 -9 -49 -3 -24 -8 -46 -10 -50 -2 -4 -6 -20 -9 -36 -5 -28 -42 -175 -67
-264 -7 -25 -30 -94 -51 -155 -21 -60 -40 -117 -42 -125 -23 -81 -134 -303
-203 -407 -50 -74 -137 -178 -186 -223 -16 -14 -43 -38 -60 -54 -44 -40 -190
-135 -262 -171 -33 -17 -62 -32 -65 -35 -6 -6 -27 -14 -182 -70 -60 -22 -108
-37 -108 -34 0 2 -9 0 -20 -6 -20 -11 -213 -56 -280 -66 -19 -3 -57 -9 -85
-14 -27 -5 -75 -12 -105 -15 -30 -3 -68 -9 -85 -12 -16 -3 -46 -7 -65 -8 -19
-2 -48 -5 -65 -8 -31 -6 -90 -12 -210 -22 -38 -4 -82 -9 -97 -11 -15 -2 -71
-7 -125 -10 -54 -3 -118 -8 -143 -9 -253 -17 -542 -31 -880 -42 -240 -7 -1672
-7 -1900 1 -279 10 -415 15 -415 16 0 0 -52 3 -115 5 -63 3 -149 7 -190 10
-181 11 -258 16 -300 20 -25 3 -79 7 -120 10 -41 3 -91 8 -110 10 -19 3 -60 7
-90 10 -30 3 -68 7 -85 9 -16 3 -57 7 -90 11 -33 4 -69 9 -80 11 -11 2 -42 7
-70 10 -27 4 -57 10 -66 15 -9 4 -19 6 -21 3 -3 -2 -25 0 -49 5 -24 5 -66 12
-93 16 -27 3 -54 9 -58 11 -5 3 -24 8 -41 10 -18 3 -43 9 -57 14 -14 6 -34 11
-45 13 -36 7 -80 18 -100 27 -11 5 -56 21 -100 36 -145 49 -355 163 -450 244
-158 135 -263 268 -362 460 -46 91 -117 259 -143 345 -7 22 -16 49 -21 60 -8
21 -39 129 -44 156 -2 8 -10 39 -19 67 -8 29 -13 52 -10 52 3 0 0 8 -5 18 -5
10 -12 36 -14 58 -3 21 -8 46 -11 54 -3 8 -8 26 -10 40 -3 14 -8 36 -11 50 -6
28 -13 65 -20 113 -3 17 -9 52 -15 77 -5 25 -11 63 -14 85 -3 22 -7 49 -9 60
-3 11 -8 47 -13 80 -4 33 -8 62 -9 65 0 3 -5 32 -9 65 -4 32 -10 68 -12 78 -2
10 -6 45 -9 78 -4 33 -8 70 -11 82 -2 12 -6 51 -9 87 -3 36 -7 74 -9 85 -4 22
-15 128 -21 205 -2 25 -6 68 -10 95 -10 87 -14 132 -20 207 -5 70 -10 127 -20
248 -5 51 -10 129 -20 290 -17 286 -23 954 -11 1280 9 246 17 423 22 460 2 19
6 71 8 115 3 44 7 96 10 115 3 19 8 62 11 95 5 51 13 107 30 210 7 38 15 73
40 166 14 52 27 101 29 110 3 9 14 37 25 62 12 25 21 50 21 56 0 5 9 26 21 45
12 20 17 36 12 36 -4 0 -2 4 5 9 7 4 14 14 15 22 2 8 17 36 35 62 17 27 32 50
32 53 0 3 12 22 28 42 15 20 34 46 42 57 24 32 211 215 219 215 5 0 24 13 42
30 19 16 38 30 42 30 5 0 21 8 35 19 45 31 122 71 122 63 0 -4 4 -2 8 3 9 13
93 51 104 47 5 -1 8 3 8 10 0 6 3 8 7 5 3 -4 11 -3 17 2 19 14 284 97 346 107
14 3 32 7 40 10 8 3 31 8 50 10 19 3 42 7 51 10 9 2 34 7 55 9 22 3 62 9 89
14 28 5 73 13 100 17 28 4 57 9 65 10 8 2 58 8 110 14 52 6 111 13 130 15 19
3 58 7 85 10 28 3 73 8 100 12 28 3 73 7 100 8 60 3 187 14 235 20 19 3 78 7
130 10 172 10 254 15 340 20 336 20 390 22 655 30 127 4 231 8 232 8 4 5 1386
-2 1523 -7z"/>
<path d="M2607 8634 c-1 -1 -43 -5 -92 -8 -50 -4 -106 -9 -125 -11 -19 -2 -69
-6 -110 -10 -41 -3 -90 -8 -109 -12 -19 -3 -44 -7 -55 -8 -12 -1 -24 -3 -28
-4 -3 0 -5 -29 -3 -63 8 -142 15 -267 20 -338 2 -41 7 -115 10 -165 4 -49 8
-121 10 -160 2 -38 7 -106 10 -150 7 -107 16 -257 20 -325 2 -30 6 -95 9 -145
9 -147 14 -235 21 -330 3 -49 8 -117 10 -150 2 -33 6 -109 10 -170 4 -60 8
-132 10 -160 2 -27 7 -99 10 -160 7 -116 11 -180 19 -310 3 -44 8 -123 11
-175 8 -138 15 -235 21 -320 3 -41 7 -104 9 -140 8 -126 14 -213 20 -284 3
-39 8 -105 10 -146 6 -99 14 -221 20 -295 4 -52 10 -131 20 -280 2 -22 6 -89
10 -150 3 -60 8 -130 10 -155 5 -55 18 -248 30 -425 6 -98 14 -206 21 -269 3
-32 7 -90 9 -130 3 -39 7 -98 9 -131 3 -33 8 -94 11 -135 2 -41 7 -100 10
-130 2 -30 7 -89 10 -130 6 -94 12 -168 20 -245 3 -33 8 -89 10 -125 3 -36 7
-85 9 -110 2 -25 7 -81 11 -125 3 -44 8 -100 10 -125 3 -25 7 -81 10 -125 5
-82 11 -125 18 -132 2 -2 17 -5 33 -7 16 -2 54 -7 84 -11 167 -21 448 -40 740
-50 l156 -5 29 117 c16 65 30 123 32 128 37 143 74 283 77 295 2 8 10 35 17
60 16 57 18 67 22 85 2 8 6 18 10 21 4 4 7 17 7 29 0 12 9 51 19 86 11 35 32
105 46 154 15 50 28 96 31 103 2 7 4 16 5 20 0 4 5 13 11 20 6 6 8 12 5 12 -5
0 36 122 60 180 3 8 7 20 8 26 7 31 92 211 127 270 47 78 159 194 188 194 5 0
10 3 10 8 0 13 153 77 207 86 15 3 43 8 61 11 17 3 47 8 65 11 17 3 50 8 72
10 22 2 67 7 100 10 140 16 675 8 771 -10 12 -3 39 -7 60 -10 22 -3 57 -9 79
-13 22 -4 46 -6 53 -4 6 1 12 -3 12 -9 0 -6 4 -9 10 -5 5 3 25 -1 45 -9 19 -8
38 -15 40 -15 16 -1 82 -34 122 -62 110 -74 196 -193 273 -376 23 -54 45 -107
49 -118 5 -11 14 -33 19 -50 6 -16 13 -39 18 -50 4 -11 8 -27 10 -35 2 -8 7
-23 12 -35 9 -19 77 -238 87 -280 3 -11 12 -45 21 -75 9 -30 25 -89 35 -130
11 -41 22 -82 24 -90 19 -72 76 -300 79 -317 3 -13 7 -27 10 -32 3 -5 8 -26
12 -47 3 -22 9 -46 14 -54 4 -8 6 -23 5 -32 -2 -10 1 -20 6 -24 5 -3 9 -16 9
-29 l0 -24 158 4 c170 5 299 11 432 21 47 4 101 8 120 9 59 4 163 16 195 21
17 3 48 7 69 9 21 3 41 6 43 9 7 7 19 117 28 271 2 22 6 76 9 120 4 44 9 105
12 135 2 30 6 81 9 112 3 32 8 92 11 135 3 43 7 98 9 123 3 25 7 79 10 120 2
41 7 100 10 130 3 30 7 91 10 135 3 44 8 105 11 135 3 30 7 89 9 130 3 41 7
98 9 125 4 45 9 116 22 285 2 30 6 91 9 135 2 44 7 105 10 135 2 30 7 98 11
150 3 52 8 118 10 145 2 28 6 91 9 140 3 50 8 115 11 145 5 63 13 182 19 290
2 41 5 75 5 75 1 0 3 23 5 50 4 85 16 247 21 300 2 28 6 86 9 130 3 44 7 107
9 140 3 33 7 105 11 160 3 55 8 134 11 175 3 41 7 111 10 155 3 44 7 109 9
145 2 36 6 106 9 155 3 50 8 128 11 175 3 47 8 123 11 170 10 164 20 326 29
465 7 91 15 233 20 315 2 36 6 106 9 155 10 157 17 258 21 325 3 36 7 108 10
160 3 52 8 124 10 160 2 36 7 110 10 165 3 55 8 130 10 168 3 37 1 67 -3 68
-4 0 -23 3 -42 5 -19 2 -55 6 -80 9 -117 12 -215 23 -215 25 0 2 -129 10 -242
14 -122 6 -119 7 -129 -59 -2 -11 -10 -50 -18 -86 -8 -36 -17 -77 -20 -90 -3
-13 -7 -33 -10 -44 -18 -79 -27 -119 -41 -192 -3 -16 -15 -66 -25 -113 -11
-47 -21 -96 -24 -110 -2 -14 -9 -44 -15 -68 -7 -24 -14 -55 -16 -70 -2 -15 -7
-37 -10 -49 -3 -13 -7 -33 -10 -45 -25 -117 -47 -220 -55 -253 -6 -22 -12 -51
-14 -65 -7 -34 -12 -58 -24 -105 -6 -22 -18 -74 -27 -115 -8 -41 -22 -104 -30
-140 -9 -36 -18 -78 -21 -95 -7 -35 -101 -435 -141 -595 -9 -36 -17 -72 -18
-80 -1 -8 -8 -35 -14 -60 -7 -25 -15 -53 -17 -62 -2 -10 -6 -26 -8 -35 -2 -10
-21 -85 -41 -168 -21 -82 -39 -157 -40 -165 -2 -8 -4 -15 -5 -15 -1 0 -3 -7
-5 -16 -9 -47 -47 -197 -55 -219 -5 -14 -12 -40 -15 -59 -3 -19 -9 -39 -13
-45 -3 -6 -8 -20 -9 -31 -3 -19 -78 -265 -90 -295 -4 -8 -7 -17 -7 -20 -5 -18
-62 -164 -82 -208 -13 -29 -24 -57 -24 -62 0 -6 -4 -10 -10 -10 -5 0 -10 -7
-10 -15 0 -16 -40 -87 -94 -165 -46 -66 -166 -191 -220 -227 -23 -15 -47 -34
-54 -40 -7 -7 -24 -16 -38 -19 -13 -3 -24 -10 -24 -14 0 -20 -237 -105 -345
-124 -16 -3 -41 -8 -55 -11 -30 -6 -93 -13 -220 -21 -162 -12 -690 -7 -690 6
0 3 -30 7 -68 8 -114 6 -122 7 -122 12 0 3 -10 7 -22 8 -26 2 -46 7 -68 14 -8
3 -46 15 -85 27 -262 84 -476 270 -611 531 -15 30 -28 57 -29 60 0 3 -8 22
-18 43 -35 72 -151 405 -163 466 -3 14 -7 28 -10 33 -3 4 -7 16 -9 25 -1 10
-20 79 -40 153 -20 74 -39 146 -41 160 -3 14 -14 57 -24 95 -10 39 -21 81 -24
95 -3 14 -19 81 -36 150 -17 69 -33 136 -36 150 -3 14 -7 32 -9 40 -2 8 -4 15
-5 15 -1 0 -3 11 -6 24 -2 13 -14 60 -25 105 -12 45 -22 88 -24 97 -2 8 -10
44 -18 80 -9 35 -28 114 -42 174 -44 183 -54 227 -69 300 -9 39 -22 102 -31
140 -20 88 -19 84 -45 201 -12 55 -26 117 -31 139 -5 22 -11 54 -14 70 -2 17
-9 44 -15 60 -6 17 -11 31 -10 33 1 1 -2 21 -6 45 -4 23 -7 45 -6 50 1 4 -3 7
-9 7 -5 0 -8 4 -4 10 3 5 -3 46 -14 92 -11 46 -23 94 -25 108 -3 14 -9 41 -14
60 -5 19 -9 37 -10 40 0 3 -3 16 -6 30 -3 14 -8 37 -11 53 -6 32 -13 63 -29
135 -8 33 -38 177 -42 202 -3 14 -7 33 -10 42 -5 16 -13 50 -18 78 -2 12 -21
15 -90 15 -48 0 -88 0 -89 -1z"/>
</g>
</svg>
