<svg width="48" height="48" viewBox="0 0 48 48" fill="none" xmlns="http://www.w3.org/2000/svg">
<rect width="48" height="48" rx="3" fill="black"/>
<path d="M29.8174 33H18.2393V31.832L24.5742 24.6465C25.6237 23.4362 26.3516 22.4375 26.7578 21.6504C27.1641 20.8633 27.3672 20.0973 27.3672 19.3525C27.3672 18.1846 27.0244 17.262 26.3389 16.585C25.6533 15.8994 24.7096 15.5566 23.5078 15.5566C22.2637 15.5566 21.2565 15.9544 20.4863 16.75C19.7246 17.5456 19.3438 18.5781 19.3438 19.8477H17.833C17.833 18.8066 18.0658 17.8587 18.5312 17.0039C19.0052 16.1491 19.6738 15.4805 20.5371 14.998C21.4089 14.5072 22.3991 14.2617 23.5078 14.2617C25.2005 14.2617 26.5208 14.7061 27.4688 15.5947C28.4251 16.4834 28.9033 17.6937 28.9033 19.2256C28.9033 20.0889 28.6325 21.0326 28.0908 22.0566C27.5576 23.0807 26.6139 24.3587 25.2598 25.8906L20.1055 31.7178H29.8174V33Z" fill="white"/>
</svg>
