<svg width="48" height="48" viewBox="0 0 48 48" fill="none" xmlns="http://www.w3.org/2000/svg">
<rect width="48" height="48" rx="3" fill="black"/>
<path d="M21.6162 22.9326H23.1904C24.0622 22.9326 24.8239 22.7803 25.4756 22.4756C26.1273 22.1624 26.6224 21.7393 26.9609 21.2061C27.3079 20.6644 27.4814 20.0423 27.4814 19.3398C27.4814 18.1549 27.1471 17.2282 26.4785 16.5596C25.8099 15.891 24.8493 15.5566 23.5967 15.5566C22.4118 15.5566 21.4385 15.9079 20.6768 16.6104C19.9235 17.3044 19.5469 18.2227 19.5469 19.3652H18.0234C18.0234 18.4089 18.2646 17.5371 18.7471 16.75C19.2295 15.9544 19.8981 15.3408 20.7529 14.9092C21.6077 14.4775 22.5557 14.2617 23.5967 14.2617C25.2725 14.2617 26.5928 14.7188 27.5576 15.6328C28.5225 16.5469 29.0049 17.7995 29.0049 19.3906C29.0049 20.2793 28.7214 21.1003 28.1543 21.8535C27.5957 22.5983 26.8255 23.1569 25.8438 23.5293C26.9948 23.8509 27.8665 24.4053 28.459 25.1924C29.0514 25.971 29.3477 26.902 29.3477 27.9854C29.3477 29.568 28.8314 30.8418 27.7988 31.8066C26.7663 32.7715 25.3867 33.2539 23.6602 33.2539C22.5599 33.2539 21.5485 33.0339 20.626 32.5938C19.7119 32.1536 19.001 31.54 18.4932 30.7529C17.9938 29.9574 17.7441 29.0348 17.7441 27.9854H19.2676C19.2676 29.1618 19.6781 30.1224 20.499 30.8672C21.32 31.6035 22.3737 31.9717 23.6602 31.9717C24.972 31.9717 25.9919 31.6374 26.7197 30.9688C27.4561 30.2917 27.8242 29.3141 27.8242 28.0361C27.8242 26.8005 27.4264 25.8568 26.6309 25.2051C25.8438 24.5534 24.68 24.2275 23.1396 24.2275H21.6162V22.9326Z" fill="white"/>
</svg>
