<svg width="80" height="80" viewBox="0 0 80 80" fill="none" xmlns="http://www.w3.org/2000/svg">
<path d="M0 3C0 1.34315 1.34315 0 3 0H77C78.6569 0 80 1.34315 80 3V77C80 78.6569 78.6569 80 77 80H3C1.34315 80 0 78.6569 0 77V3Z" fill="black"/>
<path d="M51.9434 46.9007C48.2672 46.9007 45.2871 43.9206 45.2871 40.2444C45.2871 36.5682 48.2672 33.5881 51.9434 33.5881" stroke="#D9D9D9"/>
<path fill-rule="evenodd" clip-rule="evenodd" d="M43.7171 41.8741C43.7781 41.3721 44.2042 40.9946 44.7098 40.9946H58.8653C59.371 40.9946 59.7971 41.3721 59.858 41.8741L60.8064 49.684C60.951 50.8755 60.0211 51.9251 58.8209 51.9251H55.2589V59.2475L51.9308 63.0511L48.6027 59.2475V51.9251H44.7542C43.554 51.9251 42.6241 50.8755 42.7688 49.684L43.7171 41.8741ZM45.2629 46.0691C45.2629 44.6905 46.3804 43.573 47.759 43.573H56.0793C57.4579 43.573 58.5754 44.6905 58.5754 46.0691C58.5754 47.4477 57.4579 48.5652 56.0793 48.5652H47.759C46.3804 48.5652 45.2629 47.4477 45.2629 46.0691Z" fill="#E42525"/>
<path d="M46.9677 16.9478H18C17.4477 16.9478 17 17.3955 17 17.9478V29.3651C17 29.4 17.0283 29.4283 17.0631 29.4283H20.4906C24.6211 29.4283 28.5545 31.1946 31.2987 34.2818C32.7884 35.9577 34.9236 36.9166 37.1659 36.9166H46.9532C48.7913 36.9166 50.2814 35.4265 50.2814 33.5884C50.2814 31.7504 48.7913 30.2603 46.9532 30.2603H40.297C38.4589 30.2603 36.9688 28.7702 36.9688 26.9322C36.9688 25.0941 38.4589 23.604 40.297 23.604H46.753C47.9467 23.604 49.0915 24.0782 49.9355 24.9223L53.423 28.4097C54.0752 29.0619 54.4415 29.9464 54.4415 30.8687V34.4205C54.4415 35.799 55.5591 36.9166 56.9376 36.9166C58.3162 36.9166 59.4337 35.799 59.4337 34.4205V27.6375C59.4337 26.6531 59.0427 25.7091 58.3466 25.013L52.6245 19.2909C51.1242 17.7906 49.0894 16.9478 46.9677 16.9478Z" fill="#F0F0F0" stroke="#F0F0F0"/>
<path d="M51.9414 46.9007C55.6176 46.9007 58.5977 43.9206 58.5977 40.2444C58.5977 36.5682 55.6176 33.5881 51.9414 33.5881" stroke="#D9D9D9"/>
</svg>
