<svg width="80" height="80" viewBox="0 0 80 80" fill="none" xmlns="http://www.w3.org/2000/svg">
<path d="M0 3C0 1.34315 1.34315 0 3 0H77C78.6569 0 80 1.34315 80 3V77C80 78.6569 78.6569 80 77 80H3C1.34315 80 0 78.6569 0 77V3Z" fill="black"/>
<g clip-path="url(#clip0)">
<path fill-rule="evenodd" clip-rule="evenodd" d="M25.2601 32.5912C24.8146 32.5912 24.5915 32.0527 24.9065 31.7377L30.4623 26.1819C30.6576 25.9866 30.6576 25.6701 30.4623 25.4748L28.341 23.3535C28.1457 23.1582 27.8291 23.1582 27.6339 23.3535L17.4141 33.5732L16.3535 34.6339C16.1582 34.8291 16.1582 35.1457 16.3535 35.341L17.4141 36.4016L27.6339 46.6214C27.8291 46.8166 28.1457 46.8166 28.341 46.6214L30.4623 44.5001C30.6576 44.3048 30.6576 43.9882 30.4623 43.793L24.1141 37.4448C23.7992 37.1298 24.0222 36.5912 24.4677 36.5912H45.1558C45.4319 36.5912 45.6558 36.3674 45.6558 36.0912V33.0912C45.6558 32.8151 45.4319 32.5912 45.1558 32.5912H25.2601Z" fill="#F0F0F0"/>
<path fill-rule="evenodd" clip-rule="evenodd" d="M55.7515 47.8708C56.0664 47.5558 55.8433 47.0172 55.3979 47.0172H35.5C35.2239 47.0172 35 46.7934 35 46.5172V43.5172C35 43.2411 35.2239 43.0172 35.5 43.0172H55.3975C55.8429 43.0172 56.066 42.4787 55.751 42.1637L49.7993 36.2119C49.604 36.0167 49.604 35.7001 49.7993 35.5048L51.9206 33.3835C52.1159 33.1882 52.4324 33.1882 52.6277 33.3835L62.8474 43.6032L63.9081 44.6639C64.1034 44.8592 64.1034 45.1757 63.9081 45.371L62.8474 46.4317L52.6277 56.6514C52.4324 56.8467 52.1159 56.8467 51.9206 56.6514L49.7993 54.5301C49.604 54.3348 49.604 54.0182 49.7993 53.823L55.7515 47.8708Z" fill="#E42525"/>
</g>
<defs>
<clipPath id="clip0">
<rect width="48" height="48" fill="white" transform="translate(16 16)"/>
</clipPath>
</defs>
</svg>
