<svg width="80" height="80" viewBox="0 0 80 80" fill="none" xmlns="http://www.w3.org/2000/svg">
<path d="M0 3C0 1.34315 1.34315 0 3 0H77C78.6569 0 80 1.34315 80 3V77C80 78.6569 78.6569 80 77 80H3C1.34315 80 0 78.6569 0 77V3Z" fill="black"/>
<path fill-rule="evenodd" clip-rule="evenodd" d="M20 28C18.8954 28 18 28.8954 18 30V51C18 52.1046 18.8954 53 20 53H28.25V28H20ZM29.25 28V53H39.5V28H29.25ZM50.75 53H40.5V28H50.75V53ZM51.75 53H60C61.1046 53 62 52.1046 62 51V30C62 28.8954 61.1046 28 60 28H51.75V53Z" fill="#F0F0F0"/>
<mask id="mask0" mask-type="alpha" maskUnits="userSpaceOnUse" x="18" y="28" width="44" height="25">
<rect x="18" y="28" width="44" height="25" rx="2" fill="#C4C4C4"/>
</mask>
<g mask="url(#mask0)">
<path d="M24.4561 45H22.4805V37.3848L20.1221 38.1162V36.5098L24.2441 35.0332H24.4561V45Z" fill="#E42525"/>
<path d="M37.8564 40.8848C37.8564 42.2611 37.5716 43.3138 37.002 44.043C36.4323 44.7721 35.5983 45.1367 34.5 45.1367C33.4154 45.1367 32.5859 44.779 32.0117 44.0635C31.4375 43.348 31.1436 42.3226 31.1299 40.9873V39.1553C31.1299 37.7653 31.417 36.7103 31.9912 35.9902C32.57 35.2702 33.4017 34.9102 34.4863 34.9102C35.571 34.9102 36.4004 35.2679 36.9746 35.9834C37.5488 36.6943 37.8428 37.7174 37.8564 39.0527V40.8848ZM35.8809 38.875C35.8809 38.0501 35.7669 37.4508 35.5391 37.0771C35.3158 36.6989 34.9648 36.5098 34.4863 36.5098C34.0215 36.5098 33.6774 36.6898 33.4541 37.0498C33.2354 37.4053 33.1191 37.9635 33.1055 38.7246V41.1445C33.1055 41.9557 33.2148 42.5596 33.4336 42.9561C33.6569 43.348 34.0124 43.5439 34.5 43.5439C34.9831 43.5439 35.3317 43.3548 35.5459 42.9766C35.7601 42.5983 35.8717 42.0195 35.8809 41.2402V38.875Z" fill="#E42525"/>
<path d="M60.3564 46.8848C60.3564 48.2611 60.0716 49.3138 59.502 50.043C58.9323 50.7721 58.0983 51.1367 57 51.1367C55.9154 51.1367 55.0859 50.779 54.5117 50.0635C53.9375 49.348 53.6436 48.3226 53.6299 46.9873V45.1553C53.6299 43.7653 53.917 42.7103 54.4912 41.9902C55.07 41.2702 55.9017 40.9102 56.9863 40.9102C58.071 40.9102 58.9004 41.2679 59.4746 41.9834C60.0488 42.6943 60.3428 43.7174 60.3564 45.0527V46.8848ZM58.3809 44.875C58.3809 44.0501 58.2669 43.4508 58.0391 43.0771C57.8158 42.6989 57.4648 42.5098 56.9863 42.5098C56.5215 42.5098 56.1774 42.6898 55.9541 43.0498C55.7354 43.4053 55.6191 43.9635 55.6055 44.7246V47.1445C55.6055 47.9557 55.7148 48.5596 55.9336 48.9561C56.1569 49.348 56.5124 49.5439 57 49.5439C57.4831 49.5439 57.8317 49.3548 58.0459 48.9766C58.2601 48.5983 58.3717 48.0195 58.3809 47.2402V44.875Z" fill="#E42525"/>
<path d="M49.3564 40.8848C49.3564 42.2611 49.0716 43.3138 48.502 44.043C47.9323 44.7721 47.0983 45.1367 46 45.1367C44.9154 45.1367 44.0859 44.779 43.5117 44.0635C42.9375 43.348 42.6436 42.3226 42.6299 40.9873V39.1553C42.6299 37.7653 42.917 36.7103 43.4912 35.9902C44.07 35.2702 44.9017 34.9102 45.9863 34.9102C47.071 34.9102 47.9004 35.2679 48.4746 35.9834C49.0488 36.6943 49.3428 37.7174 49.3564 39.0527V40.8848ZM47.3809 38.875C47.3809 38.0501 47.2669 37.4508 47.0391 37.0771C46.8158 36.6989 46.4648 36.5098 45.9863 36.5098C45.5215 36.5098 45.1774 36.6898 44.9541 37.0498C44.7354 37.4053 44.6191 37.9635 44.6055 38.7246V41.1445C44.6055 41.9557 44.7148 42.5596 44.9336 42.9561C45.1569 43.348 45.5124 43.5439 46 43.5439C46.4831 43.5439 46.8317 43.3548 47.0459 42.9766C47.2601 42.5983 47.3717 42.0195 47.3809 41.2402V38.875Z" fill="#E42525"/>
<path d="M58.2783 33.0215C57.7633 33.5273 57.1618 33.7803 56.4736 33.7803C55.5941 33.7803 54.89 33.4795 54.3613 32.8779C53.8327 32.2718 53.5684 31.4561 53.5684 30.4307C53.5684 29.779 53.7096 29.182 53.9922 28.6396C54.2793 28.0928 54.6781 27.6689 55.1885 27.3682C55.6989 27.0628 56.2731 26.9102 56.9111 26.9102C57.5674 26.9102 58.1507 27.0742 58.6611 27.4023C59.1715 27.7305 59.568 28.2021 59.8506 28.8174C60.1331 29.4326 60.2767 30.1367 60.2812 30.9297V31.6611C60.2812 33.32 59.8688 34.6234 59.0439 35.5713C58.2191 36.5192 57.0501 37.0251 55.5371 37.0889L55.0518 37.0957V35.4482L55.4893 35.4414C57.2074 35.3639 58.137 34.5573 58.2783 33.0215ZM56.959 32.2695C57.278 32.2695 57.5514 32.1875 57.7793 32.0234C58.0117 31.8594 58.1872 31.6611 58.3057 31.4287V30.6152C58.3057 29.9453 58.1781 29.4258 57.9229 29.0566C57.6676 28.6875 57.3258 28.5029 56.8975 28.5029C56.501 28.5029 56.1751 28.6852 55.9199 29.0498C55.6647 29.4098 55.5371 29.8633 55.5371 30.4102C55.5371 30.9525 55.6602 31.3991 55.9062 31.75C56.1569 32.0964 56.5078 32.2695 56.959 32.2695Z" fill="#5E6162"/>
</g>
</svg>
