<svg width="80" height="80" viewBox="0 0 80 80" fill="none" xmlns="http://www.w3.org/2000/svg">
<path d="M0 3C0 1.34315 1.34315 0 3 0H77C78.6569 0 80 1.34315 80 3V77C80 78.6569 78.6569 80 77 80H3C1.34315 80 0 78.6569 0 77V3Z" fill="black"/>
<rect x="23" y="20" width="34" height="40" rx="2" fill="#F0F0F0"/>
<path d="M29.75 29.5C29.1977 29.0858 28.4142 29.1977 28 29.75C27.5858 30.3023 27.6977 31.0858 28.25 31.5L29.75 29.5ZM31 32L30.25 33C30.7477 33.3732 31.444 33.3237 31.8839 32.8839L31 32ZM35.8839 28.8839C36.372 28.3957 36.372 27.6043 35.8839 27.1161C35.3957 26.628 34.6043 26.628 34.1161 27.1161L35.8839 28.8839ZM28.25 31.5L30.25 33L31.75 31L29.75 29.5L28.25 31.5ZM31.8839 32.8839L35.8839 28.8839L34.1161 27.1161L30.1161 31.1161L31.8839 32.8839Z" fill="#E42525"/>
<path d="M29.75 39.5C29.1977 39.0858 28.4142 39.1977 28 39.75C27.5858 40.3023 27.6977 41.0858 28.25 41.5L29.75 39.5ZM31 42L30.25 43C30.7477 43.3732 31.444 43.3237 31.8839 42.8839L31 42ZM35.8839 38.8839C36.372 38.3957 36.372 37.6043 35.8839 37.1161C35.3957 36.628 34.6043 36.628 34.1161 37.1161L35.8839 38.8839ZM28.25 41.5L30.25 43L31.75 41L29.75 39.5L28.25 41.5ZM31.8839 42.8839L35.8839 38.8839L34.1161 37.1161L30.1161 41.1161L31.8839 42.8839Z" fill="#E42525"/>
<path d="M40 30H51M40 41H51M40 52H51" stroke="#5E6162" stroke-width="2.5" stroke-linecap="round" stroke-linejoin="round"/>
<circle cx="31.5" cy="51.5" r="3.25" stroke="#5E6162" stroke-width="2.5"/>
</svg>
