<svg width="80" height="80" viewBox="0 0 80 80" fill="none" xmlns="http://www.w3.org/2000/svg">
<path d="M0 3C0 1.34315 1.34315 0 3 0H77C78.6569 0 80 1.34315 80 3V77C80 78.6569 78.6569 80 77 80H3C1.34315 80 0 78.6569 0 77V3Z" fill="black"/>
<path fill-rule="evenodd" clip-rule="evenodd" d="M22.9986 45L25.3021 39.2556C25.6063 38.4971 26.3413 38 27.1585 38H46.8963C47.4123 38 47.9083 38.1994 48.2807 38.5566L54.9986 45H60.7526C61.3922 45 61.8674 45.5921 61.7289 46.2165L60.1769 53.2165C60.0754 53.6742 59.6695 54 59.2006 54H55.9774C55.7248 51.1967 53.3689 49 50.4999 49C47.6308 49 45.2749 51.1967 45.0223 54H34.9774C34.7248 51.1967 32.3689 49 29.4999 49C26.6308 49 24.2749 51.1967 24.0223 54H19.8467C19.335 54 18.9058 53.6137 18.8522 53.1047L18.115 46.1047C18.0528 45.5143 18.5158 45 19.1095 45H22.9986ZM25.7743 44.3143L27.3743 40.3143C27.4502 40.1245 27.6341 40 27.8385 40H36.5C36.7761 40 37 40.2239 37 40.5V44.5C37 44.7761 36.7761 45 36.5 45H26.2385C25.8848 45 25.6429 44.6427 25.7743 44.3143ZM51.6464 44.1464L47.6464 40.1464C47.5527 40.0527 47.4255 40 47.2929 40H39.5C39.2239 40 39 40.2239 39 40.5V44.5C39 44.7761 39.2239 45 39.5 45H51.2929C51.7383 45 51.9614 44.4614 51.6464 44.1464Z" fill="#F0F0F0"/>
<path fill-rule="evenodd" clip-rule="evenodd" d="M29.5 58C31.433 58 33 56.433 33 54.5C33 52.567 31.433 51 29.5 51C27.567 51 26 52.567 26 54.5C26 56.433 27.567 58 29.5 58ZM50.5 58C52.433 58 54 56.433 54 54.5C54 52.567 52.433 51 50.5 51C48.567 51 47 52.567 47 54.5C47 56.433 48.567 58 50.5 58Z" fill="#D9D9D9"/>
<path d="M56.8028 38L59 32.7059L52.4085 31.6471L50.7606 20L43.0704 28.4706L38.1268 23.7059L33.7324 28.4706L27.1408 24.7647V32.7059L20 31.6471L22.1972 36.4118" stroke="#E42525" stroke-width="2.5" stroke-linecap="round" stroke-linejoin="round"/>
</svg>
