<svg width="380" height="311" viewBox="0 0 380 311" fill="none" xmlns="http://www.w3.org/2000/svg">
<path d="M38.0848 302.713H36.4324V306H34.95V297.469H37.95C38.9344 297.469 39.6941 297.689 40.2293 298.131C40.7645 298.572 41.032 299.211 41.032 300.047C41.032 300.617 40.8934 301.096 40.616 301.482C40.3426 301.865 39.9598 302.16 39.4676 302.367L41.3836 305.924V306H39.7957L38.0848 302.713ZM36.4324 301.523H37.9559C38.4559 301.523 38.8465 301.398 39.1277 301.148C39.409 300.895 39.5496 300.549 39.5496 300.111C39.5496 299.654 39.4188 299.301 39.157 299.051C38.8992 298.801 38.5125 298.672 37.9969 298.664H36.4324V301.523ZM42.394 302.771C42.394 302.15 42.517 301.592 42.7631 301.096C43.0092 300.596 43.3549 300.213 43.8002 299.947C44.2455 299.678 44.7573 299.543 45.3354 299.543C46.1909 299.543 46.8842 299.818 47.4155 300.369C47.9506 300.92 48.2397 301.65 48.2827 302.561L48.2885 302.895C48.2885 303.52 48.1674 304.078 47.9252 304.57C47.687 305.062 47.3432 305.443 46.894 305.713C46.4487 305.982 45.933 306.117 45.3471 306.117C44.4526 306.117 43.7358 305.82 43.1967 305.227C42.6616 304.629 42.394 303.834 42.394 302.842V302.771ZM43.8178 302.895C43.8178 303.547 43.9526 304.059 44.2221 304.43C44.4916 304.797 44.8666 304.98 45.3471 304.98C45.8276 304.98 46.2006 304.793 46.4663 304.418C46.7358 304.043 46.8705 303.494 46.8705 302.771C46.8705 302.131 46.7319 301.623 46.4545 301.248C46.1811 300.873 45.808 300.686 45.3354 300.686C44.8705 300.686 44.5014 300.871 44.228 301.242C43.9545 301.609 43.8178 302.16 43.8178 302.895ZM53.6934 305.379C53.2755 305.871 52.6817 306.117 51.9122 306.117C51.2247 306.117 50.7032 305.916 50.3477 305.514C49.9962 305.111 49.8204 304.529 49.8204 303.768V299.66H51.2442V303.75C51.2442 304.555 51.5782 304.957 52.2462 304.957C52.9376 304.957 53.4044 304.709 53.6466 304.213V299.66H55.0704V306H53.7286L53.6934 305.379ZM58.6648 298.119V299.66H59.7839V300.715H58.6648V304.254C58.6648 304.496 58.7116 304.672 58.8054 304.781C58.903 304.887 59.0749 304.939 59.321 304.939C59.4851 304.939 59.6511 304.92 59.8191 304.881V305.982C59.4948 306.072 59.1823 306.117 58.8816 306.117C57.7878 306.117 57.2409 305.514 57.2409 304.307V300.715H56.198V299.66H57.2409V298.119H58.6648ZM62.7513 306H61.3275V299.66H62.7513V306ZM61.2396 298.014C61.2396 297.795 61.308 297.613 61.4447 297.469C61.5853 297.324 61.7845 297.252 62.0423 297.252C62.3002 297.252 62.4994 297.324 62.64 297.469C62.7806 297.613 62.8509 297.795 62.8509 298.014C62.8509 298.229 62.7806 298.408 62.64 298.553C62.4994 298.693 62.3002 298.764 62.0423 298.764C61.7845 298.764 61.5853 298.693 61.4447 298.553C61.308 298.408 61.2396 298.229 61.2396 298.014ZM65.9883 299.66L66.0293 300.393C66.498 299.826 67.1133 299.543 67.875 299.543C69.1953 299.543 69.8672 300.299 69.8906 301.811V306H68.4668V301.893C68.4668 301.49 68.3789 301.193 68.2031 301.002C68.0312 300.807 67.748 300.709 67.3535 300.709C66.7793 300.709 66.3516 300.969 66.0703 301.488V306H64.6465V299.66H65.9883ZM71.4577 302.783C71.4577 301.799 71.6881 301.014 72.1491 300.428C72.6139 299.838 73.2291 299.543 73.9948 299.543C74.7174 299.543 75.2858 299.795 75.6998 300.299L75.7643 299.66H77.0475V305.807C77.0475 306.639 76.7877 307.295 76.2682 307.775C75.7526 308.256 75.0553 308.496 74.1764 308.496C73.7116 308.496 73.2565 308.398 72.8112 308.203C72.3698 308.012 72.0338 307.76 71.8034 307.447L72.4772 306.592C72.9147 307.111 73.4538 307.371 74.0944 307.371C74.567 307.371 74.9401 307.242 75.2135 306.984C75.487 306.73 75.6237 306.355 75.6237 305.859V305.432C75.2135 305.889 74.6666 306.117 73.983 306.117C73.2409 306.117 72.6334 305.822 72.1608 305.232C71.692 304.643 71.4577 303.826 71.4577 302.783ZM72.8756 302.906C72.8756 303.543 73.0045 304.045 73.2623 304.412C73.5241 304.775 73.8854 304.957 74.3463 304.957C74.9205 304.957 75.3463 304.711 75.6237 304.219V301.43C75.3541 300.949 74.9323 300.709 74.358 300.709C73.8893 300.709 73.5241 300.895 73.2623 301.266C73.0045 301.637 72.8756 302.184 72.8756 302.906ZM89.1288 306H87.6464L83.8437 299.947V306H82.3613V297.469H83.8437L87.6581 303.545V297.469H89.1288V306ZM90.8365 302.771C90.8365 302.15 90.9595 301.592 91.2056 301.096C91.4517 300.596 91.7974 300.213 92.2427 299.947C92.688 299.678 93.1998 299.543 93.7779 299.543C94.6334 299.543 95.3267 299.818 95.858 300.369C96.3931 300.92 96.6822 301.65 96.7252 302.561L96.731 302.895C96.731 303.52 96.6099 304.078 96.3677 304.57C96.1295 305.062 95.7857 305.443 95.3365 305.713C94.8912 305.982 94.3755 306.117 93.7896 306.117C92.8951 306.117 92.1783 305.82 91.6392 305.227C91.1041 304.629 90.8365 303.834 90.8365 302.842V302.771ZM92.2603 302.895C92.2603 303.547 92.3951 304.059 92.6646 304.43C92.9341 304.797 93.3091 304.98 93.7896 304.98C94.2701 304.98 94.6431 304.793 94.9088 304.418C95.1783 304.043 95.313 303.494 95.313 302.771C95.313 302.131 95.1744 301.623 94.897 301.248C94.6236 300.873 94.2505 300.686 93.7779 300.686C93.313 300.686 92.9439 300.871 92.6705 301.242C92.397 301.609 92.2603 302.16 92.2603 302.895ZM99.1828 304.5C99.4484 304.5 99.6535 304.576 99.798 304.729C99.9426 304.877 100.015 305.064 100.015 305.291C100.015 305.514 99.9426 305.699 99.798 305.848C99.6535 305.992 99.4484 306.064 99.1828 306.064C98.9289 306.064 98.7277 305.992 98.5793 305.848C98.4309 305.703 98.3566 305.518 98.3566 305.291C98.3566 305.064 98.4289 304.877 98.5734 304.729C98.718 304.576 98.9211 304.5 99.1828 304.5Z" fill="black"/>
<path d="M164.132 304.014H160.827L160.136 306H158.595L161.817 297.469H163.147L166.376 306H164.829L164.132 304.014ZM161.243 302.818H163.716L162.479 299.279L161.243 302.818ZM170.175 304.98C170.531 304.98 170.826 304.877 171.06 304.67C171.294 304.463 171.419 304.207 171.435 303.902H172.777C172.761 304.297 172.638 304.666 172.408 305.01C172.177 305.35 171.865 305.619 171.47 305.818C171.076 306.018 170.65 306.117 170.193 306.117C169.306 306.117 168.603 305.83 168.083 305.256C167.564 304.682 167.304 303.889 167.304 302.877V302.73C167.304 301.766 167.562 300.994 168.078 300.416C168.593 299.834 169.296 299.543 170.187 299.543C170.941 299.543 171.554 299.764 172.027 300.205C172.503 300.643 172.753 301.219 172.777 301.934H171.435C171.419 301.57 171.294 301.271 171.06 301.037C170.83 300.803 170.535 300.686 170.175 300.686C169.714 300.686 169.359 300.854 169.109 301.189C168.859 301.521 168.732 302.027 168.728 302.707V302.936C168.728 303.623 168.851 304.137 169.097 304.477C169.347 304.812 169.706 304.98 170.175 304.98ZM176.816 304.98C177.172 304.98 177.467 304.877 177.701 304.67C177.936 304.463 178.061 304.207 178.076 303.902H179.418C179.402 304.297 179.279 304.666 179.049 305.01C178.818 305.35 178.506 305.619 178.111 305.818C177.717 306.018 177.291 306.117 176.834 306.117C175.947 306.117 175.244 305.83 174.725 305.256C174.205 304.682 173.945 303.889 173.945 302.877V302.73C173.945 301.766 174.203 300.994 174.719 300.416C175.234 299.834 175.938 299.543 176.828 299.543C177.582 299.543 178.195 299.764 178.668 300.205C179.145 300.643 179.395 301.219 179.418 301.934H178.076C178.061 301.57 177.936 301.271 177.701 301.037C177.471 300.803 177.176 300.686 176.816 300.686C176.356 300.686 176 300.854 175.75 301.189C175.5 301.521 175.373 302.027 175.369 302.707V302.936C175.369 303.623 175.492 304.137 175.738 304.477C175.988 304.812 176.348 304.98 176.816 304.98ZM180.587 302.771C180.587 302.15 180.71 301.592 180.956 301.096C181.202 300.596 181.548 300.213 181.993 299.947C182.438 299.678 182.95 299.543 183.528 299.543C184.384 299.543 185.077 299.818 185.608 300.369C186.143 300.92 186.432 301.65 186.475 302.561L186.481 302.895C186.481 303.52 186.36 304.078 186.118 304.57C185.88 305.062 185.536 305.443 185.087 305.713C184.641 305.982 184.126 306.117 183.54 306.117C182.645 306.117 181.928 305.82 181.389 305.227C180.854 304.629 180.587 303.834 180.587 302.842V302.771ZM182.01 302.895C182.01 303.547 182.145 304.059 182.415 304.43C182.684 304.797 183.059 304.98 183.54 304.98C184.02 304.98 184.393 304.793 184.659 304.418C184.928 304.043 185.063 303.494 185.063 302.771C185.063 302.131 184.925 301.623 184.647 301.248C184.374 300.873 184.001 300.686 183.528 300.686C183.063 300.686 182.694 300.871 182.421 301.242C182.147 301.609 182.01 302.16 182.01 302.895ZM191.886 305.379C191.468 305.871 190.874 306.117 190.105 306.117C189.417 306.117 188.896 305.916 188.54 305.514C188.189 305.111 188.013 304.529 188.013 303.768V299.66H189.437V303.75C189.437 304.555 189.771 304.957 190.439 304.957C191.13 304.957 191.597 304.709 191.839 304.213V299.66H193.263V306H191.921L191.886 305.379ZM196.395 299.66L196.436 300.393C196.904 299.826 197.52 299.543 198.281 299.543C199.602 299.543 200.273 300.299 200.297 301.811V306H198.873V301.893C198.873 301.49 198.785 301.193 198.609 301.002C198.438 300.807 198.154 300.709 197.76 300.709C197.186 300.709 196.758 300.969 196.477 301.488V306H195.053V299.66H196.395ZM203.897 298.119V299.66H205.016V300.715H203.897V304.254C203.897 304.496 203.944 304.672 204.038 304.781C204.135 304.887 204.307 304.939 204.553 304.939C204.717 304.939 204.883 304.92 205.051 304.881V305.982C204.727 306.072 204.415 306.117 204.114 306.117C203.02 306.117 202.473 305.514 202.473 304.307V300.715H201.43V299.66H202.473V298.119H203.897ZM216.723 306H215.24L211.437 299.947V306H209.955V297.469H211.437L215.252 303.545V297.469H216.723V306ZM218.43 302.771C218.43 302.15 218.553 301.592 218.799 301.096C219.045 300.596 219.391 300.213 219.836 299.947C220.282 299.678 220.794 299.543 221.372 299.543C222.227 299.543 222.92 299.818 223.452 300.369C223.987 300.92 224.276 301.65 224.319 302.561L224.325 302.895C224.325 303.52 224.204 304.078 223.961 304.57C223.723 305.062 223.379 305.443 222.93 305.713C222.485 305.982 221.969 306.117 221.383 306.117C220.489 306.117 219.772 305.82 219.233 305.227C218.698 304.629 218.43 303.834 218.43 302.842V302.771ZM219.854 302.895C219.854 303.547 219.989 304.059 220.258 304.43C220.528 304.797 220.903 304.98 221.383 304.98C221.864 304.98 222.237 304.793 222.503 304.418C222.772 304.043 222.907 303.494 222.907 302.771C222.907 302.131 222.768 301.623 222.491 301.248C222.217 300.873 221.844 300.686 221.372 300.686C220.907 300.686 220.538 300.871 220.264 301.242C219.991 301.609 219.854 302.16 219.854 302.895ZM226.777 304.5C227.042 304.5 227.247 304.576 227.392 304.729C227.536 304.877 227.609 305.064 227.609 305.291C227.609 305.514 227.536 305.699 227.392 305.848C227.247 305.992 227.042 306.064 226.777 306.064C226.523 306.064 226.321 305.992 226.173 305.848C226.025 305.703 225.95 305.518 225.95 305.291C225.95 305.064 226.023 304.877 226.167 304.729C226.312 304.576 226.515 304.5 226.777 304.5Z" fill="black"/>
<path d="M277.839 303.223C277.753 304.133 277.417 304.844 276.831 305.355C276.246 305.863 275.466 306.117 274.494 306.117C273.814 306.117 273.214 305.957 272.695 305.637C272.179 305.312 271.781 304.854 271.499 304.26C271.218 303.666 271.072 302.977 271.06 302.191V301.395C271.06 300.59 271.203 299.881 271.488 299.268C271.773 298.654 272.181 298.182 272.712 297.85C273.247 297.518 273.865 297.352 274.564 297.352C275.505 297.352 276.263 297.607 276.837 298.119C277.412 298.631 277.746 299.354 277.839 300.287H276.363C276.292 299.674 276.113 299.232 275.824 298.963C275.539 298.689 275.119 298.553 274.564 298.553C273.919 298.553 273.423 298.789 273.076 299.262C272.732 299.73 272.556 300.42 272.548 301.33V302.086C272.548 303.008 272.712 303.711 273.04 304.195C273.372 304.68 273.857 304.922 274.494 304.922C275.076 304.922 275.513 304.791 275.806 304.529C276.099 304.268 276.285 303.832 276.363 303.223H277.839ZM280.795 300.352C281.26 299.812 281.848 299.543 282.559 299.543C283.91 299.543 284.596 300.314 284.615 301.857V306H283.191V301.91C283.191 301.473 283.096 301.164 282.904 300.984C282.717 300.801 282.44 300.709 282.072 300.709C281.502 300.709 281.076 300.963 280.795 301.471V306H279.371V297H280.795V300.352ZM289.212 306.117C288.309 306.117 287.577 305.834 287.014 305.268C286.456 304.697 286.176 303.939 286.176 302.994V302.818C286.176 302.186 286.298 301.621 286.54 301.125C286.786 300.625 287.13 300.236 287.571 299.959C288.012 299.682 288.505 299.543 289.048 299.543C289.911 299.543 290.577 299.818 291.046 300.369C291.518 300.92 291.755 301.699 291.755 302.707V303.281H287.612C287.655 303.805 287.829 304.219 288.134 304.523C288.442 304.828 288.829 304.98 289.294 304.98C289.946 304.98 290.477 304.717 290.887 304.189L291.655 304.922C291.401 305.301 291.061 305.596 290.635 305.807C290.214 306.014 289.739 306.117 289.212 306.117ZM289.042 300.686C288.651 300.686 288.335 300.822 288.092 301.096C287.854 301.369 287.702 301.75 287.635 302.238H290.348V302.133C290.317 301.656 290.19 301.297 289.967 301.055C289.745 300.809 289.436 300.686 289.042 300.686ZM295.829 304.98C296.185 304.98 296.48 304.877 296.714 304.67C296.949 304.463 297.074 304.207 297.089 303.902H298.431C298.415 304.297 298.292 304.666 298.062 305.01C297.831 305.35 297.519 305.619 297.124 305.818C296.73 306.018 296.304 306.117 295.847 306.117C294.96 306.117 294.257 305.83 293.738 305.256C293.218 304.682 292.958 303.889 292.958 302.877V302.73C292.958 301.766 293.216 300.994 293.732 300.416C294.247 299.834 294.951 299.543 295.841 299.543C296.595 299.543 297.208 299.764 297.681 300.205C298.158 300.643 298.408 301.219 298.431 301.934H297.089C297.074 301.57 296.949 301.271 296.714 301.037C296.484 300.803 296.189 300.686 295.829 300.686C295.369 300.686 295.013 300.854 294.763 301.189C294.513 301.521 294.386 302.027 294.382 302.707V302.936C294.382 303.623 294.505 304.137 294.751 304.477C295.001 304.812 295.361 304.98 295.829 304.98ZM301.926 303.281L301.293 303.932V306H299.869V297H301.293V302.191L301.738 301.635L303.49 299.66H305.201L302.846 302.303L305.453 306H303.807L301.926 303.281ZM316.749 306H315.267L311.464 299.947V306H309.982V297.469H311.464L315.279 303.545V297.469H316.749V306ZM318.457 302.771C318.457 302.15 318.58 301.592 318.826 301.096C319.072 300.596 319.418 300.213 319.863 299.947C320.309 299.678 320.82 299.543 321.398 299.543C322.254 299.543 322.947 299.818 323.478 300.369C324.014 300.92 324.303 301.65 324.346 302.561L324.351 302.895C324.351 303.52 324.23 304.078 323.988 304.57C323.75 305.062 323.406 305.443 322.957 305.713C322.512 305.982 321.996 306.117 321.41 306.117C320.516 306.117 319.799 305.82 319.26 305.227C318.725 304.629 318.457 303.834 318.457 302.842V302.771ZM319.881 302.895C319.881 303.547 320.016 304.059 320.285 304.43C320.555 304.797 320.93 304.98 321.41 304.98C321.891 304.98 322.264 304.793 322.529 304.418C322.799 304.043 322.934 303.494 322.934 302.771C322.934 302.131 322.795 301.623 322.518 301.248C322.244 300.873 321.871 300.686 321.398 300.686C320.934 300.686 320.564 300.871 320.291 301.242C320.018 301.609 319.881 302.16 319.881 302.895ZM326.803 304.5C327.069 304.5 327.274 304.576 327.419 304.729C327.563 304.877 327.635 305.064 327.635 305.291C327.635 305.514 327.563 305.699 327.419 305.848C327.274 305.992 327.069 306.064 326.803 306.064C326.549 306.064 326.348 305.992 326.2 305.848C326.051 305.703 325.977 305.518 325.977 305.291C325.977 305.064 326.049 304.877 326.194 304.729C326.338 304.576 326.542 304.5 326.803 304.5Z" fill="black"/>
<path d="M8.46289 11.2881L9.60449 5.04688H11.9834L9.87109 15H7.38281L6.0498 9.32617L4.74414 15H2.2627L0.143555 5.04688H2.5293L3.6709 11.2881L5.03809 5.04688H7.0752L8.46289 11.2881ZM21.9393 15H19.5535V10.8438H16.0193V15H13.6199V5.04688H16.0193V8.99805H19.5535V5.04688H21.9393V15ZM30.3365 10.7822H26.5631V13.1543H31.0201V15H24.1637V5.04688H31.0338V6.89941H26.5631V8.99805H30.3365V10.7822ZM36.3959 11.4863H35.0971V15H32.6977V5.04688H36.6146C37.795 5.04688 38.7178 5.30892 39.3832 5.83301C40.0486 6.3571 40.3813 7.09766 40.3813 8.05469C40.3813 8.7474 40.24 9.32161 39.9574 9.77734C39.6794 10.2331 39.2419 10.6022 38.6449 10.8848L40.723 14.8975V15H38.1527L36.3959 11.4863ZM35.0971 9.63379H36.6146C37.0704 9.63379 37.4122 9.5153 37.64 9.27832C37.8725 9.03678 37.9887 8.70182 37.9887 8.27344C37.9887 7.84505 37.8725 7.51009 37.64 7.26855C37.4076 7.02246 37.0658 6.89941 36.6146 6.89941H35.0971V9.63379ZM48.7033 10.7822H44.9299V13.1543H49.3869V15H42.5305V5.04688H49.4006V6.89941H44.9299V8.99805H48.7033V10.7822ZM62.6541 6.89941H59.6668V15H57.2674V6.89941H54.3348V5.04688H62.6541V6.89941ZM72.61 10.2285C72.61 11.1992 72.4299 12.0583 72.0699 12.8057C71.7099 13.5531 71.1972 14.1296 70.5318 14.5352C69.871 14.9362 69.1168 15.1367 68.2691 15.1367C67.4215 15.1367 66.6695 14.943 66.0133 14.5557C65.357 14.1637 64.8443 13.6055 64.4752 12.8809C64.1106 12.1562 63.9192 11.3245 63.901 10.3857V9.8252C63.901 8.84993 64.0787 7.99089 64.4342 7.24805C64.7942 6.50065 65.3069 5.92415 65.9723 5.51855C66.6422 5.11296 67.4033 4.91016 68.2555 4.91016C69.0986 4.91016 69.8505 5.11068 70.5113 5.51172C71.1721 5.91276 71.6848 6.4847 72.0494 7.22754C72.4186 7.96582 72.6054 8.81348 72.61 9.77051V10.2285ZM70.1695 9.81152C70.1695 8.82259 70.0032 8.07292 69.6705 7.5625C69.3424 7.04753 68.8707 6.79004 68.2555 6.79004C67.0523 6.79004 66.4166 7.69238 66.3482 9.49707L66.3414 10.2285C66.3414 11.2038 66.5032 11.9535 66.8268 12.4775C67.1503 13.0016 67.6311 13.2637 68.2691 13.2637C68.8753 13.2637 69.3424 13.0062 69.6705 12.4912C69.9986 11.9762 70.165 11.2357 70.1695 10.2695V9.81152ZM85.0022 11.0352H81.133V15H78.7336V5.04688H85.3918V6.89941H81.133V9.18945H85.0022V11.0352ZM89.6465 15H87.2539V5.04688H89.6465V15ZM100.327 15H97.9412L94.4139 8.80664V15H92.0145V5.04688H94.4139L97.9344 11.2402V5.04688H100.327V15ZM102.545 15V5.04688H105.751C106.63 5.04688 107.421 5.2474 108.123 5.64844C108.824 6.04492 109.371 6.60775 109.763 7.33691C110.16 8.06152 110.36 8.875 110.365 9.77734V10.2354C110.365 11.1468 110.171 11.9648 109.784 12.6895C109.401 13.4095 108.859 13.9746 108.157 14.3848C107.46 14.7904 106.68 14.9954 105.819 15H102.545ZM104.944 6.89941V13.1543H105.778C106.466 13.1543 106.995 12.9105 107.364 12.4229C107.733 11.9307 107.918 11.2015 107.918 10.2354V9.80469C107.918 8.8431 107.733 8.11849 107.364 7.63086C106.995 7.14323 106.457 6.89941 105.751 6.89941H104.944ZM116.482 15V5.04688H120.057C121.337 5.04688 122.31 5.28158 122.976 5.75098C123.646 6.22038 123.981 6.90169 123.981 7.79492C123.981 8.3099 123.862 8.74967 123.625 9.11426C123.388 9.47884 123.04 9.74772 122.579 9.9209C123.099 10.0576 123.498 10.3128 123.776 10.6865C124.054 11.0602 124.193 11.516 124.193 12.0537C124.193 13.029 123.883 13.7627 123.263 14.2549C122.648 14.7425 121.734 14.9909 120.522 15H116.482ZM118.881 10.7686V13.1543H120.453C120.886 13.1543 121.219 13.0563 121.451 12.8604C121.684 12.6598 121.8 12.3796 121.8 12.0195C121.8 11.1901 121.388 10.7731 120.563 10.7686H118.881ZM118.881 9.19629H120.132C120.656 9.19173 121.03 9.09603 121.253 8.90918C121.476 8.72233 121.588 8.44661 121.588 8.08203C121.588 7.66276 121.467 7.36198 121.226 7.17969C120.984 6.99284 120.595 6.89941 120.057 6.89941H118.881V9.19629ZM131.872 13.1406H128.584L128.01 15H125.446L129.097 5.04688H131.353L135.03 15H132.453L131.872 13.1406ZM129.158 11.2881H131.298L130.225 7.83594L129.158 11.2881ZM144.774 15H142.388L138.861 8.80664V15H136.462V5.04688H138.861L142.382 11.2402V5.04688H144.774V15ZM150.376 11.2949L149.391 12.375V15H146.992V5.04688H149.391V9.43555L150.225 8.1709L152.372 5.04688H155.338L151.975 9.44922L155.338 15H152.495L150.376 11.2949ZM159.204 15H156.811V5.04688H159.204V15ZM169.884 15H167.498L163.971 8.80664V15H161.571V5.04688H163.971L167.491 11.2402V5.04688H169.884V15ZM180.25 13.7695C179.881 14.1797 179.341 14.5101 178.63 14.7607C177.919 15.0114 177.14 15.1367 176.292 15.1367C174.989 15.1367 173.947 14.738 173.168 13.9404C172.389 13.1429 171.972 12.0332 171.917 10.6113L171.91 9.75C171.91 8.77018 172.083 7.91569 172.43 7.18652C172.776 6.4528 173.271 5.88997 173.913 5.49805C174.56 5.10156 175.308 4.90332 176.155 4.90332C177.395 4.90332 178.356 5.18815 179.04 5.75781C179.728 6.32292 180.129 7.16829 180.243 8.29395H177.933C177.851 7.73796 177.673 7.34147 177.399 7.10449C177.126 6.86751 176.739 6.74902 176.237 6.74902C175.636 6.74902 175.171 7.00423 174.843 7.51465C174.515 8.02507 174.348 8.75423 174.344 9.70215V10.3037C174.344 11.2972 174.512 12.0446 174.85 12.5459C175.191 13.0426 175.727 13.291 176.456 13.291C177.08 13.291 177.545 13.152 177.851 12.874V11.3291H176.183V9.68164H180.25V13.7695ZM189.087 15H186.695V5.04688H189.087V15ZM199.768 15H197.382L193.855 8.80664V15H191.455V5.04688H193.855L197.375 11.2402V5.04688H199.768V15ZM208.254 11.0352H204.385V15H201.986V5.04688H208.644V6.89941H204.385V9.18945H208.254V11.0352ZM218.771 10.2285C218.771 11.1992 218.59 12.0583 218.23 12.8057C217.87 13.5531 217.358 14.1296 216.692 14.5352C216.032 14.9362 215.277 15.1367 214.43 15.1367C213.582 15.1367 212.83 14.943 212.174 14.5557C211.518 14.1637 211.005 13.6055 210.636 12.8809C210.271 12.1562 210.08 11.3245 210.062 10.3857V9.8252C210.062 8.84993 210.239 7.99089 210.595 7.24805C210.955 6.50065 211.467 5.92415 212.133 5.51855C212.803 5.11296 213.564 4.91016 214.416 4.91016C215.259 4.91016 216.011 5.11068 216.672 5.51172C217.333 5.91276 217.845 6.4847 218.21 7.22754C218.579 7.96582 218.766 8.81348 218.771 9.77051V10.2285ZM216.33 9.81152C216.33 8.82259 216.164 8.07292 215.831 7.5625C215.503 7.04753 215.031 6.79004 214.416 6.79004C213.213 6.79004 212.577 7.69238 212.509 9.49707L212.502 10.2285C212.502 11.2038 212.664 11.9535 212.987 12.4775C213.311 13.0016 213.792 13.2637 214.43 13.2637C215.036 13.2637 215.503 13.0062 215.831 12.4912C216.159 11.9762 216.326 11.2357 216.33 10.2695V9.81152ZM224.406 11.4863H223.107V15H220.708V5.04688H224.625C225.805 5.04688 226.728 5.30892 227.393 5.83301C228.059 6.3571 228.391 7.09766 228.391 8.05469C228.391 8.7474 228.25 9.32161 227.968 9.77734C227.69 10.2331 227.252 10.6022 226.655 10.8848L228.733 14.8975V15H226.163L224.406 11.4863ZM223.107 9.63379H224.625C225.081 9.63379 225.422 9.5153 225.65 9.27832C225.883 9.03678 225.999 8.70182 225.999 8.27344C225.999 7.84505 225.883 7.51009 225.65 7.26855C225.418 7.02246 225.076 6.89941 224.625 6.89941H223.107V9.63379ZM233.692 5.04688L235.914 11.9717L238.129 5.04688H241.287V15H238.88V12.6758L239.113 7.91797L236.707 15H235.121L232.708 7.91113L232.94 12.6758V15H230.541V5.04688H233.692ZM249.294 13.1406H246.006L245.432 15H242.869L246.519 5.04688H248.775L252.453 15H249.875L249.294 13.1406ZM246.58 11.2881H248.72L247.647 7.83594L246.58 11.2881ZM260.877 6.89941H257.89V15H255.49V6.89941H252.558V5.04688H260.877V6.89941ZM265.152 15H262.76V5.04688H265.152V15ZM275.949 10.2285C275.949 11.1992 275.769 12.0583 275.409 12.8057C275.049 13.5531 274.536 14.1296 273.871 14.5352C273.21 14.9362 272.456 15.1367 271.608 15.1367C270.761 15.1367 270.009 14.943 269.352 14.5557C268.696 14.1637 268.183 13.6055 267.814 12.8809C267.45 12.1562 267.258 11.3245 267.24 10.3857V9.8252C267.24 8.84993 267.418 7.99089 267.773 7.24805C268.133 6.50065 268.646 5.92415 269.311 5.51855C269.981 5.11296 270.742 4.91016 271.595 4.91016C272.438 4.91016 273.19 5.11068 273.85 5.51172C274.511 5.91276 275.024 6.4847 275.388 7.22754C275.758 7.96582 275.944 8.81348 275.949 9.77051V10.2285ZM273.509 9.81152C273.509 8.82259 273.342 8.07292 273.01 7.5625C272.681 7.04753 272.21 6.79004 271.595 6.79004C270.391 6.79004 269.756 7.69238 269.687 9.49707L269.68 10.2285C269.68 11.2038 269.842 11.9535 270.166 12.4775C270.489 13.0016 270.97 13.2637 271.608 13.2637C272.214 13.2637 272.681 13.0062 273.01 12.4912C273.338 11.9762 273.504 11.2357 273.509 10.2695V9.81152ZM286.199 15H283.813L280.286 8.80664V15H277.886V5.04688H280.286L283.806 11.2402V5.04688H286.199V15Z" fill="#5E6162"/>
<path d="M1.48535 60V47.2031H5.66895C7.05762 47.2031 8.10059 47.4902 8.79785 48.0645C9.50098 48.6387 9.85254 49.4883 9.85254 50.6133C9.85254 51.2109 9.68262 51.7412 9.34277 52.2041C9.00293 52.6611 8.54004 53.0156 7.9541 53.2676C8.64551 53.4609 9.19043 53.8301 9.58887 54.375C9.99316 54.9141 10.1953 55.5586 10.1953 56.3086C10.1953 57.457 9.82324 58.3594 9.0791 59.0156C8.33496 59.6719 7.2832 60 5.92383 60H1.48535ZM3.17285 54.0146V58.6201H5.95898C6.74414 58.6201 7.3623 58.418 7.81348 58.0137C8.27051 57.6035 8.49902 57.041 8.49902 56.3262C8.49902 54.7852 7.66113 54.0146 5.98535 54.0146H3.17285ZM3.17285 52.6611H5.72168C6.45996 52.6611 7.04883 52.4766 7.48828 52.1074C7.93359 51.7383 8.15625 51.2373 8.15625 50.6045C8.15625 49.9014 7.95117 49.3916 7.54102 49.0752C7.13086 48.7529 6.50684 48.5918 5.66895 48.5918H3.17285V52.6611ZM18.6764 60C18.5827 59.8125 18.5065 59.4785 18.4479 58.998C17.692 59.7832 16.7897 60.1758 15.7409 60.1758C14.8034 60.1758 14.0329 59.9121 13.4293 59.3848C12.8317 58.8516 12.5329 58.1777 12.5329 57.3633C12.5329 56.373 12.9079 55.6055 13.6579 55.0605C14.4137 54.5098 15.4743 54.2344 16.8395 54.2344H18.4215V53.4873C18.4215 52.9189 18.2516 52.4678 17.9118 52.1338C17.5719 51.7939 17.0709 51.624 16.4088 51.624C15.8287 51.624 15.3424 51.7705 14.9498 52.0635C14.5573 52.3564 14.361 52.7109 14.361 53.127H12.7262C12.7262 52.6523 12.8932 52.1953 13.2272 51.7559C13.567 51.3105 14.0241 50.959 14.5983 50.7012C15.1784 50.4434 15.8141 50.3145 16.5055 50.3145C17.6012 50.3145 18.4596 50.5898 19.0807 51.1406C19.7018 51.6855 20.0241 52.4385 20.0475 53.3994V57.7764C20.0475 58.6494 20.1588 59.3438 20.3815 59.8594V60H18.6764ZM15.9782 58.7607C16.4879 58.7607 16.9713 58.6289 17.4284 58.3652C17.8854 58.1016 18.2164 57.7588 18.4215 57.3369V55.3857H17.1471C15.1549 55.3857 14.1588 55.9688 14.1588 57.1348C14.1588 57.6445 14.3287 58.043 14.6686 58.3301C15.0084 58.6172 15.445 58.7607 15.9782 58.7607ZM24.4944 50.4902L24.5471 51.6855C25.2737 50.7715 26.2229 50.3145 27.3948 50.3145C29.4046 50.3145 30.4182 51.4482 30.4358 53.7158V60H28.8098V53.707C28.804 53.0215 28.6458 52.5146 28.3352 52.1865C28.0305 51.8584 27.553 51.6943 26.9026 51.6943C26.3753 51.6943 25.9124 51.835 25.5139 52.1162C25.1155 52.3975 24.805 52.7666 24.5823 53.2236V60H22.9563V50.4902H24.4944ZM35.9023 55.5967L34.8827 56.6602V60H33.2568V46.5H34.8827V54.665L35.7529 53.6191L38.7148 50.4902H40.6923L36.9921 54.4629L41.123 60H39.2157L35.9023 55.5967ZM57.2238 55.9395C57.0656 57.293 56.5646 58.3389 55.7209 59.0771C54.883 59.8096 53.7668 60.1758 52.3723 60.1758C50.8605 60.1758 49.6477 59.6338 48.7336 58.5498C47.8254 57.4658 47.3713 56.0156 47.3713 54.1992V52.9688C47.3713 51.7793 47.5822 50.7334 48.0041 49.8311C48.4318 48.9287 49.0354 48.2373 49.8146 47.7568C50.5939 47.2705 51.4963 47.0273 52.5217 47.0273C53.8811 47.0273 54.9709 47.4082 55.7912 48.1699C56.6115 48.9258 57.0891 49.9746 57.2238 51.3164H55.5275C55.3811 50.2969 55.0617 49.5586 54.5695 49.1016C54.0832 48.6445 53.4006 48.416 52.5217 48.416C51.4436 48.416 50.5969 48.8145 49.9816 49.6113C49.3723 50.4082 49.0676 51.542 49.0676 53.0127V54.252C49.0676 55.6406 49.3576 56.7451 49.9377 57.5654C50.5178 58.3857 51.3293 58.7959 52.3723 58.7959C53.3098 58.7959 54.0275 58.585 54.5256 58.1631C55.0295 57.7354 55.3635 56.9941 55.5275 55.9395H57.2238ZM61.2664 51.6416C61.9871 50.7568 62.9246 50.3145 64.0789 50.3145C66.0887 50.3145 67.1024 51.4482 67.12 53.7158V60H65.494V53.707C65.4881 53.0215 65.3299 52.5146 65.0194 52.1865C64.7147 51.8584 64.2371 51.6943 63.5868 51.6943C63.0594 51.6943 62.5965 51.835 62.1981 52.1162C61.7996 52.3975 61.4891 52.7666 61.2664 53.2236V60H59.6405V46.5H61.2664V51.6416ZM73.8608 60.1758C72.5718 60.1758 71.5229 59.7539 70.7143 58.9102C69.9057 58.0605 69.5014 56.9268 69.5014 55.5088V55.21C69.5014 54.2666 69.6802 53.4258 70.0376 52.6875C70.4009 51.9434 70.9048 51.3633 71.5493 50.9473C72.1997 50.5254 72.9028 50.3145 73.6587 50.3145C74.895 50.3145 75.8559 50.7217 76.5415 51.5361C77.227 52.3506 77.5698 53.5166 77.5698 55.0342V55.7109H71.1274C71.1509 56.6484 71.4233 57.4072 71.9448 57.9873C72.4721 58.5615 73.1401 58.8486 73.9487 58.8486C74.5229 58.8486 75.0093 58.7314 75.4077 58.4971C75.8061 58.2627 76.1548 57.9521 76.4536 57.5654L77.4468 58.3389C76.6499 59.5635 75.4546 60.1758 73.8608 60.1758ZM73.6587 51.6504C73.0024 51.6504 72.4516 51.8906 72.0063 52.3711C71.561 52.8457 71.2856 53.5137 71.1802 54.375H75.9438V54.252C75.8969 53.4258 75.6743 52.7871 75.2759 52.3359C74.8774 51.8789 74.3384 51.6504 73.6587 51.6504ZM83.6339 58.8486C84.214 58.8486 84.7208 58.6729 85.1544 58.3213C85.588 57.9697 85.8282 57.5303 85.8751 57.0029H87.4132C87.3839 57.5479 87.1964 58.0664 86.8507 58.5586C86.505 59.0508 86.0421 59.4434 85.462 59.7363C84.8878 60.0293 84.2784 60.1758 83.6339 60.1758C82.339 60.1758 81.3077 59.7451 80.5402 58.8838C79.7784 58.0166 79.3976 56.833 79.3976 55.333V55.0605C79.3976 54.1348 79.5675 53.3115 79.9073 52.5908C80.2472 51.8701 80.7335 51.3105 81.3663 50.9121C82.005 50.5137 82.7579 50.3145 83.6251 50.3145C84.6915 50.3145 85.5763 50.6338 86.2794 51.2725C86.9884 51.9111 87.3663 52.7402 87.4132 53.7598H85.8751C85.8282 53.1445 85.5939 52.6406 85.172 52.248C84.756 51.8496 84.2403 51.6504 83.6251 51.6504C82.7989 51.6504 82.1573 51.9492 81.7003 52.5469C81.2491 53.1387 81.0236 53.9971 81.0236 55.1221V55.4297C81.0236 56.5254 81.2491 57.3691 81.7003 57.9609C82.1515 58.5527 82.796 58.8486 83.6339 58.8486ZM92.2556 55.5967L91.2361 56.6602V60H89.6101V46.5H91.2361V54.665L92.1062 53.6191L95.0681 50.4902H97.0457L93.3455 54.4629L97.4763 60H95.5691L92.2556 55.5967Z" fill="#5E6162"/>
<rect y="78" width="380" height="190" rx="8" fill="#F0F0F0"/>
<rect x="30" y="98" width="191.597" height="10" rx="5" fill="#D9D9D9"/>
<rect x="30" y="118" width="128.067" height="10" rx="5" fill="#D9D9D9"/>
<rect x="30" y="168" width="320" height="10" rx="5" fill="#D9D9D9"/>
<rect x="30" y="188" width="191.597" height="10" rx="5" fill="#D9D9D9"/>
<rect x="252" y="118" width="98" height="10" rx="5" fill="#D9D9D9"/>
<path d="M31 248H67.5M104 248H67.5M67.5 248V288" stroke="black"/>
<path d="M137 248H190.5M244 248H190.5M190.5 248V288" stroke="black"/>
<path d="M281 248H297.134M313.269 248H297.134M297.134 248V288" stroke="black"/>
<path d="M37.0684 238.755C37.0684 240.236 36.8154 241.337 36.3096 242.057C35.8037 242.777 35.013 243.137 33.9375 243.137C32.8757 243.137 32.0895 242.786 31.5791 242.084C31.0687 241.378 30.8044 240.325 30.7861 238.926V237.237C30.7861 235.774 31.0391 234.688 31.5449 233.977C32.0508 233.266 32.8438 232.91 33.9238 232.91C34.9948 232.91 35.7832 233.254 36.2891 233.942C36.7949 234.626 37.0547 235.683 37.0684 237.114V238.755ZM35.8037 237.025C35.8037 235.954 35.6533 235.175 35.3525 234.688C35.0518 234.195 34.5755 233.949 33.9238 233.949C33.2767 233.949 32.805 234.193 32.5088 234.681C32.2126 235.168 32.0599 235.918 32.0508 236.93V238.953C32.0508 240.029 32.2057 240.824 32.5156 241.339C32.8301 241.849 33.304 242.104 33.9375 242.104C34.5618 242.104 35.0244 241.863 35.3252 241.38C35.6305 240.897 35.79 240.136 35.8037 239.097V237.025ZM45.3497 238.755C45.3497 240.236 45.0968 241.337 44.5909 242.057C44.085 242.777 43.2943 243.137 42.2188 243.137C41.157 243.137 40.3708 242.786 39.8604 242.084C39.35 241.378 39.0857 240.325 39.0675 238.926V237.237C39.0675 235.774 39.3204 234.688 39.8263 233.977C40.3321 233.266 41.1251 232.91 42.2052 232.91C43.2761 232.91 44.0645 233.254 44.5704 233.942C45.0763 234.626 45.336 235.683 45.3497 237.114V238.755ZM44.085 237.025C44.085 235.954 43.9346 235.175 43.6339 234.688C43.3331 234.195 42.8568 233.949 42.2052 233.949C41.558 233.949 41.0863 234.193 40.7901 234.681C40.4939 235.168 40.3412 235.918 40.3321 236.93V238.953C40.3321 240.029 40.4871 240.824 40.797 241.339C41.1114 241.849 41.5854 242.104 42.2188 242.104C42.8432 242.104 43.3057 241.863 43.6065 241.38C43.9119 240.897 44.0714 240.136 44.085 239.097V237.025ZM53.631 238.755C53.631 240.236 53.3781 241.337 52.8722 242.057C52.3664 242.777 51.5757 243.137 50.5002 243.137C49.4383 243.137 48.6522 242.786 48.1418 242.084C47.6313 241.378 47.367 240.325 47.3488 238.926V237.237C47.3488 235.774 47.6017 234.688 48.1076 233.977C48.6134 233.266 49.4064 232.91 50.4865 232.91C51.5574 232.91 52.3459 233.254 52.8517 233.942C53.3576 234.626 53.6173 235.683 53.631 237.114V238.755ZM52.3664 237.025C52.3664 235.954 52.216 235.175 51.9152 234.688C51.6144 234.195 51.1382 233.949 50.4865 233.949C49.8393 233.949 49.3677 234.193 49.0714 234.681C48.7752 235.168 48.6226 235.918 48.6134 236.93V238.953C48.6134 240.029 48.7684 240.824 49.0783 241.339C49.3927 241.849 49.8667 242.104 50.5002 242.104C51.1245 242.104 51.5871 241.863 51.8879 241.38C52.1932 240.897 52.3527 240.136 52.3664 239.097V237.025ZM61.9123 238.755C61.9123 240.236 61.6594 241.337 61.1536 242.057C60.6477 242.777 59.857 243.137 58.7815 243.137C57.7196 243.137 56.9335 242.786 56.4231 242.084C55.9127 241.378 55.6483 240.325 55.6301 238.926V237.237C55.6301 235.774 55.883 234.688 56.3889 233.977C56.8948 233.266 57.6877 232.91 58.7678 232.91C59.8388 232.91 60.6272 233.254 61.133 233.942C61.6389 234.626 61.8987 235.683 61.9123 237.114V238.755ZM60.6477 237.025C60.6477 235.954 60.4973 235.175 60.1965 234.688C59.8957 234.195 59.4195 233.949 58.7678 233.949C58.1207 233.949 57.649 234.193 57.3528 234.681C57.0565 235.168 56.9039 235.918 56.8948 236.93V238.953C56.8948 240.029 57.0497 240.824 57.3596 241.339C57.6741 241.849 58.148 242.104 58.7815 242.104C59.4058 242.104 59.8684 241.863 60.1692 241.38C60.4745 240.897 60.634 240.136 60.6477 239.097V237.025ZM70.1937 238.755C70.1937 240.236 69.9407 241.337 69.4349 242.057C68.929 242.777 68.1383 243.137 67.0628 243.137C66.001 243.137 65.2148 242.786 64.7044 242.084C64.194 241.378 63.9297 240.325 63.9114 238.926V237.237C63.9114 235.774 64.1644 234.688 64.6702 233.977C65.1761 233.266 65.9691 232.91 67.0491 232.91C68.1201 232.91 68.9085 233.254 69.4144 233.942C69.9202 234.626 70.18 235.683 70.1937 237.114V238.755ZM68.929 237.025C68.929 235.954 68.7786 235.175 68.4779 234.688C68.1771 234.195 67.7008 233.949 67.0491 233.949C66.402 233.949 65.9303 234.193 65.6341 234.681C65.3379 235.168 65.1852 235.918 65.1761 236.93V238.953C65.1761 240.029 65.331 240.824 65.6409 241.339C65.9554 241.849 66.4293 242.104 67.0628 242.104C67.6872 242.104 68.1497 241.863 68.4505 241.38C68.7558 240.897 68.9154 240.136 68.929 239.097V237.025ZM78.475 238.755C78.475 240.236 78.2221 241.337 77.7162 242.057C77.2104 242.777 76.4197 243.137 75.3441 243.137C74.2823 243.137 73.4962 242.786 72.9857 242.084C72.4753 241.378 72.211 240.325 72.1928 238.926V237.237C72.1928 235.774 72.4457 234.688 72.9516 233.977C73.4574 233.266 74.2504 232.91 75.3305 232.91C76.4014 232.91 77.1898 233.254 77.6957 233.942C78.2016 234.626 78.4613 235.683 78.475 237.114V238.755ZM77.2104 237.025C77.2104 235.954 77.06 235.175 76.7592 234.688C76.4584 234.195 75.9822 233.949 75.3305 233.949C74.6833 233.949 74.2117 234.193 73.9154 234.681C73.6192 235.168 73.4665 235.918 73.4574 236.93V238.953C73.4574 240.029 73.6124 240.824 73.9223 241.339C74.2367 241.849 74.7107 242.104 75.3441 242.104C75.9685 242.104 76.4311 241.863 76.7318 241.38C77.0372 240.897 77.1967 240.136 77.2104 239.097V237.025ZM86.7563 238.755C86.7563 240.236 86.5034 241.337 85.9975 242.057C85.4917 242.777 84.701 243.137 83.6255 243.137C82.5636 243.137 81.7775 242.786 81.2671 242.084C80.7567 241.378 80.4923 240.325 80.4741 238.926V237.237C80.4741 235.774 80.727 234.688 81.2329 233.977C81.7388 233.266 82.5317 232.91 83.6118 232.91C84.6828 232.91 85.4712 233.254 85.977 233.942C86.4829 234.626 86.7427 235.683 86.7563 237.114V238.755ZM85.4917 237.025C85.4917 235.954 85.3413 235.175 85.0405 234.688C84.7397 234.195 84.2635 233.949 83.6118 233.949C82.9647 233.949 82.493 234.193 82.1968 234.681C81.9005 235.168 81.7479 235.918 81.7388 236.93V238.953C81.7388 240.029 81.8937 240.824 82.2036 241.339C82.518 241.849 82.992 242.104 83.6255 242.104C84.2498 242.104 84.7124 241.863 85.0132 241.38C85.3185 240.897 85.478 240.136 85.4917 239.097V237.025ZM95.0377 238.755C95.0377 240.236 94.7847 241.337 94.2789 242.057C93.773 242.777 92.9823 243.137 91.9068 243.137C90.8449 243.137 90.0588 242.786 89.5484 242.084C89.038 241.378 88.7737 240.325 88.7554 238.926V237.237C88.7554 235.774 89.0084 234.688 89.5142 233.977C90.0201 233.266 90.813 232.91 91.8931 232.91C92.9641 232.91 93.7525 233.254 94.2584 233.942C94.7642 234.626 95.024 235.683 95.0377 237.114V238.755ZM93.773 237.025C93.773 235.954 93.6226 235.175 93.3218 234.688C93.0211 234.195 92.5448 233.949 91.8931 233.949C91.246 233.949 90.7743 234.193 90.4781 234.681C90.1819 235.168 90.0292 235.918 90.0201 236.93V238.953C90.0201 240.029 90.175 240.824 90.4849 241.339C90.7994 241.849 91.2733 242.104 91.9068 242.104C92.5311 242.104 92.9937 241.863 93.2945 241.38C93.5998 240.897 93.7593 240.136 93.773 239.097V237.025ZM103.319 238.755C103.319 240.236 103.066 241.337 102.56 242.057C102.054 242.777 101.264 243.137 100.188 243.137C99.1263 243.137 98.3401 242.786 97.8297 242.084C97.3193 241.378 97.055 240.325 97.0368 238.926V237.237C97.0368 235.774 97.2897 234.688 97.7955 233.977C98.3014 233.266 99.0944 232.91 100.174 232.91C101.245 232.91 102.034 233.254 102.54 233.942C103.046 234.626 103.305 235.683 103.319 237.114V238.755ZM102.054 237.025C102.054 235.954 101.904 235.175 101.603 234.688C101.302 234.195 100.826 233.949 100.174 233.949C99.5273 233.949 99.0556 234.193 98.7594 234.681C98.4632 235.168 98.3105 235.918 98.3014 236.93V238.953C98.3014 240.029 98.4564 240.824 98.7663 241.339C99.0807 241.849 99.5547 242.104 100.188 242.104C100.812 242.104 101.275 241.863 101.576 241.38C101.881 240.897 102.041 240.136 102.054 239.097V237.025Z" fill="#E42525"/>
<path d="M144.068 238.755C144.068 240.236 143.815 241.337 143.31 242.057C142.804 242.777 142.013 243.137 140.938 243.137C139.876 243.137 139.09 242.786 138.579 242.084C138.069 241.378 137.804 240.325 137.786 238.926V237.237C137.786 235.774 138.039 234.688 138.545 233.977C139.051 233.266 139.844 232.91 140.924 232.91C141.995 232.91 142.783 233.254 143.289 233.942C143.795 234.626 144.055 235.683 144.068 237.114V238.755ZM142.804 237.025C142.804 235.954 142.653 235.175 142.353 234.688C142.052 234.195 141.576 233.949 140.924 233.949C140.277 233.949 139.805 234.193 139.509 234.681C139.213 235.168 139.06 235.918 139.051 236.93V238.953C139.051 240.029 139.206 240.824 139.516 241.339C139.83 241.849 140.304 242.104 140.938 242.104C141.562 242.104 142.024 241.863 142.325 241.38C142.631 240.897 142.79 240.136 142.804 239.097V237.025ZM152.35 238.755C152.35 240.236 152.097 241.337 151.591 242.057C151.085 242.777 150.294 243.137 149.219 243.137C148.157 243.137 147.371 242.786 146.86 242.084C146.35 241.378 146.086 240.325 146.067 238.926V237.237C146.067 235.774 146.32 234.688 146.826 233.977C147.332 233.266 148.125 232.91 149.205 232.91C150.276 232.91 151.065 233.254 151.57 233.942C152.076 234.626 152.336 235.683 152.35 237.114V238.755ZM151.085 237.025C151.085 235.954 150.935 235.175 150.634 234.688C150.333 234.195 149.857 233.949 149.205 233.949C148.558 233.949 148.086 234.193 147.79 234.681C147.494 235.168 147.341 235.918 147.332 236.93V238.953C147.332 240.029 147.487 240.824 147.797 241.339C148.111 241.849 148.585 242.104 149.219 242.104C149.843 242.104 150.306 241.863 150.607 241.38C150.912 240.897 151.071 240.136 151.085 239.097V237.025ZM160.631 238.755C160.631 240.236 160.378 241.337 159.872 242.057C159.366 242.777 158.576 243.137 157.5 243.137C156.438 243.137 155.652 242.786 155.142 242.084C154.631 241.378 154.367 240.325 154.349 238.926V237.237C154.349 235.774 154.602 234.688 155.108 233.977C155.613 233.266 156.406 232.91 157.486 232.91C158.557 232.91 159.346 233.254 159.852 233.942C160.358 234.626 160.617 235.683 160.631 237.114V238.755ZM159.366 237.025C159.366 235.954 159.216 235.175 158.915 234.688C158.614 234.195 158.138 233.949 157.486 233.949C156.839 233.949 156.368 234.193 156.071 234.681C155.775 235.168 155.623 235.918 155.613 236.93V238.953C155.613 240.029 155.768 240.824 156.078 241.339C156.393 241.849 156.867 242.104 157.5 242.104C158.125 242.104 158.587 241.863 158.888 241.38C159.193 240.897 159.353 240.136 159.366 239.097V237.025ZM168.912 238.755C168.912 240.236 168.659 241.337 168.154 242.057C167.648 242.777 166.857 243.137 165.781 243.137C164.72 243.137 163.934 242.786 163.423 242.084C162.913 241.378 162.648 240.325 162.63 238.926V237.237C162.63 235.774 162.883 234.688 163.389 233.977C163.895 233.266 164.688 232.91 165.768 232.91C166.839 232.91 167.627 233.254 168.133 233.942C168.639 234.626 168.899 235.683 168.912 237.114V238.755ZM167.648 237.025C167.648 235.954 167.497 235.175 167.197 234.688C166.896 234.195 166.42 233.949 165.768 233.949C165.121 233.949 164.649 234.193 164.353 234.681C164.057 235.168 163.904 235.918 163.895 236.93V238.953C163.895 240.029 164.05 240.824 164.36 241.339C164.674 241.849 165.148 242.104 165.781 242.104C166.406 242.104 166.868 241.863 167.169 241.38C167.475 240.897 167.634 240.136 167.648 239.097V237.025ZM177.194 238.755C177.194 240.236 176.941 241.337 176.435 242.057C175.929 242.777 175.138 243.137 174.063 243.137C173.001 243.137 172.215 242.786 171.704 242.084C171.194 241.378 170.93 240.325 170.911 238.926V237.237C170.911 235.774 171.164 234.688 171.67 233.977C172.176 233.266 172.969 232.91 174.049 232.91C175.12 232.91 175.909 233.254 176.414 233.942C176.92 234.626 177.18 235.683 177.194 237.114V238.755ZM175.929 237.025C175.929 235.954 175.779 235.175 175.478 234.688C175.177 234.195 174.701 233.949 174.049 233.949C173.402 233.949 172.93 234.193 172.634 234.681C172.338 235.168 172.185 235.918 172.176 236.93V238.953C172.176 240.029 172.331 240.824 172.641 241.339C172.955 241.849 173.429 242.104 174.063 242.104C174.687 242.104 175.15 241.863 175.451 241.38C175.756 240.897 175.915 240.136 175.929 239.097V237.025ZM185.475 238.755C185.475 240.236 185.222 241.337 184.716 242.057C184.21 242.777 183.42 243.137 182.344 243.137C181.282 243.137 180.496 242.786 179.986 242.084C179.475 241.378 179.211 240.325 179.193 238.926V237.237C179.193 235.774 179.446 234.688 179.952 233.977C180.457 233.266 181.25 232.91 182.33 232.91C183.401 232.91 184.19 233.254 184.696 233.942C185.202 234.626 185.461 235.683 185.475 237.114V238.755ZM184.21 237.025C184.21 235.954 184.06 235.175 183.759 234.688C183.458 234.195 182.982 233.949 182.33 233.949C181.683 233.949 181.212 234.193 180.915 234.681C180.619 235.168 180.467 235.918 180.457 236.93V238.953C180.457 240.029 180.612 240.824 180.922 241.339C181.237 241.849 181.711 242.104 182.344 242.104C182.968 242.104 183.431 241.863 183.732 241.38C184.037 240.897 184.197 240.136 184.21 239.097V237.025ZM193.756 238.755C193.756 240.236 193.503 241.337 192.998 242.057C192.492 242.777 191.701 243.137 190.625 243.137C189.564 243.137 188.777 242.786 188.267 242.084C187.757 241.378 187.492 240.325 187.474 238.926V237.237C187.474 235.774 187.727 234.688 188.233 233.977C188.739 233.266 189.532 232.91 190.612 232.91C191.683 232.91 192.471 233.254 192.977 233.942C193.483 234.626 193.743 235.683 193.756 237.114V238.755ZM192.492 237.025C192.492 235.954 192.341 235.175 192.041 234.688C191.74 234.195 191.263 233.949 190.612 233.949C189.965 233.949 189.493 234.193 189.197 234.681C188.901 235.168 188.748 235.918 188.739 236.93V238.953C188.739 240.029 188.894 240.824 189.204 241.339C189.518 241.849 189.992 242.104 190.625 242.104C191.25 242.104 191.712 241.863 192.013 241.38C192.319 240.897 192.478 240.136 192.492 239.097V237.025ZM202.038 238.755C202.038 240.236 201.785 241.337 201.279 242.057C200.773 242.777 199.982 243.137 198.907 243.137C197.845 243.137 197.059 242.786 196.548 242.084C196.038 241.378 195.774 240.325 195.755 238.926V237.237C195.755 235.774 196.008 234.688 196.514 233.977C197.02 233.266 197.813 232.91 198.893 232.91C199.964 232.91 200.752 233.254 201.258 233.942C201.764 234.626 202.024 235.683 202.038 237.114V238.755ZM200.773 237.025C200.773 235.954 200.623 235.175 200.322 234.688C200.021 234.195 199.545 233.949 198.893 233.949C198.246 233.949 197.774 234.193 197.478 234.681C197.182 235.168 197.029 235.918 197.02 236.93V238.953C197.02 240.029 197.175 240.824 197.485 241.339C197.799 241.849 198.273 242.104 198.907 242.104C199.531 242.104 199.994 241.863 200.294 241.38C200.6 240.897 200.759 240.136 200.773 239.097V237.025ZM210.319 238.755C210.319 240.236 210.066 241.337 209.56 242.057C209.054 242.777 208.264 243.137 207.188 243.137C206.126 243.137 205.34 242.786 204.83 242.084C204.319 241.378 204.055 240.325 204.037 238.926V237.237C204.037 235.774 204.29 234.688 204.796 233.977C205.301 233.266 206.094 232.91 207.174 232.91C208.245 232.91 209.034 233.254 209.54 233.942C210.046 234.626 210.305 235.683 210.319 237.114V238.755ZM209.054 237.025C209.054 235.954 208.904 235.175 208.603 234.688C208.302 234.195 207.826 233.949 207.174 233.949C206.527 233.949 206.056 234.193 205.759 234.681C205.463 235.168 205.311 235.918 205.301 236.93V238.953C205.301 240.029 205.456 240.824 205.766 241.339C206.081 241.849 206.555 242.104 207.188 242.104C207.812 242.104 208.275 241.863 208.576 241.38C208.881 240.897 209.041 240.136 209.054 239.097V237.025ZM218.6 238.755C218.6 240.236 218.347 241.337 217.842 242.057C217.336 242.777 216.545 243.137 215.469 243.137C214.408 243.137 213.621 242.786 213.111 242.084C212.601 241.378 212.336 240.325 212.318 238.926V237.237C212.318 235.774 212.571 234.688 213.077 233.977C213.583 233.266 214.376 232.91 215.456 232.91C216.527 232.91 217.315 233.254 217.821 233.942C218.327 234.626 218.587 235.683 218.6 237.114V238.755ZM217.336 237.025C217.336 235.954 217.185 235.175 216.884 234.688C216.584 234.195 216.107 233.949 215.456 233.949C214.809 233.949 214.337 234.193 214.041 234.681C213.745 235.168 213.592 235.918 213.583 236.93V238.953C213.583 240.029 213.738 240.824 214.048 241.339C214.362 241.849 214.836 242.104 215.469 242.104C216.094 242.104 216.556 241.863 216.857 241.38C217.162 240.897 217.322 240.136 217.336 239.097V237.025ZM226.882 238.755C226.882 240.236 226.629 241.337 226.123 242.057C225.617 242.777 224.826 243.137 223.751 243.137C222.689 243.137 221.903 242.786 221.392 242.084C220.882 241.378 220.618 240.325 220.599 238.926V237.237C220.599 235.774 220.852 234.688 221.358 233.977C221.864 233.266 222.657 232.91 223.737 232.91C224.808 232.91 225.596 233.254 226.102 233.942C226.608 234.626 226.868 235.683 226.882 237.114V238.755ZM225.617 237.025C225.617 235.954 225.467 235.175 225.166 234.688C224.865 234.195 224.389 233.949 223.737 233.949C223.09 233.949 222.618 234.193 222.322 234.681C222.026 235.168 221.873 235.918 221.864 236.93V238.953C221.864 240.029 222.019 240.824 222.329 241.339C222.643 241.849 223.117 242.104 223.751 242.104C224.375 242.104 224.838 241.863 225.138 241.38C225.444 240.897 225.603 240.136 225.617 239.097V237.025ZM235.163 238.755C235.163 240.236 234.91 241.337 234.404 242.057C233.898 242.777 233.108 243.137 232.032 243.137C230.97 243.137 230.184 242.786 229.674 242.084C229.163 241.378 228.899 240.325 228.881 238.926V237.237C228.881 235.774 229.134 234.688 229.64 233.977C230.145 233.266 230.938 232.91 232.018 232.91C233.089 232.91 233.878 233.254 234.384 233.942C234.89 234.626 235.149 235.683 235.163 237.114V238.755ZM233.898 237.025C233.898 235.954 233.748 235.175 233.447 234.688C233.146 234.195 232.67 233.949 232.018 233.949C231.371 233.949 230.9 234.193 230.603 234.681C230.307 235.168 230.155 235.918 230.145 236.93V238.953C230.145 240.029 230.3 240.824 230.61 241.339C230.925 241.849 231.399 242.104 232.032 242.104C232.656 242.104 233.119 241.863 233.42 241.38C233.725 240.897 233.885 240.136 233.898 239.097V237.025ZM243.444 238.755C243.444 240.236 243.191 241.337 242.686 242.057C242.18 242.777 241.389 243.137 240.313 243.137C239.252 243.137 238.465 242.786 237.955 242.084C237.445 241.378 237.18 240.325 237.162 238.926V237.237C237.162 235.774 237.415 234.688 237.921 233.977C238.427 233.266 239.22 232.91 240.3 232.91C241.371 232.91 242.159 233.254 242.665 233.942C243.171 234.626 243.431 235.683 243.444 237.114V238.755ZM242.18 237.025C242.18 235.954 242.029 235.175 241.728 234.688C241.428 234.195 240.951 233.949 240.3 233.949C239.653 233.949 239.181 234.193 238.885 234.681C238.589 235.168 238.436 235.918 238.427 236.93V238.953C238.427 240.029 238.582 240.824 238.892 241.339C239.206 241.849 239.68 242.104 240.313 242.104C240.938 242.104 241.4 241.863 241.701 241.38C242.006 240.897 242.166 240.136 242.18 239.097V237.025Z" fill="#E42525"/>
<path d="M287.068 238.755C287.068 240.236 286.815 241.337 286.31 242.057C285.804 242.777 285.013 243.137 283.938 243.137C282.876 243.137 282.09 242.786 281.579 242.084C281.069 241.378 280.804 240.325 280.786 238.926V237.237C280.786 235.774 281.039 234.688 281.545 233.977C282.051 233.266 282.844 232.91 283.924 232.91C284.995 232.91 285.783 233.254 286.289 233.942C286.795 234.626 287.055 235.683 287.068 237.114V238.755ZM285.804 237.025C285.804 235.954 285.653 235.175 285.353 234.688C285.052 234.195 284.576 233.949 283.924 233.949C283.277 233.949 282.805 234.193 282.509 234.681C282.213 235.168 282.06 235.918 282.051 236.93V238.953C282.051 240.029 282.206 240.824 282.516 241.339C282.83 241.849 283.304 242.104 283.938 242.104C284.562 242.104 285.024 241.863 285.325 241.38C285.631 240.897 285.79 240.136 285.804 239.097V237.025ZM295.35 238.755C295.35 240.236 295.097 241.337 294.591 242.057C294.085 242.777 293.294 243.137 292.219 243.137C291.157 243.137 290.371 242.786 289.86 242.084C289.35 241.378 289.086 240.325 289.067 238.926V237.237C289.067 235.774 289.32 234.688 289.826 233.977C290.332 233.266 291.125 232.91 292.205 232.91C293.276 232.91 294.065 233.254 294.57 233.942C295.076 234.626 295.336 235.683 295.35 237.114V238.755ZM294.085 237.025C294.085 235.954 293.935 235.175 293.634 234.688C293.333 234.195 292.857 233.949 292.205 233.949C291.558 233.949 291.086 234.193 290.79 234.681C290.494 235.168 290.341 235.918 290.332 236.93V238.953C290.332 240.029 290.487 240.824 290.797 241.339C291.111 241.849 291.585 242.104 292.219 242.104C292.843 242.104 293.306 241.863 293.607 241.38C293.912 240.897 294.071 240.136 294.085 239.097V237.025ZM303.631 238.755C303.631 240.236 303.378 241.337 302.872 242.057C302.366 242.777 301.576 243.137 300.5 243.137C299.438 243.137 298.652 242.786 298.142 242.084C297.631 241.378 297.367 240.325 297.349 238.926V237.237C297.349 235.774 297.602 234.688 298.108 233.977C298.613 233.266 299.406 232.91 300.486 232.91C301.557 232.91 302.346 233.254 302.852 233.942C303.358 234.626 303.617 235.683 303.631 237.114V238.755ZM302.366 237.025C302.366 235.954 302.216 235.175 301.915 234.688C301.614 234.195 301.138 233.949 300.486 233.949C299.839 233.949 299.368 234.193 299.071 234.681C298.775 235.168 298.623 235.918 298.613 236.93V238.953C298.613 240.029 298.768 240.824 299.078 241.339C299.393 241.849 299.867 242.104 300.5 242.104C301.125 242.104 301.587 241.863 301.888 241.38C302.193 240.897 302.353 240.136 302.366 239.097V237.025ZM311.912 238.755C311.912 240.236 311.659 241.337 311.154 242.057C310.648 242.777 309.857 243.137 308.781 243.137C307.72 243.137 306.934 242.786 306.423 242.084C305.913 241.378 305.648 240.325 305.63 238.926V237.237C305.63 235.774 305.883 234.688 306.389 233.977C306.895 233.266 307.688 232.91 308.768 232.91C309.839 232.91 310.627 233.254 311.133 233.942C311.639 234.626 311.899 235.683 311.912 237.114V238.755ZM310.648 237.025C310.648 235.954 310.497 235.175 310.197 234.688C309.896 234.195 309.42 233.949 308.768 233.949C308.121 233.949 307.649 234.193 307.353 234.681C307.057 235.168 306.904 235.918 306.895 236.93V238.953C306.895 240.029 307.05 240.824 307.36 241.339C307.674 241.849 308.148 242.104 308.781 242.104C309.406 242.104 309.868 241.863 310.169 241.38C310.475 240.897 310.634 240.136 310.648 239.097V237.025Z" fill="#E42525"/>
</svg>
