<?xml version="1.0" encoding="UTF-8"?>
<svg width="60px" height="40px" viewBox="0 0 60 40" version="1.1" xmlns="http://www.w3.org/2000/svg" xmlns:xlink="http://www.w3.org/1999/xlink">
    <!-- Generator: Sketch 53 (72520) - https://sketchapp.com -->
    <title>logo-honda-light</title>
    <desc>Created with Sketch.</desc>
    <g id="Page-1" stroke="none" stroke-width="1" fill="none" fill-rule="evenodd">
        <g id="logo-honda-light" fill="#FFFFFF" fill-rule="nonzero">
            <path d="M59.0124841,38.8705732 C58.4104459,39.4886624 57.433121,39.8326115 56.2919745,39.8326115 L56.2710828,39.8326115 C54.2323567,39.8326115 52.7426752,38.915414 52.4692994,37.228535 L52.4499363,37.1075159 L53.2323567,37.1075159 L53.2481529,37.1887898 C53.5184713,38.4226752 54.6007643,39.0797452 56.2787261,39.0840764 C57.2206369,39.0840764 58.0028025,38.7785987 58.4438217,38.3243312 C58.677707,38.0721019 58.8094268,37.7526115 58.8094268,37.4017834 L58.8058599,37.2927389 C58.7791083,36.393121 58.068535,35.9197452 56.1070064,35.633121 C54.7370701,35.4326115 52.9352866,35.2012739 52.8904459,33.5103185 C52.8947771,32.3518471 53.9842038,31.2323567 56.026242,31.2318471 C57.8282803,31.2244586 59.0642038,32.0542675 59.4109554,33.5500637 L59.4425478,33.6774522 L58.6453503,33.6774522 L58.6214013,33.6025478 C58.3064968,32.5742675 57.4466242,31.9847134 56.0417834,31.9801274 C54.6321019,31.9826752 53.6856051,32.6529936 53.6856051,33.4894268 L53.6856051,33.5087898 C53.6889172,34.3329936 54.4428025,34.616051 56.2292994,34.8703185 C57.8878981,35.1161783 59.5126115,35.564586 59.6030573,37.2692994 L59.6030573,37.3408917 C59.6030573,37.9003822 59.4076433,38.4591083 59.0124841,38.8705732 Z M50.9388535,34.8550318 C50.6226752,33.2313376 49.2682803,32.0275159 47.6817834,32.0290446 C46.0794904,32.0290446 44.743949,33.2313376 44.4438217,34.8550318 L50.9388535,34.8550318 Z M47.7755414,39.8326115 C45.4336306,39.8280255 43.583949,37.948535 43.5796178,35.5625478 C43.583949,33.1770701 45.4096815,31.2318471 47.6817834,31.2318471 C50.1220382,31.2333758 51.7842038,33.4173248 51.7842038,35.4743949 L51.7842038,35.5281529 L51.7882803,35.633121 L44.3643312,35.633121 C44.4275159,37.6122293 45.9217834,39.0512102 47.7755414,39.0512102 C49.6180892,39.046879 50.4252229,38.0524841 50.8094268,37.0214013 L50.8341401,36.950828 L51.6522293,36.950828 L51.6104459,37.0871338 C51.0438217,38.8458599 49.7011465,39.8326115 47.790828,39.8326115 L47.7755414,39.8326115 Z M38.9184713,39.8326115 L38.9233121,39.8326115 C40.7352866,39.8326115 42.1803822,38.7421656 42.7212739,37.0871338 L42.766879,36.955414 L41.9475159,36.955414 L41.9205096,37.0214013 C41.4501911,38.2736306 40.3605096,39.0489172 38.9184713,39.0542675 C37.0963057,39.0489172 35.5974522,37.4858599 35.5974522,35.5630573 C35.5989809,33.6104459 37.0963057,32.0310828 38.9184713,32.0275159 C40.3128662,32.0290446 41.4056051,32.8058599 41.9047134,34.0458599 L41.9340127,34.1090446 L42.766879,34.1090446 L42.7212739,33.9755414 C42.1643312,32.3205096 40.733758,31.230828 38.9184713,31.2318471 C36.6463694,31.2318471 34.8191083,33.1770701 34.8165605,35.5630573 C34.8191083,37.9171975 36.6499363,39.8326115 38.9184713,39.8326115 Z M33.5640764,30.2853503 L32.8873885,30.2853503 L32.8873885,28.6481529 L33.6652229,28.6481529 L33.6652229,30.2853503 L33.5640764,30.2853503 Z M33.5640764,39.6458599 L32.8873885,39.6458599 L32.8873885,31.4323567 L33.6652229,31.4323567 L33.6652229,39.6458599 L33.5640764,39.6458599 Z M28.6305732,39.6458599 L27.9368153,39.6458599 L24.7745223,31.4323567 L25.6193631,31.4323567 L28.315414,38.4664968 L31.0214013,31.4323567 L31.8619108,31.4323567 L28.7258599,39.5811465 L28.7014013,39.6458599 L28.6305732,39.6458599 Z M20.5184713,39.6458599 L19.8249682,39.6458599 L19.8249682,31.4323567 L20.6236943,31.4323567 L20.6236943,32.5021656 C20.7263694,32.3503185 20.8438217,32.2056051 20.9824204,32.0787261 C21.5951592,31.5332484 22.3867516,31.2323567 23.2942675,31.2323567 C23.4547771,31.2323567 23.6175796,31.2397452 23.7867516,31.2616561 L23.8741401,31.2710828 L23.8741401,32.0050955 L23.764586,31.9946497 C23.6366879,31.9842038 23.5123567,31.9788535 23.3941401,31.9788535 C22.5411465,31.9788535 21.893758,32.2489172 21.4779618,32.6529936 C20.9228025,33.1442038 20.6236943,33.8950318 20.6236943,34.7075159 L20.6236943,39.6458599 L20.5184713,39.6458599 Z M17.8298089,34.8550318 C17.5110828,33.2313376 16.1612739,32.0275159 14.5752866,32.0290446 C12.9699363,32.0290446 11.6343949,33.2313376 11.3327389,34.8550318 L17.8298089,34.8550318 Z M14.666242,39.8326115 C12.3233121,39.8280255 10.4746497,37.948535 10.4692994,35.5625478 C10.4746497,33.1770701 12.3008917,31.2318471 14.5752866,31.2318471 C17.0155414,31.2333758 18.6774522,33.4188535 18.6774522,35.4743949 L18.6774522,35.5281529 L18.6797452,35.633121 L11.2522293,35.633121 C11.3187261,37.6122293 12.8076433,39.0512102 14.666242,39.0512102 C16.5082803,39.046879 17.3115924,38.0524841 17.6991083,37.0214013 L17.7238217,36.950828 L18.5459873,36.950828 L18.5024204,37.0871338 C17.9340127,38.8458599 16.5921019,39.8326115 14.6807643,39.8326115 L14.666242,39.8326115 Z M1.55261146,36.2626752 L1.55261146,36.1597452 L2.33019108,36.1597452 L2.33019108,36.2626752 C2.33019108,38.1808917 3.93936306,39.046879 5.56025478,39.0512102 C7.65528662,39.0438217 8.88076433,38.1352866 8.88305732,36.6522293 C8.87847134,35.3793631 8.12407643,34.8191083 5.60280255,34.2970701 C3.69019108,33.926879 1.85171975,33.2863694 1.84942675,31.3482803 C1.85121019,29.5569427 3.38038217,28.371465 5.60535032,28.3704459 C8.16305732,28.3729936 9.33171975,30.0254777 9.33605096,31.6588535 L9.33605096,31.762293 L8.55490446,31.762293 L8.55490446,31.6588535 C8.5510828,30.1317197 7.42242038,29.1424204 5.60535032,29.1329936 C3.78267516,29.1393631 2.62726115,30.0361783 2.62573248,31.3482803 C2.62573248,32.456051 3.44535032,33.0611465 5.75312102,33.5352866 C8.17605096,34.0224204 9.66522293,34.7105732 9.66471338,36.6522293 C9.65859873,38.6025478 8.01707006,39.8425478 5.56025478,39.8473885 C3.64229299,39.8425478 1.55261146,38.7138854 1.55261146,36.2626752 Z M59.4677707,25.926879 L58.788535,25.926879 L58.788535,14.1503185 L59.5689172,14.1503185 L59.5689172,25.926879 L59.4677707,25.926879 Z M53.4392357,21.9597452 C51.3821656,22.1732484 50.6853503,22.6764331 50.6779618,23.708535 C50.6825478,24.929172 52.0886624,25.2833121 52.8680255,25.2863694 C54.5742675,25.2817834 56.2188535,24.5230573 56.2208917,22.9151592 L56.2208917,21.2940127 C55.5307006,21.7821656 54.451465,21.8723567 53.4392357,21.9597452 Z M56.5388535,25.926879 L56.4771975,25.926879 L56.4473885,25.8680255 C56.3128662,25.5844586 56.2343949,25.2341401 56.2224204,24.7936306 C55.522293,25.5887898 54.3378344,26.0652229 52.8680255,26.0652229 C51.442293,26.0642038 49.8583439,25.3490446 49.8535032,23.7248408 C49.8583439,21.8135032 51.6499363,21.3745223 53.3571975,21.2267516 C55.1490446,21.0565605 56.2443312,20.8512102 56.2208917,19.9900637 C56.2188535,18.6038217 54.917707,18.2828025 53.7383439,18.2736306 C52.2991083,18.2805096 51.3969427,18.8583439 51.0647134,19.8970701 L51.042293,19.9701911 L50.2420382,19.9701911 L50.2728662,19.8394904 C50.6417834,18.3628025 51.9047134,17.5031847 53.7383439,17.5110828 C55.7709554,17.5126115 56.9966879,18.4178344 57.0002548,19.9900637 L57.0002548,24.5169427 C56.9987261,24.9052229 57.108535,25.4947771 57.2280255,25.7859873 L57.2863694,25.926879 L56.5388535,25.926879 Z M48.4443312,16.562293 L47.7663694,16.562293 L47.7663694,14.9276433 L48.5503185,14.9276433 L48.5503185,16.562293 L48.4443312,16.562293 Z M48.4443312,25.926879 L47.7663694,25.926879 L47.7663694,17.7118471 L48.5503185,17.7118471 L48.5503185,25.926879 L48.4443312,25.926879 Z M42.4998726,26.1133758 L42.5031847,26.1133758 C44.3169427,26.1133758 45.764586,25.0216561 46.2996178,23.3666242 L46.3442038,23.233121 L45.5261146,23.233121 L45.5003822,23.2963057 C45.0300637,24.5518471 43.9408917,25.3322293 42.4998726,25.3322293 C40.6784713,25.3296815 39.1768153,23.7630573 39.1768153,21.842293 C39.1768153,19.8886624 40.6784713,18.3070064 42.4998726,18.3044586 C43.8909554,18.3070064 44.9852229,19.0848408 45.4858599,20.3256051 L45.5143949,20.3882803 L46.3442038,20.3882803 L46.2996178,20.2529936 C45.7442038,18.5982166 44.3169427,17.5103185 42.4998726,17.5110828 C40.226242,17.5110828 38.4010191,19.4573248 38.3959236,21.842293 C38.4010191,24.1966879 40.2282803,26.1133758 42.4998726,26.1133758 Z M37.0991083,25.926879 L36.4208917,25.926879 L36.4208917,20.9870064 C36.4066242,19.268535 35.5271338,18.2850955 33.8135032,18.2736306 C32.2440764,18.2769427 31.0392357,19.4249682 31.0361783,20.9870064 L31.0361783,25.926879 L30.256051,25.926879 L30.256051,17.7118471 L31.0361783,17.7118471 L31.0361783,18.8333758 C31.6547771,18.0168153 32.6486624,17.5103185 33.8264968,17.5110828 C35.9301911,17.5126115 37.1987261,18.863949 37.2002548,20.9870064 L37.2002548,25.926879 L37.0991083,25.926879 Z M24.9019108,21.9597452 C22.8494268,22.1732484 22.1515924,22.6764331 22.1490446,23.708535 C22.1490446,24.929172 23.5541401,25.2833121 24.3329936,25.2863694 C26.0379618,25.2817834 27.682293,24.5230573 27.6876433,22.9151592 L27.6876433,21.2940127 C27.0030573,21.7821656 25.917707,21.8723567 24.9019108,21.9597452 Z M28.0053503,25.926879 L27.9398726,25.926879 L27.9113376,25.8680255 C27.7785987,25.5844586 27.7016561,25.2341401 27.6907006,24.7936306 C26.9918471,25.5887898 25.8086624,26.0652229 24.3393631,26.0652229 L24.3329936,26.0652229 C22.9087898,26.0642038 21.3238217,25.3490446 21.32,23.7248408 C21.3238217,21.8135032 23.1151592,21.3745223 24.8206369,21.2267516 C26.6147771,21.0565605 27.7121019,20.8512102 27.6876433,19.9900637 C27.686879,18.6038217 26.3857325,18.2828025 25.2035669,18.2736306 C23.7712102,18.2805096 22.8636943,18.8573248 22.5342675,19.8970701 L22.5105732,19.9701911 L21.7095541,19.9701911 L21.746242,19.8394904 C22.1098089,18.3628025 23.3717197,17.5031847 25.2035669,17.5110828 C27.2369427,17.5126115 28.4647134,18.4178344 28.4670064,19.9900637 L28.4670064,24.5169427 C28.4659873,24.9052229 28.5745223,25.4947771 28.6940127,25.7859873 L28.7487898,25.926879 L28.0053503,25.926879 Z M19.9750318,25.926879 L19.2955414,25.926879 L19.2955414,20.9870064 C19.2853503,19.268535 18.4038217,18.2850955 16.6899363,18.2736306 C15.1240764,18.2769427 13.915414,19.4249682 13.9118471,20.9870064 L13.9118471,25.926879 L13.1304459,25.926879 L13.1304459,17.7118471 L13.9118471,17.7118471 L13.9118471,18.8333758 C14.5322293,18.0168153 15.5278981,17.5103185 16.7049682,17.5110828 C18.8081529,17.5126115 20.0726115,18.863949 20.0771975,20.9870064 L20.0771975,25.926879 L19.9750318,25.926879 Z M11.0715924,16.562293 L10.393121,16.562293 L10.393121,14.9276433 L11.1724841,14.9276433 L11.1724841,16.562293 L11.0715924,16.562293 Z M11.0715924,25.926879 L10.393121,25.926879 L10.393121,17.7118471 L11.1724841,17.7118471 L11.1724841,25.926879 L11.0715924,25.926879 Z M2.55363057,25.926879 L1.8766879,25.926879 L1.8766879,14.9276433 L8.96229299,14.9276433 L8.96229299,15.7080255 L2.65426752,15.7080255 L2.65426752,19.7814013 L8.29273885,19.7814013 L8.29273885,20.5436943 L2.65426752,20.5436943 L2.65426752,25.926879 L2.55363057,25.926879 Z" id="Fill-1"></path>
            <path d="M15.7814013,1.90012739 L16.4448408,1.97910828 C16.7419108,2.01273885 16.7742675,2.26089172 16.7742675,2.41859873 L16.7742675,3.20407643 L13.7169427,3.20407643 L13.7169427,2.41859873 C13.7169427,2.26089172 13.7487898,2.01273885 14.0473885,1.97910828 L14.7113376,1.90012739 L14.7113376,1.22878981 L10.7393631,1.22878981 L10.7393631,1.90012739 L11.4035669,1.97910828 C11.7006369,2.01273885 11.7327389,2.26089172 11.7327389,2.41859873 L11.7327389,4.99184713 C11.7327389,5.14955414 11.7006369,5.39770701 11.4035669,5.43133758 L10.7393631,5.51057325 L10.7393631,6.18292994 L14.7113376,6.18292994 L14.7113376,5.51057325 L14.0473885,5.43133758 C13.7487898,5.39770701 13.7169427,5.14955414 13.7169427,4.99184713 L13.7169427,4.20611465 L16.7742675,4.20611465 L16.7742675,4.99184713 C16.7742675,5.14955414 16.7419108,5.39770701 16.4448408,5.43133758 L15.7814013,5.51057325 L15.7814013,6.18292994 L19.753121,6.18292994 L19.753121,5.51057325 L19.0881529,5.43133758 C18.7910828,5.39770701 18.7594904,5.14955414 18.7594904,4.99184713 L18.7594904,2.41859873 C18.7594904,2.26089172 18.7910828,2.01273885 19.0881529,1.97910828 L19.753121,1.90012739 L19.753121,1.22878981 L15.7814013,1.22878981 L15.7814013,1.90012739 Z M25.7773248,3.70573248 C25.7773248,2.52713376 25.2555414,2.00356688 24.0061146,2.00356688 C22.7559236,2.00356688 22.2343949,2.52713376 22.2343949,3.70573248 C22.2343949,4.88509554 22.7559236,5.40764331 24.0061146,5.40764331 C25.2555414,5.40764331 25.7773248,4.88509554 25.7773248,3.70573248 Z M28.0636943,3.70573248 C28.0636943,4.94165605 27.2315924,6.35210191 24.0061146,6.35210191 C20.7816561,6.35210191 19.9472611,4.94165605 19.9472611,3.70573248 C19.9472611,2.46878981 20.7816561,1.05859873 24.0061146,1.05859873 C27.2315924,1.05859873 28.0636943,2.46878981 28.0636943,3.70573248 Z M33.8129936,1.90012739 L34.4787261,1.97910828 C34.7732484,2.01273885 34.8040764,2.26089172 34.8040764,2.41859873 L34.8040764,4.89707006 L32.1842038,1.44 C32.0677707,1.27898089 31.9663694,1.22878981 31.6840764,1.22878981 C31.5021656,1.22878981 28.2764331,1.22878981 28.2764331,1.22878981 L28.2764331,1.90012739 L28.9385987,1.97910828 C29.2369427,2.01273885 29.2677707,2.26089172 29.2677707,2.41859873 L29.2677707,4.99184713 C29.2677707,5.14955414 29.2369427,5.39770701 28.9385987,5.43133758 L28.2764331,5.51057325 L28.2764331,6.18292994 L31.446879,6.18292994 L31.446879,5.51057325 L30.7867516,5.43133758 C30.4896815,5.39770701 30.4583439,5.14955414 30.4583439,4.99184713 L30.4583439,2.51286624 L33.08,5.97171975 C33.1994904,6.13146497 33.2978344,6.18292994 33.5775796,6.18292994 C33.595414,6.18292994 33.6015287,6.18292994 33.6015287,6.18292994 C33.7248408,6.18292994 34.230828,6.18292994 35.9910828,6.18292994 L35.9910828,2.41859873 C35.9910828,2.26089172 36.023949,2.01273885 36.3238217,1.97910828 L36.9842038,1.90012739 L36.9842038,1.22878981 L33.8129936,1.22878981 L33.8129936,1.90012739 Z M43.2147771,3.70573248 C43.2147771,2.64356688 42.8820382,2.17579618 41.9011465,2.17579618 L40.2371975,2.17579618 L40.2371975,5.23388535 L41.9011465,5.23312102 C42.8820382,5.23312102 43.2147771,4.76713376 43.2147771,3.70573248 Z M45.4978344,3.70573248 C45.4978344,5.46496815 44.0374522,6.18292994 42.263949,6.18292994 L37.2957962,6.18292994 L37.2957962,5.51057325 L37.9630573,5.43133758 C38.2601274,5.39770701 38.2919745,5.14955414 38.2919745,4.99184713 L38.2904459,2.36509554 C38.2904459,2.07694268 38.1541401,1.98828025 37.9480255,1.96127389 L37.3584713,1.90012739 L37.3584713,1.22878981 L42.263949,1.22878981 C44.0374522,1.22878981 45.4978344,1.94420382 45.4978344,3.70573248 Z M50.2163057,3.78878981 L49.2180892,2.26394904 L48.2789809,3.78878981 L50.2163057,3.78878981 Z M54.4756688,5.51057325 L54.4756688,6.18292994 L50.1849682,6.18292994 L50.1849682,5.51057325 L50.7447134,5.45299363 C50.9610191,5.42980892 51.2094268,5.30675159 51.0109554,5.00713376 L50.7870064,4.66522293 L47.7416561,4.66522293 L47.4878981,5.07566879 C47.371465,5.26828025 47.4963057,5.42980892 47.7307006,5.45375796 L48.2759236,5.51057325 L48.2759236,6.18292994 L45.1036943,6.18292994 L45.1036943,5.51057325 L45.7750318,5.43286624 C45.9707006,5.40764331 46.0547771,5.28 46.1258599,5.16611465 L47.8127389,2.41961783 C47.9561783,2.18700637 47.7788535,2.01656051 47.6550318,2.00356688 L46.7571975,1.90012739 L46.7571975,1.22878981 L50.522293,1.22878981 C50.764586,1.22878981 50.8840764,1.30675159 51.0481529,1.55821656 C51.0481529,1.55821656 51.0481529,1.55821656 53.3347771,5.05248408 C53.4323567,5.20025478 53.5294268,5.40305732 53.8443312,5.43898089 L54.4756688,5.51057325 Z M8.48229299,1.75261146 C8.38598726,1.00789809 8.01630573,0.631592357 7.22547771,0.492738854 C6.85375796,0.425477707 6.35872611,0.378853503 5.88942675,0.355414013 C5.51006369,0.329936306 4.88764331,0.317961783 4.53961783,0.320254777 C4.19133758,0.317961783 3.56917197,0.329936306 3.1933758,0.355414013 C2.71923567,0.378853503 2.22343949,0.425477707 1.85350318,0.492738854 C1.06216561,0.631592357 0.691974522,1.00789809 0.59566879,1.75261146 C0.535031847,2.25197452 0.525605096,3.18089172 0.569426752,3.75490446 C0.636178344,4.7044586 0.722292994,5.27617834 0.845605096,5.68509554 C0.948789809,6.04636943 1.08178344,6.28866242 1.27261146,6.46343949 C1.59490446,6.75490446 2.03719745,6.8155414 2.29656051,6.8522293 C2.85579618,6.93579618 3.79949045,6.96484076 4.53961783,6.96713376 C5.2833121,6.96484076 6.22420382,6.93579618 6.78547771,6.8522293 C7.04458599,6.8155414 7.48407643,6.75490446 7.80535032,6.46343949 C7.99923567,6.28866242 8.13070064,6.04636943 8.23745223,5.68509554 C8.35541401,5.27617834 8.44280255,4.7044586 8.51312102,3.75490446 C8.55592357,3.18089172 8.54802548,2.25197452 8.48229299,1.75261146 Z M8.98522293,2.95694268 C8.97426752,3.71159236 8.90980892,4.21987261 8.87414013,4.57426752 C8.84942675,4.81477707 8.74726115,5.54547771 8.61681529,5.91872611 C8.43847134,6.43796178 8.27923567,6.58598726 8.08840764,6.74216561 C7.74267516,7.02242038 7.17375796,7.11006369 7.05579618,7.13095541 C6.41248408,7.24585987 5.11286624,7.26751592 4.53961783,7.26751592 C3.96636943,7.26751592 2.66675159,7.24585987 2.02675159,7.13095541 C1.90394904,7.11006369 1.33605096,7.02242038 0.989044586,6.74216561 C0.802292994,6.58598726 0.640254777,6.43796178 0.462929936,5.91872611 C0.331210191,5.54547771 0.233375796,4.81477707 0.207388535,4.57426752 C0.170191083,4.21987261 0.104713376,3.71159236 0.0947770701,2.95694268 C0.087133758,2.50012739 0.0970700637,2.07770701 0.131210191,1.7533758 C0.252993631,0.562038217 1.04738854,0.311592357 1.74598726,0.194649682 C2.09350318,0.136305732 2.71898089,0.0858598726 3.12025478,0.0682802548 C3.47082803,0.047133758 4.29503185,0.0349044586 4.53961783,0.0349044586 C4.78318471,0.0349044586 5.61171975,0.047133758 5.95847134,0.0682802548 C6.36,0.0858598726 6.98471338,0.136305732 7.33707006,0.194649682 C8.03235669,0.311592357 8.82878981,0.562038217 8.94751592,1.7533758 C8.98140127,2.07770701 8.9910828,2.50012739 8.98522293,2.95694268 Z M6.87898089,0.661146497 C7.00356688,0.670318471 7.09859873,0.680764331 7.20203822,0.693757962 C7.20203822,0.693757962 7.0866242,2.56968153 7.0333758,3.36280255 C6.97681529,4.19745223 6.8766879,5.60713376 6.78802548,6.66904459 C6.78802548,6.66904459 6.61401274,6.69656051 6.33019108,6.71312102 C6.03184713,6.73095541 5.90038217,6.73248408 5.90038217,6.73248408 C5.7755414,6.26267516 5.62343949,5.61426752 5.45044586,5.3355414 C5.31133758,5.10929936 5.09273885,5.08687898 4.97171975,5.07006369 C4.77707006,5.04407643 4.61528662,5.04025478 4.53987261,5.04254777 L4.53961783,5.04254777 C4.53961783,5.04254777 4.53961783,5.04254777 4.53834395,5.04254777 C4.4611465,5.04025478 4.30165605,5.04407643 4.11031847,5.07006369 C3.98573248,5.08687898 3.77070064,5.10929936 3.62904459,5.3355414 C3.45732484,5.61426752 3.30267516,6.26267516 3.18292994,6.73248408 C3.18292994,6.73248408 3.04738854,6.73095541 2.74828025,6.71312102 C2.46394904,6.69656051 2.29452229,6.66904459 2.29452229,6.66904459 C2.20178344,5.60713376 2.10191083,4.19745223 2.0489172,3.36280255 C1.99566879,2.56968153 1.87643312,0.693757962 1.87643312,0.693757962 C1.98242038,0.680764331 2.07414013,0.670318471 2.19898089,0.661146497 C2.29070064,0.655031847 2.49299363,0.647133758 2.49299363,0.647133758 C2.69656051,1.55821656 2.77808917,1.97783439 2.94598726,2.63719745 C3.10292994,3.27057325 3.22828025,3.85859873 3.44101911,4.14394904 C3.65681529,4.43184713 3.94624204,4.49503185 4.14343949,4.5166879 C4.24484076,4.52789809 4.31949045,4.53299363 4.53961783,4.53452229 C4.75974522,4.53299363 4.83388535,4.52789809 4.93757962,4.5166879 C5.13375796,4.49503185 5.42140127,4.43184713 5.63898089,4.14394904 C5.85401274,3.85859873 5.97503185,3.27057325 6.13605096,2.63719745 C6.29987261,1.97783439 6.38242038,1.55821656 6.58547771,0.647133758 C6.58547771,0.647133758 6.79184713,0.655031847 6.87898089,0.661146497 Z" id="Fill-2"></path>
        </g>
    </g>
</svg>