<?xml version="1.0" encoding="UTF-8"?>
<svg width="60px" height="40px" viewBox="0 0 60 40" version="1.1" xmlns="http://www.w3.org/2000/svg" xmlns:xlink="http://www.w3.org/1999/xlink">
    <!-- Generator: Sketch 53 (72520) - https://sketchapp.com -->
    <title>logo-acura-light</title>
    <desc>Created with Sketch.</desc>
    <g id="Page-1" stroke="none" stroke-width="1" fill="none" fill-rule="evenodd">
        <g id="logo-acura-light" fill="#FFFFFF" fill-rule="nonzero">
            <path d="M59.1123436,39.0012066 C58.5115031,39.6327774 57.5367894,39.984634 56.3981408,39.984634 L56.3772995,39.984634 C54.3437442,39.984634 52.8576553,39.0467839 52.5849388,37.3224003 L52.5656224,37.198951 L53.3461559,37.198951 L53.3616598,37.2820319 C53.6313263,38.5433503 54.7110093,39.2147687 56.3849244,39.2191962 C57.3245636,39.2191962 58.1048429,38.9071872 58.5450525,38.4425595 C58.7781197,38.1847223 58.9097759,37.8581286 58.9097759,37.4995006 L58.9062177,37.3880316 C58.8792764,36.4686729 58.1704168,35.9847725 56.2136187,35.6917757 C54.8472404,35.4865478 53.0498023,35.2500668 53.0050696,33.5217766 C53.0093904,32.3378093 54.0959356,31.1931686 56.1330491,31.1923873 C57.9307415,31.1848345 59.1636844,32.0333531 59.5101081,33.5624055 L59.5413701,33.6928867 L58.7460952,33.6928867 L58.7222039,33.615796 C58.4080589,32.5651747 57.55026,31.9622525 56.1488072,31.957825 C54.7422712,31.9599086 53.798057,32.6451303 53.798057,33.5004204 L53.798057,33.5204744 C53.8018695,34.3627424 54.5539367,34.6518325 56.3356168,34.9120137 C57.9902155,35.1630793 59.6112648,35.6217169 59.7014925,37.3643314 L59.7014925,37.4377759 C59.7014925,38.0091847 59.5062956,38.5805935 59.1123436,39.0012066 Z M51.0579297,34.8961267 C50.742768,33.2365931 49.3913853,32.0057463 47.8089687,32.007309 C46.2102858,32.007309 44.8782194,33.2365931 44.5788158,34.8961267 L51.0579297,34.8961267 Z M47.9022464,39.984634 C45.5662377,39.979946 43.721017,38.0586686 43.7166962,35.619373 C43.721017,33.1808586 45.5426005,31.1923873 47.8089687,31.1923873 C50.2433384,31.19395 51.9014955,33.426455 51.9014955,35.5292602 L51.9014955,35.5842133 L51.9053079,35.6917757 L44.4992629,35.6917757 C44.5625494,37.7146253 46.0532133,39.1858597 47.9022464,39.1858597 C49.7406048,39.1811718 50.5455379,38.1649288 50.9290693,37.1111822 L50.953723,37.038519 L51.7695851,37.038519 L51.7279024,37.1783761 C51.1628989,38.9759438 49.8232076,39.984634 47.9177503,39.984634 L47.9022464,39.984634 Z M39.0665367,39.984634 L39.071874,39.984634 C40.8789704,39.984634 42.3205808,38.8699441 42.8604223,37.1783761 L42.9056632,37.043207 L42.0882762,37.043207 L42.0613349,37.1111822 C41.5924049,38.3907316 40.5050971,39.1835157 39.0665367,39.1887245 C37.2490196,39.1835157 35.7537809,37.5857067 35.7537809,35.6201543 C35.7553059,33.6241301 37.2490196,32.0096529 39.0665367,32.0057463 C40.4575687,32.007309 41.5476722,32.8016557 42.045831,34.0689644 L42.0748056,34.1338143 L42.9056632,34.1338143 L42.8604223,33.9973429 C42.3048227,32.305775 40.8774454,31.191606 39.0665367,31.1923873 C36.7999143,31.1923873 34.9770599,33.1808586 34.9747724,35.6201543 C34.9770599,38.0266343 36.8037267,39.984634 39.0665367,39.984634 Z M33.7253089,30.2248469 L33.0499987,30.2248469 L33.0499987,28.5515099 L33.8259573,28.5515099 L33.8259573,30.2248469 L33.7253089,30.2248469 Z M33.7253089,39.7937303 L33.0499987,39.7937303 L33.0499987,31.3976152 L33.8259573,31.3976152 L33.8259573,39.7937303 L33.7253089,39.7937303 Z M28.8034495,39.7937303 L28.1113647,39.7937303 L24.956698,31.3976152 L25.7997555,31.3976152 L28.4893045,38.5884067 L31.1885116,31.3976152 L32.0269941,31.3976152 L28.8985063,39.7275781 L28.8741067,39.7937303 L28.8034495,39.7937303 Z M20.7109112,39.7937303 L20.0193347,39.7937303 L20.0193347,31.3976152 L20.8158804,31.3976152 L20.8158804,32.4909489 C20.9185621,32.3362466 21.035731,32.1880554 21.1739955,32.0583555 C21.7852567,31.5007501 22.5746859,31.1931686 23.4802673,31.1931686 C23.6403897,31.1931686 23.8025455,31.2007214 23.9713095,31.222859 L24.0584873,31.2327558 L24.0584873,31.9828274 L23.9494515,31.9721493 C23.8218619,31.9614712 23.6975764,31.9562624 23.5796449,31.9562624 C22.7289626,31.9562624 22.0831353,32.2323304 21.6683419,32.6451303 C21.1142673,33.1472617 20.8158804,33.9147829 20.8158804,34.7458519 L20.8158804,39.7937303 L20.7109112,39.7937303 Z M18.0289871,34.8961267 C17.7110297,33.2365931 16.364476,32.0057463 14.7823136,32.007309 C13.1805807,32.007309 11.8482602,33.2365931 11.5475858,34.8961267 L18.0289871,34.8961267 Z M14.8730497,39.984634 C12.5355159,39.979946 10.6913119,38.0586686 10.6862287,35.619373 C10.6913119,33.1808586 12.5131496,31.1923873 14.7823136,31.1923873 C17.2164292,31.19395 18.8745862,33.4280177 18.8745862,35.5292602 L18.8745862,35.5842133 L18.8766195,35.6917757 L11.4672704,35.6917757 C11.5336069,37.7146253 13.0189333,39.1858597 14.8730497,39.1858597 C16.7106456,39.1811718 17.5117661,38.1649288 17.8986017,37.1111822 L17.9232555,37.038519 L18.7434383,37.038519 L18.6997223,37.1783761 C18.1329396,38.9759438 16.794265,39.984634 14.8872828,39.984634 L14.8730497,39.984634 Z M1.79104478,36.3350663 L1.79104478,36.2298479 L2.56674913,36.2298479 L2.56674913,36.3350663 C2.56674913,38.2961913 4.17204033,39.1811718 5.78876884,39.1858597 C7.87900233,39.1780464 9.1015246,38.2495723 9.10355791,36.733542 C9.09923713,35.4323759 8.34666161,34.8594045 5.831214,34.3260202 C3.92346927,33.9475986 2.08943171,33.2931089 2.08714424,31.3114091 C2.08892339,29.4802445 3.61440751,28.2686703 5.83400979,28.267889 C8.38529433,28.2699725 9.55139248,29.959457 9.55571325,31.6288873 L9.55571325,31.734887 L8.77619642,31.734887 L8.77619642,31.6288873 C8.77263815,30.0678007 7.64669767,29.0567665 5.83400979,29.0468697 C4.01573031,29.0536412 2.86310276,29.970135 2.86157779,31.3114091 C2.86157779,32.443809 3.67921898,33.0626181 5.98142412,33.5470395 C8.39851075,34.0452642 9.88409134,34.7487168 9.88358304,36.733542 C9.87722896,38.7272221 8.23991325,39.9945307 5.78876884,40 C3.8756867,39.9945307 1.79104478,38.8407746 1.79104478,36.3350663 Z M59.5665322,25.7697336 L58.8889346,25.7697336 L58.8889346,13.7313433 L59.6671806,13.7313433 L59.6671806,25.7697336 L59.5665322,25.7697336 Z M53.5522818,21.714398 C51.5001727,21.9323876 50.8055462,22.4467597 50.7979213,23.5020689 C50.8024962,24.7495839 52.2052198,25.1118581 52.9827033,25.1149835 C54.6848304,25.1105559 56.3251961,24.3344401 56.3274836,22.6910539 L56.3274836,21.0336038 C55.6387029,21.5326098 54.5620699,21.6250666 53.5522818,21.714398 Z M56.6446786,25.7697336 L56.582917,25.7697336 L56.55318,25.7093111 C56.4189821,25.4194396 56.3409542,25.061593 56.3290085,24.6115499 C55.6305696,25.4241276 54.4489675,25.9108929 52.9827033,25.9108929 C51.5604092,25.9101116 49.9802801,25.1790521 49.9751969,23.5187371 C49.9802801,21.5646441 51.7675518,21.1161638 53.4704414,20.9651076 C55.2582214,20.7911327 56.3506124,20.5812168 56.3274836,19.7011847 C56.3251961,18.2838618 55.0274417,17.9557054 53.8509229,17.9460691 C52.4154123,17.9533614 51.5151683,18.5440429 51.1837402,19.6056027 L51.1613739,19.6803494 L50.3630491,19.6803494 L50.3935485,19.5470033 C50.7615761,18.0372236 52.0214602,17.1587542 53.8509229,17.1668279 C55.8786324,17.1683906 57.1011546,18.0937394 57.104967,19.7011847 L57.104967,24.32845 C57.1034421,24.7251024 57.2129862,25.3280247 57.3319343,25.625449 L57.3901376,25.7697336 L56.6446786,25.7697336 Z M48.5694233,16.1969435 L47.8933507,16.1969435 L47.8933507,14.5259505 L48.675155,14.5259505 L48.675155,16.1969435 L48.5694233,16.1969435 Z M48.5694233,25.7697336 L47.8933507,25.7697336 L47.8933507,17.3720559 L48.675155,17.3720559 L48.675155,25.7697336 L48.5694233,25.7697336 Z M42.6393008,25.9603768 L42.642859,25.9603768 C44.4522429,25.9603768 45.8961408,24.8441242 46.4301365,23.1525563 L46.4746149,23.016085 L45.6587528,23.016085 L45.6325741,23.0809349 C45.1633899,24.3641304 44.0770988,25.1616025 42.6393008,25.1616025 C40.8222921,25.1592585 39.3242576,23.5578034 39.3242576,21.5945949 C39.3242576,19.5972685 40.8222921,17.9804473 42.6393008,17.9778429 C44.0272829,17.9804473 45.1189114,18.7755755 45.618341,20.0439259 L45.6468072,20.1082549 L46.4746149,20.1082549 L46.4301365,19.9694395 C45.8760619,18.2781321 44.4522429,17.1660466 42.6393008,17.1668279 C40.3711534,17.1668279 38.5505865,19.156341 38.5452491,21.5945949 C38.5505865,24.0010749 40.3734409,25.9603768 42.6393008,25.9603768 Z M37.2518154,25.7697336 L36.5749804,25.7697336 L36.5749804,20.7200321 C36.5610014,18.9633538 35.683632,17.9580494 33.9741341,17.9460691 C32.4082381,17.9494548 31.206303,19.1230045 31.2035072,20.7200321 L31.2035072,25.7697336 L30.4252613,25.7697336 L30.4252613,17.3720559 L31.2035072,17.3720559 L31.2035072,18.5185196 C31.8206141,17.683544 32.8118484,17.1660466 33.9868422,17.1668279 C36.0857173,17.1683906 37.3509389,18.5497726 37.3524638,20.7200321 L37.3524638,25.7697336 L37.2518154,25.7697336 Z M25.0837793,21.714398 C23.0364993,21.9323876 22.3400937,22.4467597 22.3378063,23.5020689 C22.3378063,24.7495839 23.739259,25.1118581 24.5164884,25.1149835 C26.2170905,25.1105559 27.8574562,24.3344401 27.8630478,22.6910539 L27.8630478,21.0336038 C27.1798586,21.5326098 26.0973799,21.6250666 25.0837793,21.714398 Z M28.1799885,25.7697336 L28.1144146,25.7697336 L28.0862025,25.7093111 C27.9535296,25.4194396 27.8770267,25.061593 27.8660977,24.6115499 C27.1686754,25.4241276 25.9885983,25.9108929 24.5225882,25.9108929 L24.5164884,25.9108929 C23.0957192,25.9101116 21.5143193,25.1790521 21.510761,23.5187371 C21.5143193,21.5646441 23.3015909,21.1161638 25.0029556,20.9651076 C26.7927689,20.7911327 27.8874473,20.5812168 27.8630478,19.7011847 C27.8622853,18.2838618 26.5642767,17.9557054 25.3849621,17.9460691 C23.9560598,17.9533614 23.0504783,18.5427407 22.721846,19.6056027 L22.698463,19.6803494 L21.8993757,19.6803494 L21.9359751,19.5470033 C22.298411,18.0372236 23.5575327,17.1587542 25.3849621,17.1668279 C27.4131799,17.1683906 28.6382438,18.0937394 28.6405312,19.7011847 L28.6405312,24.32845 C28.6395146,24.7251024 28.7475337,25.3280247 28.866736,25.625449 L28.9216351,25.7697336 L28.1799885,25.7697336 Z M20.1687823,25.7697336 L19.4909306,25.7697336 L19.4909306,20.7200321 C19.4807641,18.9633538 18.6013614,17.9580494 16.8918635,17.9460691 C15.3295258,17.9494548 14.1237783,19.1230045 14.1204741,20.7200321 L14.1204741,25.7697336 L13.3407032,25.7697336 L13.3407032,17.3720559 L14.1204741,17.3720559 L14.1204741,18.5185196 C14.739106,17.683544 15.7323736,17.1660466 16.9068591,17.1668279 C19.0047175,17.1683906 20.2661266,18.5497726 20.2709557,20.7200321 L20.2709557,25.7697336 L20.1687823,25.7697336 Z M11.2868149,16.1969435 L10.610234,16.1969435 L10.610234,14.5259505 L11.3877175,14.5259505 L11.3877175,16.1969435 L11.2868149,16.1969435 Z M11.2868149,25.7697336 L10.610234,25.7697336 L10.610234,17.3720559 L11.3877175,17.3720559 L11.3877175,25.7697336 L11.2868149,25.7697336 Z M2.78964976,25.7697336 L2.11408548,25.7697336 L2.11408548,14.5259505 L9.18285666,14.5259505 L9.18285666,15.323683 L2.89004401,15.323683 L2.89004401,19.4873622 L8.51491725,19.4873622 L8.51491725,20.2668638 L2.89004401,20.2668638 L2.89004401,25.7697336 L2.78964976,25.7697336 Z" id="Fill-1"></path>
            <path d="M46.3874366,0.612561039 L48.1137663,0.612561039 L51.9402985,7.14527725 L50.1327806,7.14527725 L47.2405484,2.21198808 L45.7157892,4.80618389 L48.1934275,4.80618389 L48.9175035,6.04009487 L44.9947672,6.04009487 L44.3483162,7.14527725 L42.5581048,7.14527725 L46.3874366,0.612561039 Z M19.3108084,3.88153558 L19.3108084,4.6944621 C19.3260789,5.25542587 19.4314454,5.80801706 20.1896256,5.80592391 L24.9736179,5.80592391 L24.9736179,7.14527725 L20.1710464,7.14527725 C18.6725016,7.14527725 17.7529632,6.45767797 17.7359111,4.74443602 L17.7359111,3.01706528 C17.7529632,1.30356166 18.6725016,0.614915833 20.1710464,0.618578842 L24.9736179,0.61856431 L24.9736179,1.95793219 L20.1896256,1.95793219 C19.4314454,1.95243767 19.3260789,2.50424392 19.3108084,3.06546934 L19.3108084,3.88153558 Z M29.6463901,7.1468471 L28.2300515,7.1468471 C26.5650583,7.14527725 25.8929019,6.20022072 25.8929019,4.65992515 L25.8929019,0.612561039 L27.4601639,0.612561039 L27.4601639,4.9377906 C27.4657631,5.75751985 28.0183006,5.86557864 28.5257901,5.87944574 L30.7702988,5.87944574 C31.2744797,5.86557864 31.8305803,5.75751985 31.834398,4.9377906 L31.834398,0.612561039 L33.403187,0.612561039 L33.403187,4.65992515 C33.4024235,6.20022072 32.7312852,7.14527725 31.0662919,7.1468471 L29.6463901,7.1468471 Z M35.9704122,7.14527725 L34.4171481,7.14527725 L34.4171481,0.612561039 L40.2413159,0.612561039 C42.2664383,0.612561039 42.7861442,3.37708681 41.3680241,4.33130085 C41.9874973,4.56704169 42.0859919,5.36688603 42.116533,5.62800629 L42.1656531,7.14527725 L40.628932,7.14527725 L40.5821024,5.80592391 C40.5380725,5.23658754 40.1914322,4.8422907 39.6284599,4.8422907 L36.6705645,4.8422907 L36.3641365,3.4851456 L39.7903272,3.4851456 C40.324031,3.4851456 40.6319861,3.22899656 40.6319861,2.74547928 C40.6319861,2.28550991 40.324031,2.00869103 39.7903272,2.00869103 L35.9755024,2.00869103 L35.9704122,7.14527725 Z M12.2772173,0.612561039 L14.0007474,0.612561039 L17.8326243,7.14527725 L16.0223068,7.14527725 L13.129311,2.21198808 L11.6058244,4.80618389 L14.0814266,4.80618389 L14.8077932,6.04009487 L10.8850569,6.04009487 L10.2391149,7.14527725 L8.44610394,7.14527725 L12.2772173,0.612561039 Z M7.10815385,4.70440456 C7.00406,5.9440717 6.51922167,6.69577361 5.71013981,7.09425678 C5.67603571,6.43020543 5.5439459,4.9035153 5.47090202,4.29179267 C5.35560977,3.54453869 5.23599087,3.31062935 5.09906541,2.89670925 C4.98784528,2.559974 4.41011146,1.03799346 4.12862529,0.329724361 C4.12862529,0.329724361 4.84837474,0.343068182 5.45079587,0.557092608 C5.88625955,0.711723946 6.31154293,1.00659623 6.60651803,1.44354096 C7.2873277,2.45217685 7.14887516,4.2174859 7.10815385,4.70440456 Z M5.62996971,7.13141015 C5.07412359,7.37604687 4.38440613,7.4302071 3.81354402,7.44093445 C3.24369996,7.4302071 2.55321896,7.37604687 1.99711835,7.13141015 C1.99635482,7.13141015 1.9955913,7.13141015 1.9955913,7.13141015 C2.18214587,6.62408328 3.0731794,4.4283706 3.56208983,3.57070304 C3.60179313,3.57070304 4.02580394,3.57070304 4.06601625,3.57070304 C4.55390864,4.4283706 5.44494218,6.62408328 5.6327693,7.13141015 C5.63149675,7.13141015 5.63124224,7.13141015 5.62996971,7.13141015 Z M0.520715744,4.70440456 C0.479739909,4.2174859 0.341287398,2.45217685 1.02184257,1.44354096 C1.31707219,1.00659623 1.74261005,0.711723946 2.17807374,0.557092608 C2.78074938,0.343068182 3.50024432,0.329724361 3.50024432,0.329724361 C3.21850364,1.03799346 2.64076981,2.559974 2.52954969,2.89670925 C2.39287874,3.31062935 2.27300533,3.54453869 2.15745857,4.29179267 C2.08517821,4.9035153 1.9525794,6.43020543 1.91822078,7.09425678 C1.10964793,6.69577361 0.624555128,5.9440717 0.520715744,4.70440456 Z M3.6010296,0.327892856 C3.73057432,0.320566836 3.75678867,0.321613411 3.81481657,0.322136698 C3.87233544,0.321613411 3.89931332,0.320566836 4.02834902,0.327892856 L4.03191214,3.14736377 C3.99526294,3.14736377 3.6346247,3.14736377 3.59772099,3.14736377 L3.6010296,0.327892856 Z M7.62353313,3.51732776 C7.55787003,2.22925655 7.12647845,1.28132196 6.54263642,0.765360878 C5.91018334,0.207798466 4.7305374,-0.00387116819 3.8158346,5.34850995e-05 C2.90164082,-0.00387116819 1.72174038,0.207798466 1.08979629,0.765360878 C0.505190739,1.28132196 0.0743082,2.22925655 0.00864506079,3.51732776 C-0.0524369293,4.72507439 0.207416037,6.046636 0.875754812,6.79545982 C1.5199153,7.52936997 2.81408996,7.76275606 3.81507107,7.76118615 C3.81558009,7.76118615 3.81558009,7.76118615 3.81558009,7.76118615 L3.81659813,7.76118615 C4.81783374,7.76275606 6.11277194,7.52936997 6.75718693,6.79545982 C7.42450764,6.046636 7.68486967,4.72507439 7.62353313,3.51732776 Z" id="Fill-2"></path>
        </g>
    </g>
</svg>